<?xml version="1.0" standalone="no"?>
<!DOCTYPE svg PUBLIC "-//W3C//DTD SVG 1.1//EN" "http://www.w3.org/Graphics/SVG/1.1/DTD/svg11.dtd" >
<svg xmlns="http://www.w3.org/2000/svg" xmlns:xlink="http://www.w3.org/1999/xlink" version="1.1">
<metadata>
Created by FontForge 20170731 at Wed Jun  9 23:34:45 2021
 By Aleksey,,,
Copyright (C) 2020 Dimitar Toshkov Zhekov; Copyright (C) 2021 Tilman Blumenbach; Licensed under the SIL Open Font License, Version 1.1
</metadata>
<defs>
<font id="TerminusTTF-BoldItalic" horiz-adv-x="500" >
  <font-face 
    font-family="Terminus (TTF)"
    font-weight="700"
    font-style="italic"
    font-stretch="normal"
    units-per-em="1000"
    panose-1="2 0 8 9 0 0 0 0 0 0"
    ascent="833"
    descent="-167"
    x-height="458"
    cap-height="646"
    bbox="-172 -180 662 833"
    underline-thickness="50"
    underline-position="-150"
    unicode-range="U+0020-FFFD"
  />
<missing-glyph 
d="M33 0v666h265v-666h-265zM66 33h199v600h-199v-600z" />
    <glyph glyph-name=".notdef" 
d="M33 0v666h265v-666h-265zM66 33h199v600h-199v-600z" />
    <glyph glyph-name=".null" horiz-adv-x="0" 
 />
    <glyph glyph-name="nonmarkingreturn" 
 />
    <glyph glyph-name="char0" 
d="M281 83v94h94v-57l-37 -100h-150v63h93zM-31 120v57h93v-57l38 -100h-169zM344 355l40 41h78l-31 -126h-87v85zM31 355l41 41h78l-31 -126h-88v85zM375 583v63h156v-57l-37 -100h-94l34 94h-59zM125 589v57h156v-32l-125 -125h-68z" />
    <glyph glyph-name="char0" 
d="M281 83v94h94v-57l-37 -100h-150v63h93zM-31 120v57h93v-57l38 -100h-169zM344 355l40 41h78l-31 -126h-87v85zM31 355l41 41h78l-31 -126h-88v85zM375 583v63h156v-57l-37 -100h-94l34 94h-59zM125 589v57h156v-32l-125 -125h-68z" />
    <glyph glyph-name="space" unicode=" " 
 />
    <glyph glyph-name="exclam" unicode="!" 
d="M94 46l37 100h88v-26l-38 -100h-87v26zM159 236l135 410h81l-6 -79l-110 -312z" />
    <glyph glyph-name="quotedbl" unicode="&#x22;" 
d="M347 520l65 188h88v-28l-62 -160h-91zM159 520l66 188h87v-28l-62 -160h-91z" />
    <glyph glyph-name="numbersign" unicode="#" 
d="M188 555v91h100l-38 -157h94l37 157h94l-37 -157l78 -3l-107 -81l-65 -166h62v-62h-87l-38 -157h-93l37 157h-94l-37 -157h-85l7 204l72 62l40 141h-78zM312 399v28h-87l-66 -188h91z" />
    <glyph glyph-name="dollar" unicode="$" 
d="M312 649v59h100l-34 -88l122 -31v-100h-81l-66 66l-44 -166l125 -87l-68 -194l-163 -72l-50 -78h-87l34 94h-94l-37 103l34 34l116 -72l65 185h-87l-38 62l38 182zM209 361l44 166l-28 31l-75 -138zM241 114l78 91l-28 112l-75 -181z" />
    <glyph glyph-name="percent" unicode="%" 
d="M122 520l69 129l168 -19l-9 -125l112 141h69v-47q-172 -197 -236 -272l-64 -75l-40 -63l184 25v-125l-91 -75l-143 22l21 125l-121 -141h-72v32q140 162 226 261l86 98v47h-122z" />
    <glyph glyph-name="ampersand" unicode="&#x26;" 
d="M134 536l94 110h172l62 -79l-53 -134l-128 -91l94 -78v69h94v-31l-125 -125l37 -157h-100v69l-90 -72l-207 19l10 206l165 132l-59 59zM338 461l31 122h-122l-53 -141l53 -56zM281 205l-37 97h-72l-78 -50l-16 -153l138 -19z" />
    <glyph glyph-name="quotesingle" unicode="'" 
d="M253 520l66 188h87v-28l-62 -160h-91z" />
    <glyph glyph-name="parenleft" unicode="(" 
d="M166 458l190 188h94l-191 -188l-81 -284l72 -154h-94l-72 154z" />
    <glyph glyph-name="parenright" unicode=")" 
d="M306 483l-87 166l106 -19l75 -147l-97 -291l-191 -172h-93l190 172z" />
    <glyph glyph-name="asterisk" unicode="*" 
d="M219 364l-100 156h103l34 -96l147 96h81l-187 -153l141 -3v-62h-157v-60l63 -37v-59h-88l-37 100l-88 -72l-131 -25v21l203 132h-172v62h188z" />
    <glyph glyph-name="plus" unicode="+" 
d="M212 364l38 156h94l-38 -156h132v-62h-157l-62 -156h-94l63 156h-157v62h181z" />
    <glyph glyph-name="comma" unicode="," 
d="M125 86v60h94v-50l-78 -107l-150 -28z" />
    <glyph glyph-name="hyphen" unicode="-" 
d="M31 302v62h407v-62h-407z" />
    <glyph glyph-name="period" unicode="." 
d="M94 46l37 100h88v-26l-38 -100h-87v26z" />
    <glyph glyph-name="slash" unicode="/" 
d="M438 599v47h93v-47l-172 -194q-209 -256 -264 -320l-54 -65h-72v35l78 81l219 269z" />
    <glyph glyph-name="zero" unicode="0" 
d="M103 536l94 110h259l69 -69l-159 -478l-100 -75l-269 -4l-35 91zM406 499v84h-140l-69 -47l-72 -212v-25zM262 99l113 297h-22l-294 -226l25 -71h178z" />
    <glyph glyph-name="one" unicode="1" 
d="M156 527l141 115l78 4v-47l-166 -497l72 -25v-57h-281v63h112l132 406h-88v38z" />
    <glyph glyph-name="two" unicode="2" 
d="M103 536l94 110h259l69 -69l-59 -172l-419 -306l297 -19v-60h-406v60l390 294l78 96v113h-140l-66 -47l-41 -109h-93z" />
    <glyph glyph-name="three" unicode="3" 
d="M94 530l103 116h259l69 -69l-66 -213h-56l16 -78l-47 -194l-141 -75l-247 19l-18 141h90l35 -94h156l65 122v97h-187v62h216l65 122v97h-153l-94 -94h-65v41z" />
    <glyph glyph-name="four" unicode="4" 
d="M47 330l406 312l78 4v-47l-193 -579h-88l38 157h-288v78zM322 255l84 244l-15 15l-250 -184l-53 -94z" />
    <glyph glyph-name="five" unicode="5" 
d="M38 333l100 313h393v-63h-312l-63 -159v-28h244l34 -91l-72 -206l-96 -75l-269 -4l-35 97l41 41l122 -75h147l66 216l-35 34h-265z" />
    <glyph glyph-name="six" unicode="6" 
d="M103 536l94 110h303v-63h-234l-69 -47l-44 -140h247l34 -91l-72 -206l-96 -75l-269 -4l-35 91zM338 286l-29 47h-178l-69 -194l35 -56h156z" />
    <glyph glyph-name="seven" unicode="7" 
d="M94 505l37 141h400v-85l-140 -181l-141 -156l-69 -204h-87v35l87 200l197 219l63 109h-229l-31 -125h-87v47z" />
    <glyph glyph-name="eight" unicode="8" 
d="M100 536l97 110h259l69 -69l-66 -213h-56l16 -78l-47 -194l-141 -75l-247 19l-18 106l90 207zM406 470v113h-140l-78 -50l-16 -153l153 -22zM312 189v113h-140l-78 -50l-16 -153l153 -22z" />
    <glyph glyph-name="nine" unicode="9" 
d="M103 536l94 110h259l69 -69l-159 -478l-100 -75l-297 -4v63h278l65 122v65h-206l-68 69zM406 492v91h-140l-78 -50l-38 -200h194z" />
    <glyph glyph-name="colon" unicode=":" 
d="M94 46l37 100h88v-26l-38 -100h-87v26zM194 330l31 128h91l-19 -109z" />
    <glyph glyph-name="semicolon" unicode=";" 
d="M125 86v60h94v-50l-78 -107l-150 -28zM194 330l31 128h91l-19 -109z" />
    <glyph glyph-name="less" unicode="&#x3c;" 
d="M172 420l281 222l78 4v-26q-359 -265 -372 -274l-12 -10q103 -159 153 -237l50 -79h-94l-203 316z" />
    <glyph glyph-name="equal" unicode="=" 
d="M0 208v62h406v-62h-406zM62 396v62h407v-62h-407z" />
    <glyph glyph-name="greater" unicode="&#x3e;" 
d="M344 367l-191 279h94l191 -279v-53l-407 -300l-65 22l378 275v56z" />
    <glyph glyph-name="question" unicode="?" 
d="M94 46l37 100h88v-26l-38 -100h-87v26zM103 536l94 110h259l69 -69l-34 -103l-282 -266h-53v56l250 200v119h-140l-66 -47l-41 -109h-93z" />
    <glyph glyph-name="at" unicode="@" 
d="M103 536l94 110h291l68 -69l-140 -416l-254 -19l-34 94l72 206l97 75l172 3v63h-203l-69 -47l-135 -400l35 -53h278v-63h-378l-35 91zM372 286l40 172h-103l-87 -203l59 -59z" />
    <glyph glyph-name="A" unicode="A" 
d="M103 536l94 110h259l69 -69l-187 -557h-94l37 100l38 150h-216l-75 -250h-97q28 79 100 297zM406 492v91h-140l-69 -47l-69 -203h216z" />
    <glyph glyph-name="B" unicode="B" 
d="M-41 99l179 547h318l69 -69l-34 -103l-122 -135l65 -37l-72 -203l-96 -75l-335 -4zM406 470v113h-187l-63 -159v-28h175zM338 286l-29 47h-178l-69 -197v-53h191z" />
    <glyph glyph-name="C" unicode="C" 
d="M103 536l94 110h259l69 -69l-31 -88h-88v94h-140l-69 -47l-135 -400l35 -53h156l35 94h87v-72l-109 -81l-269 -4l-35 91z" />
    <glyph glyph-name="D" unicode="D" 
d="M-41 99l179 547h253l90 -57l13 -106l-88 -259l-68 -135l-154 -69h-253zM403 492l-34 91h-153q-29 -78 -91 -263l-63 -184v-53h147l94 109z" />
    <glyph glyph-name="E" unicode="E" 
d="M-41 99l179 547h393v-63h-312l-63 -159v-60h188v-62h-219l-63 -160v-59h282v-63h-413z" />
    <glyph glyph-name="F" unicode="F" 
d="M-41 99l179 547h393v-63h-312l-63 -159v-60h188v-59l-228 -19l-91 -266h-94z" />
    <glyph glyph-name="G" unicode="G" 
d="M103 536l94 110h259l69 -69l-31 -88h-88v94h-140l-69 -47l-135 -400l35 -53h156l85 203l-119 19v59h219v-53l-76 -212l-96 -75l-269 -4l-35 91z" />
    <glyph glyph-name="H" unicode="H" 
d="M-41 99l179 547h87l-75 -282h216l81 282h84v-47l-193 -579h-88v22l94 263l-228 -19l-91 -266h-94z" />
    <glyph glyph-name="I" unicode="I" 
d="M219 583v63h219v-41l-88 -69l-134 -412l40 -104h-225v63h81l163 500h-56z" />
    <glyph glyph-name="J" unicode="J" 
d="M344 583v63h218v-57l-81 -31l-147 -469l-137 -75l-213 22v156l104 19l-10 -112h156l169 484h-59z" />
    <glyph glyph-name="K" unicode="K" 
d="M-41 99l179 547h87l-37 -150l-44 -113l300 216l28 47h59v-54l-293 -212l-63 -41l169 -256v-63h-53l-175 266l-91 -266h-94z" />
    <glyph glyph-name="L" unicode="L" 
d="M-41 99l179 547h81v-50l-157 -463v-50h282v-63h-413z" />
    <glyph glyph-name="M" unicode="M" 
d="M-41 99l179 547h74l76 -188h28l181 188h65v-47l-193 -579h-88v22l125 363v65l-128 -137h-53l-41 141l-159 -454h-94z" />
    <glyph glyph-name="N" unicode="N" 
d="M-41 99l179 547h87l-34 -138l128 -206h22l109 344h81v-47l-193 -579h-88v29l56 143l-144 207l-28 -50l-109 -329h-94z" />
    <glyph glyph-name="O" unicode="O" 
d="M103 536l94 110h259l69 -69l-159 -478l-100 -75l-269 -4l-35 91zM403 474l3 109h-140l-69 -47l-135 -403l57 -56l147 22z" />
    <glyph glyph-name="P" unicode="P" 
d="M-41 99l179 547h318l69 -69l-66 -197l-93 -110h-263l-75 -250h-97zM375 383l41 200h-197l-66 -172l-25 -78h169z" />
    <glyph glyph-name="Q" unicode="Q" 
d="M103 536l94 110h259l69 -69l-159 -478l-82 -50l35 -91h-100v62h-222l-35 91zM406 502v81h-140l-69 -47l-135 -400l35 -53h62l-43 72l159 -41z" />
    <glyph glyph-name="R" unicode="R" 
d="M-41 99l179 547h318l69 -69l-66 -197l-93 -110h-182l119 -171l44 -79h-91l-144 232l-90 -232h-91zM375 383l41 200h-197l-66 -172l-25 -78h169z" />
    <glyph glyph-name="S" unicode="S" 
d="M88 524l109 122h259l69 -69l-31 -88h-88v94h-140l-78 -50l-16 -153l187 -22l72 -59l-65 -210l-135 -72l-247 19l-18 141h90l35 -94h156l65 122v94l-234 18z" />
    <glyph glyph-name="T" unicode="T" 
d="M94 20v19l184 544h-153v63h406v-60l-165 -19l-185 -547h-87z" />
    <glyph glyph-name="U" unicode="U" 
d="M-38 111l176 535h81v-50l-157 -463l57 -56l147 22l187 547h78v-47l-165 -500l-100 -75l-269 -4z" />
    <glyph glyph-name="V" unicode="V" 
d="M116 567l9 79h94l-38 -266l-22 -281l172 281l122 262l78 4v-66l-162 -294l-166 -266h-134l28 422z" />
    <glyph glyph-name="W" unicode="W" 
d="M-41 99l179 547h81v-54l-125 -362v-31l153 140l65 -40l-31 -57l60 -34l140 438h81v-47l-193 -579h-81l-44 141l6 47h-47l-200 -188h-72z" />
    <glyph glyph-name="X" unicode="X" 
d="M166 411l-41 235h94l9 -63l16 -63l6 -134l188 213v47h93v-47l-222 -250l38 -329h-97l-6 126l-16 62l-9 72l-141 -181l-75 -79h-65v35l78 81l143 172z" />
    <glyph glyph-name="Y" unicode="Y" 
d="M159 320l-40 326h100l9 -157l16 -62l6 -72l141 181l47 22v88h93v-63q-122 -141 -197 -230l-75 -89l-75 -244h-90v22l87 254z" />
    <glyph glyph-name="Z" unicode="Z" 
d="M125 583v63h406v-82l-78 -97l-391 -293v-91h282v-63h-413l38 100v54l422 318l50 91h-316z" />
    <glyph glyph-name="bracketleft" unicode="[" 
d="M53 99l178 547h238v-60l-166 -19l-147 -434v-50h125v-63h-256z" />
    <glyph glyph-name="backslash" unicode="\" 
d="M205 349q-21 125 -49 297h94l6 -47l19 -94l41 -250l34 -235h-100l-6 110l-19 94z" />
    <glyph glyph-name="bracketright" unicode="]" 
d="M219 583v63h250v-47l-194 -579h-244v63h175l163 500h-150z" />
    <glyph glyph-name="asciicircum" unicode="^" 
d="M122 558l206 147l72 3l100 -153v-35h-78l-81 132l-113 -103l-144 -25z" />
    <glyph glyph-name="underscore" unicode="_" 
d="M-94 -73v62h406v-62h-406z" />
    <glyph glyph-name="grave" unicode="`" 
d="M250 720v50h78l78 -124h-81z" />
    <glyph glyph-name="a" unicode="a" 
d="M94 396v62h300l68 -69l-124 -372l-354 19l-18 138l128 128h250v94h-250zM281 139l38 100h-188l-75 -90l41 -66h184v56z" />
    <glyph glyph-name="b" unicode="b" 
d="M-41 99l179 547h87l-44 -188h213l68 -69l-96 -290l-100 -75l-335 -4zM344 299v97h-188l-62 -160l-38 -153h197z" />
    <glyph glyph-name="c" unicode="c" 
d="M41 349l93 109h266l75 -94l-113 -44l-24 76h-135l-69 -47l-72 -210l35 -56h122l122 75l47 -44l-122 -90l-269 -4l-35 91z" />
    <glyph glyph-name="d" unicode="d" 
d="M400 458l44 188h87v-47l-193 -579h-341l-35 91l79 238l93 109h266zM269 83l100 313h-166l-69 -47l-72 -210l35 -56h172z" />
    <glyph glyph-name="e" unicode="e" 
d="M41 349l93 109h260l68 -69l-62 -178l-322 -19v-93l300 9l-72 -88h-309l-35 91zM344 270v126l-141 -7l-78 -31v-88h219z" />
    <glyph glyph-name="f" unicode="f" 
d="M250 530l103 116h209v-63h-118l-100 -37v-88h94v-59l-135 -19l-122 -360h-87v22l122 354h-122v62h156v72z" />
    <glyph glyph-name="g" unicode="g" 
d="M41 349l93 109h335v-50l-157 -466l-106 -78h-303l38 63h240l75 93h-259l-35 91zM269 83l100 313h-166l-69 -47l-72 -210l35 -56h172z" />
    <glyph glyph-name="h" unicode="h" 
d="M-41 99l179 547h87l-44 -188h213l68 -69l-124 -369h-88v22l94 269v88l-197 -19l-122 -360h-94z" />
    <glyph glyph-name="i" unicode="i" 
d="M156 396v62h156v-53l-93 -269l34 -116h-222v63h81l100 313h-56zM256 517l32 129h90l-19 -110z" />
    <glyph glyph-name="j" unicode="j" 
d="M281 396v62h157v-50l-157 -466l-106 -78h-200l-37 100l34 56h94l-38 -62l103 -41l78 88l132 391h-60zM381 517l31 129h91l-19 -110z" />
    <glyph glyph-name="k" unicode="k" 
d="M-9 99l178 547h81v-54l-94 -268v-60l244 194l84 -3l-156 -128l-116 -85l138 -222h-94l-128 204l-72 -204h-94z" />
    <glyph glyph-name="l" unicode="l" 
d="M219 583v63h156v-50l-156 -463l34 -113h-222v63h81l163 500h-56z" />
    <glyph glyph-name="m" unicode="m" 
d="M75 458h319l68 -69l-124 -369h-88v22l94 269v97l-56 -59l-107 -329h-87v22l122 357l-72 -22l-119 -357h-94q18 50 38.5 111t34.5 104t37 116t34 107z" />
    <glyph glyph-name="n" unicode="n" 
d="M75 458h319l68 -69l-124 -369h-88v22l94 269v88l-197 -19l-122 -360h-94q18 50 38.5 111t34.5 104t37 116t34 107z" />
    <glyph glyph-name="o" unicode="o" 
d="M41 349l93 109h260l68 -69l-96 -290l-100 -75l-269 -4l-35 91zM344 299v97h-141l-69 -47l-72 -210l35 -56h156z" />
    <glyph glyph-name="p" unicode="p" 
d="M-119 -136l194 594h319l68 -69l-96 -290l-100 -75l-235 -4l-62 -156h-88zM344 299v97h-188l-62 -160l-38 -153h197z" />
    <glyph glyph-name="q" unicode="q" 
d="M41 349l93 109h335v-50l-178 -528l-103 -19l62 159h-253l-35 91zM269 83l100 313h-166l-69 -47l-72 -210l35 -56h172z" />
    <glyph glyph-name="r" unicode="r" 
d="M75 458h81v-75l75 75h238v-62h-210l-153 -122l-78 -254h-97q18 50 38.5 111t34.5 104t37 116t34 107z" />
    <glyph glyph-name="s" unicode="s" 
d="M25 336l109 122h266l81 -100l-278 41l-87 -60l43 -69h172l69 -68l-31 -113l-138 -72l-240 19l-29 78l300 -15l22 106l-237 19z" />
    <glyph glyph-name="t" unicode="t" 
d="M212 458l44 188h94l-44 -188h100v-59l-134 -19l-84 -241l34 -56h122v-63h-222l-34 94l96 282h-122v62h150z" />
    <glyph glyph-name="u" unicode="u" 
d="M-41 89l113 369h84v-53l-94 -266l35 -56h175l112 375h85v-50l-131 -388h-335z" />
    <glyph glyph-name="v" unicode="v" 
d="M72 20l-13 438h97v-347l94 94v65h62v94h63v94h94v-94h-63v-94h-62v-93h-53l-82 -157h-137z" />
    <glyph glyph-name="w" unicode="w" 
d="M-41 89l113 369h84v-53l-94 -272l54 -53l75 253h97l-38 -100l-41 -159l69 43l110 341h81v-50l-103 -309l-100 -75l-263 -4z" />
    <glyph glyph-name="x" unicode="x" 
d="M62 364v94h94v-119l78 -62l141 112v69h94v-94l-47 -3l-147 -122l91 -140l-28 -79h-94l31 82l-84 115l-197 -197h-56v60l203 159z" />
    <glyph glyph-name="y" unicode="y" 
d="M-41 89l113 369h84v-53l-94 -266l35 -56h175l112 375h85v-50l-157 -466l-106 -78h-303l38 63h240l75 93h-253z" />
    <glyph glyph-name="z" unicode="z" 
d="M62 396v62h407v-50l-422 -309l297 -19v-60h-406v60l415 316h-291z" />
    <glyph glyph-name="braceleft" unicode="{" 
d="M225 536l97 110h147v-57l-150 -37l-44 -188h-53l6 -109l-44 -141l97 -37v-57h-159l-34 94l65 188h-91v62h119z" />
    <glyph glyph-name="bar" unicode="|" 
d="M116 99l178 547h81v-47l-194 -579h-93z" />
    <glyph glyph-name="braceright" unicode="}" 
d="M156 583v63h144l69 -69l-66 -194l72 -25v-50l-116 -28l-43 -178l-107 -78l-140 -4v63h125l118 250l44 250h-100z" />
    <glyph glyph-name="asciitilde" unicode="~" 
d="M138 630l96 75l107 3l75 -141l62 141h84v-62l-124 -126h-110l-87 138l-50 -138h-94z" />
    <glyph glyph-name="nbspace" unicode="&#xa0;" 
 />
    <glyph glyph-name="exclamdown" unicode="&#xa1;" 
d="M231 458h81v-50l-131 -388h-93q17 50 37.5 111t34.5 104t37 116t34 107zM256 517l32 129h90l-19 -110z" />
    <glyph glyph-name="cent" unicode="&#xa2;" 
d="M250 458v94h94v-69l140 -116l-115 -43l-53 84l-66 -172l-41 -169l85 79h81v-57l-219 -103v-59h-100l35 93h-94l-35 91l79 238l93 109h116zM212 396h-9l-69 -47l-72 -216l50 -50z" />
    <glyph glyph-name="sterling" unicode="&#xa3;" 
d="M162 536l97 110h172l75 -94l-106 -41l-47 75l-97 -37l-37 -138v-47h125v-62h-156l-63 -160v-59h156v63h100l-37 -100v-26h-406v63h84l66 219h-57v62h88z" />
    <glyph glyph-name="currency" unicode="&#xa4;" 
d="M147 486l-66 66h103l38 -63h150l37 63h100l-103 -116l38 -34l-106 -222l40 -66h-94l-37 63h-150l-38 -63l-106 3l116 88l-35 56zM344 399v28h-150l-66 -188h153z" />
    <glyph glyph-name="yen" unicode="&#xa5;" 
d="M173 356q-14 86 -48 290h94l9 -63l16 -63l6 -134l188 213v47h93v-47l-250 -282v-47h94v-62h-122l-37 -62h128v-63h-156v-63h-94v63h-94v63h122l37 62h-128v62h157z" />
    <glyph glyph-name="brokenbar" unicode="&#xa6;" 
d="M125 120l37 150h88v-53l-69 -197h-93zM250 496l38 150h87v-54l-69 -196h-94z" />
    <glyph glyph-name="section" unicode="&#xa7;" 
d="M184 620l113 85l175 3l34 -97l-40 -41l-125 79l-60 -38v-91h91l69 -128l-97 -193v-94l-103 -116h-172l-75 94l106 41l47 -75l103 40v50l-162 107l37 193l50 35zM338 380l-63 78h-50l-34 -131l34 -88h59z" />
    <glyph glyph-name="dieresis" unicode="&#xa8;" 
d="M406 702l38 100h87v-25l-37 -100h-88v25zM219 702l37 100h88v-25l-38 -100h-87v25z" />
    <glyph glyph-name="copyright" unicode="&#xa9;" 
d="M166 442l68 47h172v-100l-150 38l-65 -188l162 41l-31 -88l-172 -22l-56 57zM94 505l106 78h294l34 -91l-100 -300l-94 -109h-290l-69 69zM462 483l-34 37h-234l-60 -78l-72 -212v-84h235l69 46z" />
    <glyph glyph-name="ordfeminine" unicode="&#xaa;" 
d="M62 302v62h344v-62h-344zM216 708l37 62h241l34 -90l-81 -238l-281 -18l-41 106l103 116h210v62h-222zM369 489l34 94h-144l-40 -41v-53h150z" />
    <glyph glyph-name="guillemotleft" unicode="&#xab;" 
d="M266 327l156 128h94l-157 -128l-115 -85l137 -222h-93l-138 222zM109 327l157 128h93l-156 -128l-115 -85l137 -222h-94l-137 222z" />
    <glyph glyph-name="logicalnot" unicode="&#xac;" 
d="M62 396v62h407v-53l-69 -197h-88v28l63 160h-313z" />
    <glyph glyph-name="softhyphen" unicode="&#xad;" 
d="M62 302v62h344v-62h-344z" />
    <glyph glyph-name="registered" unicode="&#xae;" 
d="M94 505l106 78h294l34 -91l-100 -300l-94 -109h-290l-69 69zM459 474l-25 46h-246v-50l218 26v-122l-125 -113l75 -91zM88 205l74 225l-28 28l-68 -231zM294 352l25 75h-63l-37 -100zM322 146q-25 18 -80 59l-54 41v-66l-141 -25z" />
    <glyph glyph-name="macron" unicode="&#xaf;" 
d="M216 708l37 62h281l-37 -62h-281z" />
    <glyph glyph-name="degree" unicode="&#xb0;" 
d="M188 624l68 84h210l28 -47l-88 -206l-234 19zM359 536l19 110h-90l-32 -129z" />
    <glyph glyph-name="plusminus" unicode="&#xb1;" 
d="M-62 20v63h406v-63h-406zM212 364l38 156h94l-38 -156h132v-62h-157l-62 -156h-94l63 156h-157v62h181z" />
    <glyph glyph-name="twosuperior" unicode="&#xb2;" 
d="M184 614l69 125h213l43 -72l-243 -209h140v-62h-281l3 46l291 216l-81 25l-69 -69h-85z" />
    <glyph glyph-name="threesuperior" unicode="&#xb3;" 
d="M219 699l40 40h207l40 -69l-68 -68v-138l-91 -72l-206 19l31 63l172 -16v94h-63v62h91l44 69l-197 -44v60z" />
    <glyph glyph-name="acute" unicode="&#xb4;" 
d="M297 677l156 125h94l-156 -125h-94z" />
    <glyph glyph-name="mu" unicode="&#xb5;" 
d="M-119 -136l194 594h81v-53l-94 -269v-53l110 3l134 113l78 259h85v-50l-131 -388h-88v76l-75 -76h-144l-62 -156h-88z" />
    <glyph glyph-name="paragraph" unicode="&#xb6;" 
d="M281 20v19l185 547l-72 -22l-182 -544h-87v22l91 257l-138 18l10 207l109 122h365v-47l-193 -579h-88zM238 364l68 219h-40l-78 -50l-16 -147z" />
    <glyph glyph-name="periodcentered" unicode="&#xb7;" 
d="M188 355l40 41h78l-31 -126h-87v85z" />
    <glyph glyph-name="cedilla" unicode="&#xb8;" 
d="M-31 -130l140 150h82l-69 -124l-44 -7z" />
    <glyph glyph-name="onesuperior" unicode="&#xb9;" 
d="M216 620l106 119h90l-50 -172l4 -171h-210v62h88l34 141z" />
    <glyph glyph-name="ordmasculine" unicode="&#xba;" 
d="M62 302v62h344v-62h-344zM191 692l103 78h200l34 -90l-66 -191l-115 -62h-185l-34 93zM438 686v22h-150l-69 -197v-22h150z" />
    <glyph glyph-name="guillemotright" unicode="&#xbb;" 
d="M344 277l-128 181h93l129 -181v-60l-282 -203l-68 25l256 178v60zM188 277l-129 181h94l128 -181v-60l-281 -203l-69 25l257 178v60z" />
    <glyph glyph-name="onequarter" unicode="&#xbc;" 
d="M469 333v-19l-100 -294h-88v63h-162l22 59l250 188zM347 208h-19l-94 -62h75zM-16 142l500 375l47 3l-3 -46l-506 -375l-63 -25zM178 574l44 72h90v-41l-71 -241h-82z" />
    <glyph glyph-name="onehalf" unicode="&#xbd;" 
d="M147 574l44 72h97q-38 -141 -58 -216l-21 -75l300 228l69 -3l-159 -138l-210 -159l229 25v-106l-141 -116l78 -3v-63l-266 4l125 96l122 88l-53 47l-28 -78h-87v97l-166 -128l-69 3l250 215h-75z" />
    <glyph glyph-name="threequarters" unicode="&#xbe;" 
d="M122 583l37 63h213l44 -69l-85 -53l41 -44l-69 -125l175 134l69 -3l-250 -219l137 79l35 -35l-100 -291h-88v63h-162l34 94l-184 -138l-38 38l363 272l-210 31l-28 84l188 -40l40 65h-68zM284 546l38 37l-119 -6zM281 246v24h-25l-84 -109zM347 208h-19l-94 -62h75z" />
    <glyph glyph-name="questiondown" unicode="&#xbf;" 
d="M219 380v78h93v-78l-190 -125l-63 -109l38 -63h153l72 156h87l-43 -140l-100 -75l-263 -4l-41 66l38 144zM256 517l32 129h90l-19 -110z" />
    <glyph glyph-name="Agrave" unicode="&#xc0;" 
d="M103 536l94 110h259l69 -69l-187 -557h-94l37 100l38 150h-216l-75 -250h-97q28 79 100 297zM406 492v91h-140l-69 -47l-69 -203h216zM316 677l-69 125h94l68 -125h-93z" />
    <glyph glyph-name="Aacute" unicode="&#xc1;" 
d="M103 536l94 110h259l69 -69l-187 -557h-94l37 100l38 150h-216l-75 -250h-97q28 79 100 297zM406 492v91h-140l-69 -47l-69 -203h216zM297 677l156 125h94l-156 -125h-94z" />
    <glyph glyph-name="Acircumflex" unicode="&#xc2;" 
d="M103 536l94 110h259l69 -69l-187 -557h-94l37 100l38 150h-216l-75 -250h-97q28 79 100 297zM406 492v91h-140l-69 -47l-69 -203h216zM203 677l156 125h75l69 -125h-94l-40 69l-69 -69h-97z" />
    <glyph glyph-name="Atilde" unicode="&#xc3;" 
d="M103 536l94 110h259l69 -69l-187 -557h-94l37 100l38 150h-216l-75 -250h-97q28 79 100 297zM406 492v91h-140l-69 -47l-69 -203h216zM188 727l78 78l156 -19l-16 -94l85 110h71v-56l-90 -76l-144 22l16 94l-85 -109h-71v50z" />
    <glyph glyph-name="Adieresis" unicode="&#xc4;" 
d="M103 536l94 110h259l69 -69l-187 -557h-94l37 100l38 150h-216l-75 -250h-97q28 79 100 297zM406 492v91h-140l-69 -47l-69 -203h216zM406 702l38 100h87v-25l-37 -100h-88v25zM219 702l37 100h88v-25l-38 -100h-87v25z" />
    <glyph glyph-name="Aring" unicode="&#xc5;" 
d="M244 711l75 91h140l38 -41l-59 -109l87 -72l-187 -560h-94l37 100l38 150h-216l-75 -250h-97q28 79 100 297l72 219l94 110h87zM369 674l34 96h-25l-40 -65zM406 492v91h-140l-69 -47l-69 -203h216z" />
    <glyph glyph-name="AE" unicode="&#xc6;" 
d="M72 536l94 110h396v-63h-156l-62 -159v-60h125v-62h-157l-62 -160v-59h125v-63h-250v22l94 263l-135 -19l-90 -266h-94q28 79 100 297zM241 364l65 219h-72l-72 -47l-43 -172h122z" />
    <glyph glyph-name="Ccedilla" unicode="&#xc7;" 
d="M103 536l94 110h259l69 -69l-31 -88h-88v94h-140l-69 -47l-135 -400l35 -53h156l35 94h87v-85l-172 -84l-94 -112l-150 -29l144 132l-134 50v84z" />
    <glyph glyph-name="Egrave" unicode="&#xc8;" 
d="M-41 99l179 547h393v-63h-312l-63 -159v-60h188v-62h-219l-63 -160v-59h282v-63h-413zM316 677l-69 125h94l68 -125h-93z" />
    <glyph glyph-name="Eacute" unicode="&#xc9;" 
d="M-41 99l179 547h393v-63h-312l-63 -159v-60h188v-62h-219l-63 -160v-59h282v-63h-413zM297 677l156 125h94l-156 -125h-94z" />
    <glyph glyph-name="Ecircumflex" unicode="&#xca;" 
d="M-41 99l179 547h393v-63h-312l-63 -159v-60h188v-62h-219l-63 -160v-59h282v-63h-413zM203 677l156 125h75l69 -125h-94l-40 69l-69 -69h-97z" />
    <glyph glyph-name="Edieresis" unicode="&#xcb;" 
d="M-41 99l179 547h393v-63h-312l-63 -159v-60h188v-62h-219l-63 -160v-59h282v-63h-413zM406 702l38 100h87v-25l-37 -100h-88v25zM219 702l37 100h88v-25l-38 -100h-87v25z" />
    <glyph glyph-name="Igrave" unicode="&#xcc;" 
d="M219 583v63h219v-41l-88 -69l-134 -412l40 -104h-225v63h81l163 500h-56zM316 677l-69 125h94l68 -125h-93z" />
    <glyph glyph-name="Iacute" unicode="&#xcd;" 
d="M219 583v63h219v-41l-88 -69l-134 -412l40 -104h-225v63h81l163 500h-56zM297 677l156 125h94l-156 -125h-94z" />
    <glyph glyph-name="Icircumflex" unicode="&#xce;" 
d="M219 583v63h219v-41l-88 -69l-134 -412l40 -104h-225v63h81l163 500h-56zM203 677l156 125h75l69 -125h-94l-40 69l-69 -69h-97z" />
    <glyph glyph-name="Idieresis" unicode="&#xcf;" 
d="M219 583v63h219v-41l-88 -69l-134 -412l40 -104h-225v63h81l163 500h-56zM406 702l38 100h87v-25l-37 -100h-88v25zM219 702l37 100h88v-25l-38 -100h-87v25z" />
    <glyph glyph-name="Eth" unicode="&#xd0;" 
d="M53 364l81 282h257l90 -57l13 -106l-88 -259l-68 -135l-154 -69h-246v22l84 244l-28 78h59zM403 492l-34 91h-150l-63 -159v-60h125v-62h-156l-63 -160v-59h147l94 109z" />
    <glyph glyph-name="Ntilde" unicode="&#xd1;" 
d="M-41 99l179 547h87l-34 -138l128 -206h22l109 344h81v-47l-193 -579h-88v29l56 143l-144 207l-28 -50l-109 -329h-94zM188 727l78 78l156 -19l-16 -94l85 110h71v-56l-90 -76l-144 22l16 94l-85 -109h-71v50z" />
    <glyph glyph-name="Ograve" unicode="&#xd2;" 
d="M103 536l94 110h259l69 -69l-159 -478l-100 -75l-269 -4l-35 91zM403 474l3 109h-140l-69 -47l-135 -403l57 -56l147 22zM316 677l-69 125h94l68 -125h-93z" />
    <glyph glyph-name="Oacute" unicode="&#xd3;" 
d="M103 536l94 110h259l69 -69l-159 -478l-100 -75l-269 -4l-35 91zM403 474l3 109h-140l-69 -47l-135 -403l57 -56l147 22zM297 677l156 125h94l-156 -125h-94z" />
    <glyph glyph-name="Ocircumflex" unicode="&#xd4;" 
d="M103 536l94 110h259l69 -69l-159 -478l-100 -75l-269 -4l-35 91zM403 474l3 109h-140l-69 -47l-135 -403l57 -56l147 22zM203 677l156 125h75l69 -125h-94l-40 69l-69 -69h-97z" />
    <glyph glyph-name="Otilde" unicode="&#xd5;" 
d="M103 536l94 110h259l69 -69l-159 -478l-100 -75l-269 -4l-35 91zM403 474l3 109h-140l-69 -47l-135 -403l57 -56l147 22zM188 727l78 78l156 -19l-16 -94l85 110h71v-56l-90 -76l-144 22l16 94l-85 -109h-71v50z" />
    <glyph glyph-name="Odieresis" unicode="&#xd6;" 
d="M103 536l94 110h259l69 -69l-159 -478l-100 -75l-269 -4l-35 91zM403 474l3 109h-140l-69 -47l-135 -403l57 -56l147 22zM406 702l38 100h87v-25l-37 -100h-88v25zM219 702l37 100h88v-25l-38 -100h-87v25z" />
    <glyph glyph-name="multiply" unicode="&#xd7;" 
d="M203 330l-112 190h90l91 -137l190 137l85 -3l-125 -97l-119 -84l103 -156v-34h-68l-113 140l-122 -112l-150 -25q125 87 188 134z" />
    <glyph glyph-name="Oslash" unicode="&#xd8;" 
d="M103 536l94 110l256 -4l113 -84l-60 -38l-140 -421l-100 -75l-263 -4l-72 135l60 37zM406 499v84h-140l-69 -47l-72 -212v-25zM262 99l113 297h-22l-294 -226l25 -71h178z" />
    <glyph glyph-name="Ugrave" unicode="&#xd9;" 
d="M-38 111l176 535h81v-50l-157 -463l57 -56l147 22l187 547h78v-47l-165 -500l-100 -75l-269 -4zM316 677l-69 125h94l68 -125h-93z" />
    <glyph glyph-name="Uacute" unicode="&#xda;" 
d="M-38 111l176 535h81v-50l-157 -463l57 -56l147 22l187 547h78v-47l-165 -500l-100 -75l-269 -4zM297 677l156 125h94l-156 -125h-94z" />
    <glyph glyph-name="Ucircumflex" unicode="&#xdb;" 
d="M-38 111l176 535h81v-50l-157 -463l57 -56l147 22l187 547h78v-47l-165 -500l-100 -75l-269 -4zM203 677l156 125h75l69 -125h-94l-40 69l-69 -69h-97z" />
    <glyph glyph-name="Udieresis" unicode="&#xdc;" 
d="M-38 111l176 535h81v-50l-157 -463l57 -56l147 22l187 547h78v-47l-165 -500l-100 -75l-269 -4zM406 702l38 100h87v-25l-37 -100h-88v25zM219 702l37 100h88v-25l-38 -100h-87v25z" />
    <glyph glyph-name="Yacute" unicode="&#xdd;" 
d="M159 320l-40 326h100l9 -157l16 -62l6 -72l141 181l47 22v88h93v-63q-122 -141 -197 -230l-75 -89l-75 -244h-90v22l87 254zM297 677l156 125h94l-156 -125h-94z" />
    <glyph glyph-name="Thorn" unicode="&#xde;" 
d="M-41 99l179 547h87l-31 -126h247l34 -90l-75 -222l-116 -62h-218l-38 -126h-97zM344 292l15 150l-197 19l-37 -153l-37 -100h187z" />
    <glyph glyph-name="germandbls" unicode="&#xdf;" 
d="M-62 20v19l184 544l37 63h272l66 -82l-122 -228l59 -34l-72 -203l-96 -75l-160 -4l-75 76v-76h-93zM375 470v113h-156l-63 -159v-28h144zM338 286l-29 47h-178l-59 -172l28 -78h153z" />
    <glyph glyph-name="agrave" unicode="&#xe0;" 
d="M94 396v62h300l68 -69l-124 -372l-354 19l-18 138l128 128h250v94h-250zM281 139l38 100h-188l-75 -90l41 -66h184v56zM266 520l-78 126h81l75 -76v-50h-78z" />
    <glyph glyph-name="aacute" unicode="&#xe1;" 
d="M94 396v62h300l68 -69l-124 -372l-354 19l-18 138l128 128h250v94h-250zM281 139l38 100h-188l-75 -90l41 -66h184v56zM234 524l157 122h90l-93 -94z" />
    <glyph glyph-name="acircumflex" unicode="&#xe2;" 
d="M94 396v62h300l68 -69l-124 -372l-354 19l-18 138l128 128h250v94h-250zM281 139l38 100h-188l-75 -90l41 -66h184v56zM141 524l156 122h65l76 -76v-50h-94v66l-63 -37z" />
    <glyph glyph-name="atilde" unicode="&#xe3;" 
d="M94 396v62h300l68 -69l-124 -372l-354 19l-18 138l128 128h250v94h-250zM281 139l38 100h-188l-75 -90l41 -66h184v56zM122 520l69 126h150l62 -110l3 110h94v-88l-100 -38h-119l-3 110l-62 -110h-94z" />
    <glyph glyph-name="adieresis" unicode="&#xe4;" 
d="M94 396v62h300l68 -69l-124 -372l-354 19l-18 138l128 128h250v94h-250zM281 139l38 100h-188l-75 -90l41 -66h184v56zM350 517l31 129h91l-19 -110zM162 517l32 129h90l-18 -110z" />
    <glyph glyph-name="aring" unicode="&#xe5;" 
d="M94 396v62h300l68 -69l-124 -372l-354 19l-18 138l128 128h250v94h-250zM281 139l38 100h-188l-75 -90l41 -66h184v56zM191 530l62 116h150l41 -66l-75 -91h-141zM278 505l78 78l-37 34z" />
    <glyph glyph-name="ae" unicode="&#xe6;" 
d="M62 396v59l360 -3l75 -60l-66 -181l-197 -19v-93l185 18l-81 -93l-372 3l-38 90l72 153l184 38l32 88h-154zM375 270v126h-53l-41 -41v-85h94zM119 99l40 140h-59l-78 -97l72 -72z" />
    <glyph glyph-name="ccedilla" unicode="&#xe7;" 
d="M41 349l93 109h266l75 -94l-113 -44l-24 76h-135l-69 -47l-72 -210l35 -56h150l37 63h91v-54l-172 -84l-94 -112l-150 -29l144 132l-134 50v87z" />
    <glyph glyph-name="egrave" unicode="&#xe8;" 
d="M41 349l93 109h260l68 -69l-62 -178l-322 -19v-93l300 9l-72 -88h-309l-35 91zM344 270v126l-141 -7l-78 -31v-88h219zM266 520l-78 126h81l75 -76v-50h-78z" />
    <glyph glyph-name="eacute" unicode="&#xe9;" 
d="M41 349l93 109h260l68 -69l-62 -178l-322 -19v-93l300 9l-72 -88h-309l-35 91zM344 270v126l-141 -7l-78 -31v-88h219zM234 524l157 122h90l-93 -94z" />
    <glyph glyph-name="ecircumflex" unicode="&#xea;" 
d="M41 349l93 109h260l68 -69l-62 -178l-322 -19v-93l300 9l-72 -88h-309l-35 91zM344 270v126l-141 -7l-78 -31v-88h219zM141 524l156 122h65l76 -76v-50h-94v66l-63 -37z" />
    <glyph glyph-name="edieresis" unicode="&#xeb;" 
d="M41 349l93 109h260l68 -69l-62 -178l-322 -19v-93l300 9l-72 -88h-309l-35 91zM344 270v126l-141 -7l-78 -31v-88h219zM350 517l31 129h91l-19 -110zM162 517l32 129h90l-18 -110z" />
    <glyph glyph-name="igrave" unicode="&#xec;" 
d="M156 396v62h156v-53l-93 -269l34 -116h-222v63h81l100 313h-56zM266 520l-78 126h81l75 -76v-50h-78z" />
    <glyph glyph-name="iacute" unicode="&#xed;" 
d="M156 396v62h156v-53l-93 -269l34 -116h-222v63h81l100 313h-56zM234 524l157 122h90l-93 -94z" />
    <glyph glyph-name="icircumflex" unicode="&#xee;" 
d="M156 396v62h156v-53l-93 -269l34 -116h-222v63h81l100 313h-56zM141 524l156 122h65l76 -76v-50h-94v66l-63 -37z" />
    <glyph glyph-name="idieresis" unicode="&#xef;" 
d="M156 396v62h156v-53l-93 -269l34 -116h-222v63h81l100 313h-56zM350 517l31 129h91l-19 -110zM162 517l32 129h90l-18 -110z" />
    <glyph glyph-name="eth" unicode="&#xf0;" 
d="M219 605l-35 34h225l-71 -84l124 -172l-96 -284l-100 -75l-269 -4l-35 91l79 238l93 109h185l-72 91l-138 -25zM344 299v97h-141l-69 -47l-72 -210l35 -56h156z" />
    <glyph glyph-name="ntilde" unicode="&#xf1;" 
d="M75 458h319l68 -69l-124 -369h-88v22l94 269v88l-197 -19l-122 -360h-94q18 50 38.5 111t34.5 104t37 116t34 107zM122 520l69 126h150l62 -110l3 110h94v-88l-100 -38h-119l-3 110l-62 -110h-94z" />
    <glyph glyph-name="ograve" unicode="&#xf2;" 
d="M41 349l93 109h260l68 -69l-96 -290l-100 -75l-269 -4l-35 91zM344 299v97h-141l-69 -47l-72 -210l35 -56h156zM266 520l-78 126h81l75 -76v-50h-78z" />
    <glyph glyph-name="oacute" unicode="&#xf3;" 
d="M41 349l93 109h260l68 -69l-96 -290l-100 -75l-269 -4l-35 91zM344 299v97h-141l-69 -47l-72 -210l35 -56h156zM234 524l157 122h90l-93 -94z" />
    <glyph glyph-name="ocircumflex" unicode="&#xf4;" 
d="M41 349l93 109h260l68 -69l-96 -290l-100 -75l-269 -4l-35 91zM344 299v97h-141l-69 -47l-72 -210l35 -56h156zM141 524l156 122h65l76 -76v-50h-94v66l-63 -37z" />
    <glyph glyph-name="otilde" unicode="&#xf5;" 
d="M41 349l93 109h260l68 -69l-96 -290l-100 -75l-269 -4l-35 91zM344 299v97h-141l-69 -47l-72 -210l35 -56h156zM122 520l69 126h150l62 -110l3 110h94v-88l-100 -38h-119l-3 110l-62 -110h-94z" />
    <glyph glyph-name="odieresis" unicode="&#xf6;" 
d="M41 349l93 109h260l68 -69l-96 -290l-100 -75l-269 -4l-35 91zM344 299v97h-141l-69 -47l-72 -210l35 -56h156zM350 517l31 129h91l-19 -110zM162 517l32 129h90l-18 -110z" />
    <glyph glyph-name="divide" unicode="&#xf7;" 
d="M125 139l37 100h88v-25l-38 -100h-87v25zM31 302v62h407v-62h-407zM225 424l31 128h91l-19 -110z" />
    <glyph glyph-name="oslash" unicode="&#xf8;" 
d="M38 349l100 112l362 -12v-41l-56 -59l-78 -250l-100 -79l-360 10v53h53zM128 225q44 33 225 171h-150l-69 -47l-50 -157zM344 302h-16l-234 -166v-56l168 19z" />
    <glyph glyph-name="ugrave" unicode="&#xf9;" 
d="M-41 89l113 369h84v-53l-94 -266l35 -56h175l112 375h85v-50l-131 -388h-335zM266 520l-78 126h81l75 -76v-50h-78z" />
    <glyph glyph-name="uacute" unicode="&#xfa;" 
d="M-41 89l113 369h84v-53l-94 -266l35 -56h175l112 375h85v-50l-131 -388h-335zM234 524l157 122h90l-93 -94z" />
    <glyph glyph-name="ucircumflex" unicode="&#xfb;" 
d="M-41 89l113 369h84v-53l-94 -266l35 -56h175l112 375h85v-50l-131 -388h-335zM141 524l156 122h65l76 -76v-50h-94v66l-63 -37z" />
    <glyph glyph-name="udieresis" unicode="&#xfc;" 
d="M-41 89l113 369h84v-53l-94 -266l35 -56h175l112 375h85v-50l-131 -388h-335zM350 517l31 129h91l-19 -110zM162 517l32 129h90l-18 -110z" />
    <glyph glyph-name="yacute" unicode="&#xfd;" 
d="M-41 89l113 369h84v-53l-94 -266l35 -56h175l112 375h85v-50l-157 -466l-106 -78h-303l38 63h240l75 93h-253zM234 524l157 122h90l-93 -94z" />
    <glyph glyph-name="thorn" unicode="&#xfe;" 
d="M-119 -136l260 782h84l-44 -188h213l68 -69l-96 -290l-100 -75l-235 -4l-62 -156h-88zM344 299v97h-188l-62 -160l-38 -153h197z" />
    <glyph glyph-name="ydieresis" unicode="&#xff;" 
d="M-41 89l113 369h84v-53l-94 -266l35 -56h175l112 375h85v-50l-157 -466l-106 -78h-303l38 63h240l75 93h-253zM350 517l31 129h91l-19 -110zM162 517l32 129h90l-18 -110z" />
    <glyph glyph-name="Amacron" unicode="&#x100;" 
d="M103 536l94 110h259l69 -69l-187 -557h-94l37 100l38 150h-216l-75 -250h-97q28 79 100 297zM406 492v91h-140l-69 -47l-69 -203h216zM216 708l37 62h281l-37 -62h-281z" />
    <glyph glyph-name="amacron" unicode="&#x101;" 
d="M94 396v62h300l68 -69l-124 -372l-354 19l-18 138l128 128h250v94h-250zM281 139l38 100h-188l-75 -90l41 -66h184v56zM153 520l38 63h281l-38 -63h-281z" />
    <glyph glyph-name="Abreve" unicode="&#x102;" 
d="M103 536l94 110h259l69 -69l-187 -557h-94l37 100l38 150h-216l-75 -250h-97q28 79 100 297zM406 492v91h-140l-69 -47l-69 -203h216zM266 692l-19 110h97v-63h94v63h93v-53l-147 -79z" />
    <glyph glyph-name="abreve" unicode="&#x103;" 
d="M94 396v62h300l68 -69l-124 -372l-354 19l-18 138l128 128h250v94h-250zM281 139l38 100h-188l-75 -90l41 -66h184v56zM219 546l-38 100h100v-63h94v63h94v-60l-122 -66h-128v26z" />
    <glyph glyph-name="Aogonek" unicode="&#x104;" 
d="M103 536l94 110h259l69 -69l-194 -585l-128 -40l109 -32l-34 -56h-153v122l119 38l68 193v53h-209l-75 -250h-97q28 79 100 297zM406 492v91h-140l-69 -47l-69 -203h216z" />
    <glyph glyph-name="aogonek" unicode="&#x105;" 
d="M94 396v62h300l68 -69l-131 -397l-128 -40l109 -32l-34 -56h-153v125l78 10l-219 37l-18 138l128 128h250v94h-250zM281 139l38 100h-188l-75 -90l41 -66h184v56z" />
    <glyph glyph-name="Cacute" unicode="&#x106;" 
d="M103 536l94 110h259l69 -69l-31 -88h-88v94h-140l-69 -47l-135 -400l35 -53h156l35 94h87v-72l-109 -81l-269 -4l-35 91zM297 677l156 125h94l-156 -125h-94z" />
    <glyph glyph-name="cacute" unicode="&#x107;" 
d="M41 349l93 109h266l75 -94l-113 -44l-24 76h-135l-69 -47l-72 -210l35 -56h122l122 75l47 -44l-122 -90l-269 -4l-35 91zM234 524l157 122h90l-93 -94z" />
    <glyph glyph-name="Ccircumflex" unicode="&#x108;" 
d="M103 536l94 110h259l69 -69l-31 -88h-88v94h-140l-69 -47l-135 -400l35 -53h156l35 94h87v-72l-109 -81l-269 -4l-35 91zM203 677l156 125h75l69 -125h-94l-40 69l-69 -69h-97z" />
    <glyph glyph-name="ccircumflex" unicode="&#x109;" 
d="M41 349l93 109h266l75 -94l-113 -44l-24 76h-135l-69 -47l-72 -210l35 -56h122l122 75l47 -44l-122 -90l-269 -4l-35 91zM141 524l156 122h65l76 -76v-50h-94v66l-63 -37z" />
    <glyph glyph-name="Cdotaccent" unicode="&#x10a;" 
d="M103 536l94 110h259l69 -69l-31 -88h-88v94h-140l-69 -47l-135 -400l35 -53h156l35 94h87v-72l-109 -81l-269 -4l-35 91zM312 702l38 100h88v-25l-38 -100h-88v25z" />
    <glyph glyph-name="cdotaccent" unicode="&#x10b;" 
d="M41 349l93 109h266l75 -94l-113 -44l-24 76h-135l-69 -47l-72 -210l35 -56h122l122 75l47 -44l-122 -90l-269 -4l-35 91zM256 517l32 129h90l-19 -110z" />
    <glyph glyph-name="Ccaron" unicode="&#x10c;" 
d="M103 536l94 110h259l69 -69l-31 -88h-88v94h-140l-69 -47l-135 -400l35 -53h156l35 94h87v-72l-109 -81l-269 -4l-35 91zM316 677l-69 125h84l69 -69l41 69h106l-156 -125h-75z" />
    <glyph glyph-name="ccaron" unicode="&#x10d;" 
d="M41 349l93 109h266l75 -94l-113 -44l-24 76h-135l-69 -47l-72 -210l35 -56h122l122 75l47 -44l-122 -90l-269 -4l-35 91zM266 520l-78 126h81l69 -69l40 69l106 -4l-146 -122h-72z" />
    <glyph glyph-name="Dcaron" unicode="&#x10e;" 
d="M-41 99l179 547h253l90 -57l13 -106l-88 -259l-68 -135l-154 -69h-253zM403 492l-34 91h-153q-29 -78 -91 -263l-63 -184v-53h147l94 109zM316 677l-69 125h84l69 -69l41 69h106l-156 -125h-75z" />
    <glyph glyph-name="dcaron" unicode="&#x10f;" 
d="M400 458l44 188h87v-47l-193 -579h-341l-35 91l79 238l93 109h266zM269 83l100 313h-166l-69 -47l-72 -210l35 -56h172zM316 677l-69 125h84l69 -69l41 69h106l-156 -125h-75z" />
    <glyph glyph-name="Dcroat" unicode="&#x110;" 
d="M53 364l81 282h257l90 -57l13 -106l-88 -259l-68 -135l-154 -69h-246v22l84 244l-28 78h59zM403 492l-34 91h-150l-63 -159v-60h125v-62h-156l-63 -160v-59h147l94 109z" />
    <glyph glyph-name="dcroat" unicode="&#x111;" 
d="M438 583v63h65l94 -94l-94 -38l-165 -494h-341l-35 91l79 238l93 109h272v62h-159l37 63h154zM269 83l100 313h-166l-69 -47l-72 -210l35 -56h172z" />
    <glyph glyph-name="Emacron" unicode="&#x112;" 
d="M-41 99l179 547h393v-63h-312l-63 -159v-60h188v-62h-219l-63 -160v-59h282v-63h-413zM216 708l37 62h281l-37 -62h-281z" />
    <glyph glyph-name="emacron" unicode="&#x113;" 
d="M41 349l93 109h260l68 -69l-62 -178l-322 -19v-93l300 9l-72 -88h-309l-35 91zM344 270v126l-141 -7l-78 -31v-88h219zM153 520l38 63h281l-38 -63h-281z" />
    <glyph glyph-name="Ebreve" unicode="&#x114;" 
d="M-41 99l179 547h393v-63h-312l-63 -159v-60h188v-62h-219l-63 -160v-59h282v-63h-413zM266 692l-19 110h97v-63h94v63h93v-53l-147 -79z" />
    <glyph glyph-name="ebreve" unicode="&#x115;" 
d="M41 349l93 109h260l68 -69l-62 -178l-322 -19v-93l300 9l-72 -88h-309l-35 91zM344 270v126l-141 -7l-78 -31v-88h219zM219 546l-38 100h100v-63h94v63h94v-60l-122 -66h-128v26z" />
    <glyph glyph-name="Edotaccent" unicode="&#x116;" 
d="M-41 99l179 547h393v-63h-312l-63 -159v-60h188v-62h-219l-63 -160v-59h282v-63h-413zM312 702l38 100h88v-25l-38 -100h-88v25z" />
    <glyph glyph-name="edotaccent" unicode="&#x117;" 
d="M41 349l93 109h260l68 -69l-62 -178l-322 -19v-93l300 9l-72 -88h-309l-35 91zM344 270v126l-141 -7l-78 -31v-88h219zM256 517l32 129h90l-19 -110z" />
    <glyph glyph-name="Eogonek" unicode="&#x118;" 
d="M-41 99l179 547h393v-63h-312l-63 -159v-60h188v-62h-219l-63 -160v-59h282v-87l-141 -44l109 -32l-34 -56h-153v119l78 31l-272 6z" />
    <glyph glyph-name="eogonek" unicode="&#x119;" 
d="M41 349l93 109h260l68 -69l-62 -178l-322 -19v-93l297 9l-34 -56l-232 -103l110 -29l-35 -56h-153v125l78 3l-140 57v87zM344 270v126l-141 -7l-78 -31v-88h219z" />
    <glyph glyph-name="Ecaron" unicode="&#x11a;" 
d="M-41 99l179 547h393v-63h-312l-63 -159v-60h188v-62h-219l-63 -160v-59h282v-63h-413zM316 677l-69 125h84l69 -69l41 69h106l-156 -125h-75z" />
    <glyph glyph-name="ecaron" unicode="&#x11b;" 
d="M41 349l93 109h260l68 -69l-62 -178l-322 -19v-93l300 9l-72 -88h-309l-35 91zM344 270v126l-141 -7l-78 -31v-88h219zM266 520l-78 126h81l69 -69l40 69l106 -4l-146 -122h-72z" />
    <glyph glyph-name="Gcircumflex" unicode="&#x11c;" 
d="M103 536l94 110h259l69 -69l-31 -88h-88v94h-140l-69 -47l-135 -400l35 -53h156l85 203l-119 19v59h219v-53l-76 -212l-96 -75l-269 -4l-35 91zM203 677l156 125h75l69 -125h-94l-40 69l-69 -69h-97z" />
    <glyph glyph-name="gcircumflex" unicode="&#x11d;" 
d="M41 349l93 109h335v-50l-157 -466l-106 -78h-303l38 63h240l75 93h-259l-35 91zM269 83l100 313h-166l-69 -47l-72 -210l35 -56h172zM141 524l156 122h65l76 -76v-50h-94v66l-63 -37z" />
    <glyph glyph-name="Gbreve" unicode="&#x11e;" 
d="M103 536l94 110h259l69 -69l-31 -88h-88v94h-140l-69 -47l-135 -400l35 -53h156l85 203l-119 19v59h219v-53l-76 -212l-96 -75l-269 -4l-35 91zM266 692l-19 110h97v-63h94v63h93v-53l-147 -79z" />
    <glyph glyph-name="gbreve" unicode="&#x11f;" 
d="M41 349l93 109h335v-50l-157 -466l-106 -78h-303l38 63h240l75 93h-259l-35 91zM269 83l100 313h-166l-69 -47l-72 -210l35 -56h172zM219 546l-38 100h100v-63h94v63h94v-60l-122 -66h-128v26z" />
    <glyph glyph-name="Gdotaccent" unicode="&#x120;" 
d="M103 536l94 110h259l69 -69l-31 -88h-88v94h-140l-69 -47l-135 -400l35 -53h156l85 203l-119 19v59h219v-53l-76 -212l-96 -75l-269 -4l-35 91zM312 702l38 100h88v-25l-38 -100h-88v25z" />
    <glyph glyph-name="gdotaccent" unicode="&#x121;" 
d="M41 349l93 109h335v-50l-157 -466l-106 -78h-303l38 63h240l75 93h-259l-35 91zM269 83l100 313h-166l-69 -47l-72 -210l35 -56h172zM288 517l31 129h90l-18 -110z" />
    <glyph glyph-name="Gcommaaccent" unicode="&#x122;" 
d="M62 -83v72h94v-72l-109 -81h-94zM103 536l94 110h259l69 -69l-31 -88h-88v94h-140l-69 -47l-135 -400l35 -53h156l85 203l-119 19v59h219v-53l-76 -212l-96 -75l-269 -4l-35 91z" />
    <glyph glyph-name="gcommaaccent" unicode="&#x123;" 
d="M41 349l93 109h335v-50l-157 -466l-106 -78h-303l38 63h240l75 93h-259l-35 91zM269 83l100 313h-166l-69 -47l-72 -210l35 -56h172zM281 530l103 116h88l-113 -154l-78 -3v41z" />
    <glyph glyph-name="Hcircumflex" unicode="&#x124;" 
d="M-41 99l179 547h87l-75 -282h216l81 282h84v-47l-193 -579h-88v22l94 263l-228 -19l-91 -266h-94zM203 677l156 125h75l69 -125h-94l-40 69l-69 -69h-97z" />
    <glyph glyph-name="hcircumflex" unicode="&#x125;" 
d="M-41 99l179 547h87l-44 -188h213l68 -69l-124 -369h-88v22l94 269v88l-197 -19l-122 -360h-94zM203 677l156 125h75l69 -125h-94l-40 69l-69 -69h-97z" />
    <glyph glyph-name="Hbar" unicode="&#x126;" 
d="M-62 20v19l146 435l-28 78h69v94h94v-94h219v94h93v-144l-56 -60l-137 -422h-88v22l94 263l-228 -19l-91 -266h-87zM369 364l31 125h-203l-41 -40v-85h213z" />
    <glyph glyph-name="hbar" unicode="&#x127;" 
d="M-31 20v19l156 466l-66 22l113 115l78 4v-63h159l-37 -63h-153v-62h206l69 -69l-125 -369h-88v22l94 269v88l-197 -19l-122 -360h-87z" />
    <glyph glyph-name="Itilde" unicode="&#x128;" 
d="M219 583v63h219v-41l-88 -69l-134 -412l40 -104h-225v63h81l163 500h-56zM188 727l78 78l156 -19l-16 -94l85 110h71v-56l-90 -76l-144 22l16 94l-85 -109h-71v50z" />
    <glyph glyph-name="itilde" unicode="&#x129;" 
d="M156 396v62h156v-53l-93 -269l34 -116h-222v63h81l100 313h-56zM122 520l69 126h150l62 -110l3 110h94v-88l-100 -38h-119l-3 110l-62 -110h-94z" />
    <glyph glyph-name="Imacron" unicode="&#x12a;" 
d="M219 583v63h219v-41l-88 -69l-134 -412l40 -104h-225v63h81l163 500h-56zM216 708l37 62h281l-37 -62h-281z" />
    <glyph glyph-name="imacron" unicode="&#x12b;" 
d="M156 396v62h156v-53l-93 -269l34 -116h-222v63h81l100 313h-56zM153 520l38 63h281l-38 -63h-281z" />
    <glyph glyph-name="Ibreve" unicode="&#x12c;" 
d="M219 583v63h219v-41l-88 -69l-134 -412l40 -104h-225v63h81l163 500h-56zM266 692l-19 110h97v-63h94v63h93v-53l-147 -79z" />
    <glyph glyph-name="ibreve" unicode="&#x12d;" 
d="M156 396v62h156v-53l-93 -269l34 -116h-222v63h81l100 313h-56zM219 546l-38 100h100v-63h94v63h94v-60l-122 -66h-128v26z" />
    <glyph glyph-name="Iogonek" unicode="&#x12e;" 
d="M219 583v63h219v-41l-88 -69l-134 -422l40 -65l-147 -119l113 -3l-38 -63h-153v125l78 7l-78 31v56h81l163 500h-56z" />
    <glyph glyph-name="iogonek" unicode="&#x12f;" 
d="M156 396v62h156v-53l-96 -272l34 -87l-141 -116l113 -3l-38 -63h-153v125l78 7l-78 31v56h81l100 313h-56zM256 517l32 129h90l-19 -110z" />
    <glyph glyph-name="Idotaccent" unicode="&#x130;" 
d="M219 583v63h219v-41l-88 -69l-134 -412l40 -104h-225v63h81l163 500h-56zM312 702l38 100h88v-25l-38 -100h-88v25z" />
    <glyph glyph-name="dotlessi" unicode="&#x131;" 
d="M156 396v62h156v-53l-93 -269l34 -116h-222v63h81l100 313h-56z" />
    <glyph glyph-name="IJ" unicode="&#x132;" 
d="M459 567l-28 79h163v-50l-56 -60l-141 -437l-100 -79l-156 16v156l103 19l-10 -81l63 -31zM103 536l-6 110h153v-50l-53 -60l-135 -403v-113h-156v63h50z" />
    <glyph glyph-name="ij" unicode="&#x133;" 
d="M344 396v62h156v-50l-156 -466l-106 -78h-138l-38 100l35 56h94l-35 -59l56 -34l60 78l131 391h-59zM44 380l-16 78h134l-40 -141l-75 -297h-141v63h53zM444 517l31 129h91l-19 -110zM100 517l31 129h91l-19 -110z" />
    <glyph glyph-name="Jcircumflex" unicode="&#x134;" 
d="M344 583v63h218v-57l-81 -31l-147 -469l-137 -75l-213 22v156l104 19l-10 -112h156l169 484h-59zM328 677l156 125h75l69 -125h-94l-40 69l-69 -69h-97z" />
    <glyph glyph-name="jcircumflex" unicode="&#x135;" 
d="M281 396v62h157v-50l-157 -466l-106 -78h-200l-37 100l34 56h94l-38 -62l103 -41l78 88l132 391h-60zM266 524l156 122h66l74 -76v-50h-93v66l-63 -37z" />
    <glyph glyph-name="Kcommaaccent" unicode="&#x136;" 
d="M62 -83v72h94v-72l-109 -81h-94zM-41 99l179 547h87l-37 -150l-44 -113l300 216l28 47h59v-54l-293 -212l-63 -41l169 -256v-63h-53l-175 266l-91 -266h-94z" />
    <glyph glyph-name="kcommaaccent" unicode="&#x137;" 
d="M62 -83v72h94v-72l-109 -81h-94zM-9 99l178 547h81v-54l-94 -268v-60l244 194l84 -3l-156 -128l-116 -85l138 -222h-94l-128 204l-72 -204h-94z" />
    <glyph glyph-name="kgreenlandic" unicode="&#x138;" 
d="M106 458h88l-44 -200l250 200l84 -3l-156 -128l-116 -85l138 -222h-94l-128 204l-72 -204h-94q18 50 38.5 111t34.5 104t37 116t34 107z" />
    <glyph glyph-name="Lacute" unicode="&#x139;" 
d="M-41 99l179 547h81v-50l-157 -463v-50h282v-63h-413zM141 677l156 125h94l-157 -125h-93z" />
    <glyph glyph-name="lacute" unicode="&#x13a;" 
d="M219 583v63h156v-50l-156 -463l34 -113h-222v63h81l163 500h-56zM297 677l156 125h94l-156 -125h-94z" />
    <glyph glyph-name="Lcommaaccent" unicode="&#x13b;" 
d="M62 -83v72h94v-72l-109 -81h-94zM-41 99l179 547h81v-50l-157 -463v-50h282v-63h-413z" />
    <glyph glyph-name="lcommaaccent" unicode="&#x13c;" 
d="M62 -83v72h94v-72l-109 -81h-94zM219 583v63h156v-50l-156 -463l34 -113h-222v63h81l163 500h-56z" />
    <glyph glyph-name="Lcaron" unicode="&#x13d;" 
d="M-41 99l179 547h81v-50l-157 -463v-50h282v-63h-413zM316 677l-69 125h84l69 -69l41 69h106l-156 -125h-75z" />
    <glyph glyph-name="lcaron" unicode="&#x13e;" 
d="M219 583v63h156v-50l-156 -463l34 -113h-222v63h81l163 500h-56zM316 677l-69 125h84l69 -69l41 69h106l-156 -125h-75z" />
    <glyph glyph-name="Ldot" unicode="&#x13f;" 
d="M281 355l41 41h78l-31 -126h-88v85zM-41 99l179 547h81v-50l-157 -463v-50h282v-63h-413z" />
    <glyph glyph-name="ldot" unicode="&#x140;" 
d="M406 355l41 41h78l-31 -126h-88v85zM219 583v63h156v-50l-156 -463l34 -113h-222v63h81l163 500h-56z" />
    <glyph glyph-name="Lslash" unicode="&#x141;" 
d="M84 358l82 288h90l-37 -150l-38 -97l147 34l-200 -178l-40 -172h287v-63h-413l38 100l41 160l-88 -50z" />
    <glyph glyph-name="lslash" unicode="&#x142;" 
d="M219 583v63h156v-60l-63 -159h110l-138 -110l-68 -181l37 -116h-222v63h94l9 94l7 78l-94 -19l165 144l66 203h-59z" />
    <glyph glyph-name="Nacute" unicode="&#x143;" 
d="M-41 99l179 547h87l-34 -138l128 -206h22l109 344h81v-47l-193 -579h-88v29l56 143l-144 207l-28 -50l-109 -329h-94zM297 677l156 125h94l-156 -125h-94z" />
    <glyph glyph-name="nacute" unicode="&#x144;" 
d="M75 458h319l68 -69l-124 -369h-88v22l94 269v88l-197 -19l-122 -360h-94q18 50 38.5 111t34.5 104t37 116t34 107zM234 524l157 122h90l-93 -94z" />
    <glyph glyph-name="Ncommaaccent" unicode="&#x145;" 
d="M62 -83v72h94v-72l-109 -81h-94zM-41 99l179 547h87l-34 -138l128 -206h22l109 344h81v-47l-193 -579h-88v29l56 143l-144 207l-28 -50l-109 -329h-94z" />
    <glyph glyph-name="ncommaaccent" unicode="&#x146;" 
d="M62 -83v72h94v-72l-109 -81h-94zM75 458h319l68 -69l-124 -369h-88v22l94 269v88l-197 -19l-122 -360h-94q18 50 38.5 111t34.5 104t37 116t34 107z" />
    <glyph glyph-name="Ncaron" unicode="&#x147;" 
d="M-41 99l179 547h87l-34 -138l128 -206h22l109 344h81v-47l-193 -579h-88v29l56 143l-144 207l-28 -50l-109 -329h-94zM316 677l-69 125h84l69 -69l41 69h106l-156 -125h-75z" />
    <glyph glyph-name="ncaron" unicode="&#x148;" 
d="M75 458h319l68 -69l-124 -369h-88v22l94 269v88l-197 -19l-122 -360h-94q18 50 38.5 111t34.5 104t37 116t34 107zM266 520l-78 126h81l69 -69l40 69l106 -4l-146 -122h-72z" />
    <glyph glyph-name="napostrophe" unicode="&#x149;" 
d="M75 458h319l68 -69l-124 -369h-88v22l94 269v88l-197 -19l-122 -360h-94q18 50 38.5 111t34.5 104t37 116t34 107zM66 520l106 188h78v-50l-97 -138h-87z" />
    <glyph glyph-name="Eng" unicode="&#x14a;" 
d="M-41 99l179 547h87l-34 -138l128 -206h22l109 344h81v-47l-225 -672l-122 -66l-137 19l181 94l75 218l-141 207l-28 -50l-109 -329h-94z" />
    <glyph glyph-name="eng" unicode="&#x14b;" 
d="M75 458h319l68 -69l-156 -462l-122 -66l-137 19l181 94l110 312l6 113l-197 -19l-122 -360h-94q18 50 38.5 111t34.5 104t37 116t34 107z" />
    <glyph glyph-name="Omacron" unicode="&#x14c;" 
d="M103 536l94 110h259l69 -69l-159 -478l-100 -75l-269 -4l-35 91zM403 474l3 109h-140l-69 -47l-135 -403l57 -56l147 22zM216 708l37 62h281l-37 -62h-281z" />
    <glyph glyph-name="omacron" unicode="&#x14d;" 
d="M41 349l93 109h260l68 -69l-96 -290l-100 -75l-269 -4l-35 91zM344 299v97h-141l-69 -47l-72 -210l35 -56h156zM153 520l38 63h281l-38 -63h-281z" />
    <glyph glyph-name="Obreve" unicode="&#x14e;" 
d="M103 536l94 110h259l69 -69l-159 -478l-100 -75l-269 -4l-35 91zM403 474l3 109h-140l-69 -47l-135 -403l57 -56l147 22zM266 692l-19 110h97v-63h94v63h93v-53l-147 -79z" />
    <glyph glyph-name="obreve" unicode="&#x14f;" 
d="M41 349l93 109h260l68 -69l-96 -290l-100 -75l-269 -4l-35 91zM344 299v97h-141l-69 -47l-72 -210l35 -56h156zM219 546l-38 100h100v-63h94v63h94v-60l-122 -66h-128v26z" />
    <glyph glyph-name="Ohungarumlaut" unicode="&#x150;" 
d="M103 536l94 110h259l69 -69l-159 -478l-100 -75l-269 -4l-35 91zM403 474l3 109h-140l-69 -47l-135 -403l57 -56l147 22zM391 677l156 125h94l-157 -125h-93zM203 677l156 125h94l-156 -125h-94z" />
    <glyph glyph-name="ohungarumlaut" unicode="&#x151;" 
d="M41 349l93 109h260l68 -69l-96 -290l-100 -75l-269 -4l-35 91zM344 299v97h-141l-69 -47l-72 -210l35 -56h156zM338 520l146 122h94l-147 -122h-93zM141 524l156 122h91l-94 -94z" />
    <glyph glyph-name="OE" unicode="&#x152;" 
d="M72 536l94 110h396v-63h-156l-62 -159v-60h125v-62h-157l-62 -160v-59h125v-63h-409l-35 91zM144 83l162 500h-72l-68 -47l-135 -400l35 -53h78z" />
    <glyph glyph-name="oe" unicode="&#x153;" 
d="M9 349l94 109h322l69 -69l-63 -178l-197 -19l-22 -115l210 47l-84 -104h-372l-35 91zM112 83l100 313h-40l-69 -47l-72 -210l35 -56h46zM375 270v126h-53l-41 -41v-85h94z" />
    <glyph glyph-name="Racute" unicode="&#x154;" 
d="M-41 99l179 547h318l69 -69l-66 -197l-93 -110h-182l119 -171l44 -79h-91l-144 232l-90 -232h-91zM375 383l41 200h-197l-66 -172l-25 -78h169zM297 677l156 125h94l-156 -125h-94z" />
    <glyph glyph-name="racute" unicode="&#x155;" 
d="M75 458h81v-75l75 75h238v-62h-210l-153 -122l-78 -254h-97q18 50 38.5 111t34.5 104t37 116t34 107zM234 524l157 122h90l-93 -94z" />
    <glyph glyph-name="Rcommaaccent" unicode="&#x156;" 
d="M62 -83v72h94v-72l-109 -81h-94zM-41 99l179 547h318l69 -69l-66 -197l-93 -110h-182l119 -171l44 -79h-91l-144 232l-90 -232h-91zM375 383l41 200h-197l-66 -172l-25 -78h169z" />
    <glyph glyph-name="rcommaaccent" unicode="&#x157;" 
d="M-62 -83v72h93v-72l-109 -81h-94zM106 458h82v-75l74 75h238v-62h-209l-153 -122l-79 -254h-97q18 50 38.5 111t34.5 104t37 116t34 107z" />
    <glyph glyph-name="Rcaron" unicode="&#x158;" 
d="M-41 99l179 547h318l69 -69l-66 -197l-93 -110h-182l119 -171l44 -79h-91l-144 232l-90 -232h-91zM375 383l41 200h-197l-66 -172l-25 -78h169zM316 677l-69 125h84l69 -69l41 69h106l-156 -125h-75z" />
    <glyph glyph-name="rcaron" unicode="&#x159;" 
d="M75 458h81v-75l75 75h238v-62h-210l-153 -122l-78 -254h-97q18 50 38.5 111t34.5 104t37 116t34 107zM266 520l-78 126h81l69 -69l40 69l106 -4l-146 -122h-72z" />
    <glyph glyph-name="Sacute" unicode="&#x15a;" 
d="M88 524l109 122h259l69 -69l-31 -88h-88v94h-140l-78 -50l-16 -153l187 -22l72 -59l-65 -210l-135 -72l-247 19l-18 141h90l35 -94h156l65 122v94l-234 18zM297 677l156 125h94l-156 -125h-94z" />
    <glyph glyph-name="sacute" unicode="&#x15b;" 
d="M25 336l109 122h266l81 -100l-278 41l-87 -60l43 -69h172l69 -68l-31 -113l-138 -72l-240 19l-29 78l300 -15l22 106l-237 19zM234 524l157 122h90l-93 -94z" />
    <glyph glyph-name="Scircumflex" unicode="&#x15c;" 
d="M88 524l109 122h259l69 -69l-31 -88h-88v94h-140l-78 -50l-16 -153l187 -22l72 -59l-65 -210l-135 -72l-247 19l-18 141h90l35 -94h156l65 122v94l-234 18zM203 677l156 125h75l69 -125h-94l-40 69l-69 -69h-97z" />
    <glyph glyph-name="scircumflex" unicode="&#x15d;" 
d="M25 336l109 122h266l81 -100l-278 41l-87 -60l43 -69h172l69 -68l-31 -113l-138 -72l-240 19l-29 78l300 -15l22 106l-237 19zM141 524l156 122h65l76 -76v-50h-94v66l-63 -37z" />
    <glyph glyph-name="Scedilla" unicode="&#x15e;" 
d="M88 524l109 122h259l69 -69l-31 -88h-88v94h-140l-78 -50l-16 -153l187 -22l72 -59l-65 -210l-163 -81l-94 -112l-150 -29l144 132l-134 50v128h87l35 -94h156l65 122v94l-234 18z" />
    <glyph glyph-name="scedilla" unicode="&#x15f;" 
d="M25 336l109 122h266l81 -100l-278 41l-87 -60l43 -69h172l69 -68l-31 -113l-166 -81l-94 -112l-150 -29l144 132l-134 50v65l293 -15l22 106l-237 19z" />
    <glyph glyph-name="Scaron" unicode="&#x160;" 
d="M88 524l109 122h259l69 -69l-31 -88h-88v94h-140l-78 -50l-16 -153l187 -22l72 -59l-65 -210l-135 -72l-247 19l-18 141h90l35 -94h156l65 122v94l-234 18zM316 677l-69 125h84l69 -69l41 69h106l-156 -125h-75z" />
    <glyph glyph-name="scaron" unicode="&#x161;" 
d="M25 336l109 122h266l81 -100l-278 41l-87 -60l43 -69h172l69 -68l-31 -113l-138 -72l-240 19l-29 78l300 -15l22 106l-237 19zM266 520l-78 126h81l69 -69l40 69l106 -4l-146 -122h-72z" />
    <glyph glyph-name="Tcedilla" unicode="&#x162;" 
d="M125 583v63h406v-60l-165 -19l-150 -437l-25 -181l-53 -53l-147 -29l134 125l-31 50l184 541h-153z" />
    <glyph glyph-name="tcedilla" unicode="&#x163;" 
d="M212 458l44 188h94l-44 -188h100v-59l-134 -19l-84 -241l34 -56h122v-28l-150 -163l-141 -25l138 129l-110 81l100 319h-119v62h150z" />
    <glyph glyph-name="Tcaron" unicode="&#x164;" 
d="M94 20v19l184 544h-153v63h406v-60l-165 -19l-185 -547h-87zM316 677l-69 125h84l69 -69l41 69h106l-156 -125h-75z" />
    <glyph glyph-name="tcaron" unicode="&#x165;" 
d="M212 458l44 188h94l-44 -188h100v-59l-134 -19l-84 -241l34 -56h122v-63h-222l-34 94l96 282h-122v62h150zM284 677l-68 125h84l69 -69l40 69h107l-157 -125h-75z" />
    <glyph glyph-name="Tbar" unicode="&#x166;" 
d="M125 583v63h406v-60l-165 -19l-63 -184l72 -25v-50l-113 -28l-78 -260h-90v22l90 260h-90v62h115l66 219h-150z" />
    <glyph glyph-name="tbar" unicode="&#x167;" 
d="M212 458l44 188h94l-44 -188h100v-62h-122l-37 -63h65v-63h-87l-34 -134l31 -53h122v-66l-235 19v281l94 75l-141 4v62h150z" />
    <glyph glyph-name="Utilde" unicode="&#x168;" 
d="M-38 111l176 535h81v-50l-157 -463l57 -56l147 22l187 547h78v-47l-165 -500l-100 -75l-269 -4zM188 727l78 78l156 -19l-16 -94l85 110h71v-56l-90 -76l-144 22l16 94l-85 -109h-71v50z" />
    <glyph glyph-name="utilde" unicode="&#x169;" 
d="M-41 89l113 369h84v-53l-94 -266l35 -56h175l112 375h85v-50l-131 -388h-335zM122 520l69 126h150l62 -110l3 110h94v-88l-100 -38h-119l-3 110l-62 -110h-94z" />
    <glyph glyph-name="Umacron" unicode="&#x16a;" 
d="M-38 111l176 535h81v-50l-157 -463l57 -56l147 22l187 547h78v-47l-165 -500l-100 -75l-269 -4zM216 708l37 62h281l-37 -62h-281z" />
    <glyph glyph-name="umacron" unicode="&#x16b;" 
d="M-41 89l113 369h84v-53l-94 -266l35 -56h175l112 375h85v-50l-131 -388h-335zM153 520l38 63h281l-38 -63h-281z" />
    <glyph glyph-name="Ubreve" unicode="&#x16c;" 
d="M-38 111l176 535h81v-50l-157 -463l57 -56l147 22l187 547h78v-47l-165 -500l-100 -75l-269 -4zM266 692l-19 110h97v-63h94v63h93v-53l-147 -79z" />
    <glyph glyph-name="ubreve" unicode="&#x16d;" 
d="M-41 89l113 369h84v-53l-94 -266l35 -56h175l112 375h85v-50l-131 -388h-335zM219 546l-38 100h100v-63h94v63h94v-60l-122 -66h-128v26z" />
    <glyph glyph-name="Uring" unicode="&#x16e;" 
d="M-38 111l176 535h81v-50l-157 -463l57 -56l147 22l187 547h78v-47l-165 -500l-100 -75l-269 -4zM244 711l75 91h140l38 -41l-63 -115h-150zM369 674l34 96h-25l-40 -65z" />
    <glyph glyph-name="uring" unicode="&#x16f;" 
d="M-41 89l113 369h84v-53l-94 -266l35 -56h175l112 375h85v-50l-131 -388h-335zM191 530l62 116h150l41 -66l-75 -91h-141zM278 505l78 78l-37 34z" />
    <glyph glyph-name="Uhungarumlaut" unicode="&#x170;" 
d="M-38 111l176 535h81v-50l-157 -463l57 -56l147 22l187 547h78v-47l-165 -500l-100 -75l-269 -4zM391 677l156 125h94l-157 -125h-93zM203 677l156 125h94l-156 -125h-94z" />
    <glyph glyph-name="uhungarumlaut" unicode="&#x171;" 
d="M-41 89l113 369h84v-53l-94 -266l35 -56h175l112 375h85v-50l-131 -388h-335zM338 520l146 122h94l-147 -122h-93zM141 524l156 122h91l-94 -94z" />
    <glyph glyph-name="Uogonek" unicode="&#x172;" 
d="M-31 127l169 519h81v-50l-157 -463l57 -56l147 22l187 547h78v-44l-169 -513l-253 -143l110 -26l-35 -56h-153v125l78 3l-140 57v78z" />
    <glyph glyph-name="uogonek" unicode="&#x173;" 
d="M-41 89l113 369h84v-53l-94 -266l35 -56h175l112 375h85v-44l-135 -422l-131 -40l109 -32l-34 -56h-153v119l78 31l-200 6z" />
    <glyph glyph-name="Wcircumflex" unicode="&#x174;" 
d="M-41 99l179 547h81v-54l-125 -362v-31l153 140l65 -40l-31 -57l60 -34l140 438h81v-47l-193 -579h-81l-44 141l6 47h-47l-200 -188h-72zM203 677l156 125h75l69 -125h-94l-40 69l-69 -69h-97z" />
    <glyph glyph-name="wcircumflex" unicode="&#x175;" 
d="M-41 89l113 369h84v-53l-94 -272l54 -53l75 253h97l-38 -100l-41 -159l69 43l110 341h81v-50l-103 -309l-100 -75l-263 -4zM141 524l156 122h65l76 -76v-50h-94v66l-63 -37z" />
    <glyph glyph-name="Ycircumflex" unicode="&#x176;" 
d="M159 320l-40 326h100l9 -157l16 -62l6 -72l141 181l47 22v88h93v-63q-122 -141 -197 -230l-75 -89l-75 -244h-90v22l87 254zM203 677l156 125h75l69 -125h-94l-40 69l-69 -69h-97z" />
    <glyph glyph-name="ycircumflex" unicode="&#x177;" 
d="M-41 89l113 369h84v-53l-94 -266l35 -56h175l112 375h85v-50l-157 -466l-106 -78h-303l38 63h240l75 93h-253zM141 524l156 122h65l76 -76v-50h-94v66l-63 -37z" />
    <glyph glyph-name="Ydieresis" unicode="&#x178;" 
d="M159 320l-40 326h100l9 -157l16 -62l6 -72l141 181l47 22v88h93v-63q-122 -141 -197 -230l-75 -89l-75 -244h-90v22l87 254zM406 702l38 100h87v-25l-37 -100h-88v25zM219 702l37 100h88v-25l-38 -100h-87v25z" />
    <glyph glyph-name="Zacute" unicode="&#x179;" 
d="M125 583v63h406v-82l-78 -97l-391 -293v-91h282v-63h-413l38 100v54l422 318l50 91h-316zM297 677l156 125h94l-156 -125h-94z" />
    <glyph glyph-name="zacute" unicode="&#x17a;" 
d="M62 396v62h407v-50l-422 -309l297 -19v-60h-406v60l415 316h-291zM234 524l157 122h90l-93 -94z" />
    <glyph glyph-name="Zdotaccent" unicode="&#x17b;" 
d="M125 583v63h406v-82l-78 -97l-391 -293v-91h282v-63h-413l38 100v54l422 318l50 91h-316zM312 702l38 100h88v-25l-38 -100h-88v25z" />
    <glyph glyph-name="zdotaccent" unicode="&#x17c;" 
d="M62 396v62h407v-50l-422 -309l297 -19v-60h-406v60l415 316h-291zM256 517l32 129h90l-19 -110z" />
    <glyph glyph-name="Zcaron" unicode="&#x17d;" 
d="M125 583v63h406v-82l-78 -97l-391 -293v-91h282v-63h-413l38 100v54l422 318l50 91h-316zM316 677l-69 125h84l69 -69l41 69h106l-156 -125h-75z" />
    <glyph glyph-name="zcaron" unicode="&#x17e;" 
d="M62 396v62h407v-50l-422 -309l297 -19v-60h-406v60l415 316h-291zM266 520l-78 126h81l69 -69l40 69l106 -4l-146 -122h-72z" />
    <glyph glyph-name="longs" unicode="&#x17f;" 
d="M259 536l94 110h209v-63h-140l-69 -47l-172 -516h-93q28 79 100 297z" />
    <glyph glyph-name="uni0186" unicode="&#x186;" 
d="M94 530l103 116h259l69 -69l-159 -478l-100 -79l-282 16l-18 141h90l38 -97l172 19l137 375l3 109h-153l-94 -94h-65v41z" />
    <glyph glyph-name="uni018E" unicode="&#x18e;" 
d="M125 583v63h406v-47l-193 -579h-400v63h334l66 219h-213v62h241l65 219h-306z" />
    <glyph glyph-name="Schwa" unicode="&#x18f;" 
d="M94 530l103 116h259l69 -69l-159 -478l-100 -75l-263 -4l-41 69l79 275h328l37 141v78h-153l-94 -94h-65v41zM262 99l82 203h-219l-66 -166l60 -59z" />
    <glyph glyph-name="uni0190" unicode="&#x190;" 
d="M100 536l97 110h259l69 -69l-31 -88h-88v94h-140l-78 -50l-16 -153l172 -19v-59h-172l-78 -50l-16 -153l172 -19l38 97h87v-85l-144 -75l-247 19l-18 106l90 207z" />
    <glyph glyph-name="florin" unicode="&#x192;" 
d="M212 402l97 247l207 -19v-94l-116 -22l41 69h-66l-63 -159v-25l110 -29l-134 -43l-147 -416h-219v94l116 22l-47 -78l81 28q75 215 97 283l22 67l-113 31z" />
    <glyph glyph-name="uni019D" unicode="&#x19d;" 
d="M-47 -23l216 669h87l-34 -138l128 -206h22l109 344h81v-47l-193 -579h-88v29l57 143l-144 207l-28 -50l-144 -438l-19 -25l-165 -16z" />
    <glyph glyph-name="uni019E" unicode="&#x19e;" 
d="M75 458h319l68 -69l-171 -509l-100 -19l153 453v85l-197 -19l-122 -360h-94q18 50 38.5 111t34.5 104t37 116t34 107z" />
    <glyph glyph-name="uni01B5" unicode="&#x1b5;" 
d="M125 586v60h406v-97l-200 -185h107v-62h-169l-207 -141v-78h282v-63h-410l41 141l9 3l182 138h-135v62h207l215 203z" />
    <glyph glyph-name="uni01B6" unicode="&#x1b6;" 
d="M62 396v62h407v-44l-172 -140l109 -4v-62h-181l-147 -122l266 -3v-63h-406v47l203 141h-141v62h194l159 126h-291z" />
    <glyph glyph-name="Ezh" unicode="&#x1b7;" 
d="M125 583v63h406v-54l-262 -181l131 -19l34 -87l-72 -206l-96 -75l-269 -4l-35 97l41 41l122 -75h122l59 109l22 125l-219 32l307 234h-291z" />
    <glyph glyph-name="uni01CD" unicode="&#x1cd;" 
d="M103 536l94 110h259l69 -69l-187 -557h-94l37 100l38 150h-216l-75 -250h-97q28 79 100 297zM406 492v91h-140l-69 -47l-69 -203h216zM316 677l-69 125h84l69 -69l41 69h106l-156 -125h-75z" />
    <glyph glyph-name="uni01CE" unicode="&#x1ce;" 
d="M94 396v62h300l68 -69l-124 -372l-354 19l-18 138l128 128h250v94h-250zM281 139l38 100h-188l-75 -90l41 -66h184v56zM266 520l-78 126h81l69 -69l40 69l106 -4l-146 -122h-72z" />
    <glyph glyph-name="uni01CF" unicode="&#x1cf;" 
d="M219 583v63h219v-41l-88 -69l-134 -412l40 -104h-225v63h81l163 500h-56zM316 677l-69 125h84l69 -69l41 69h106l-156 -125h-75z" />
    <glyph glyph-name="uni01D0" unicode="&#x1d0;" 
d="M156 396v62h156v-53l-93 -269l34 -116h-222v63h81l100 313h-56zM266 520l-78 126h81l69 -69l40 69l106 -4l-146 -122h-72z" />
    <glyph glyph-name="uni01D1" unicode="&#x1d1;" 
d="M103 536l94 110h259l69 -69l-159 -478l-100 -75l-269 -4l-35 91zM403 474l3 109h-140l-69 -47l-135 -403l57 -56l147 22zM316 677l-69 125h84l69 -69l41 69h106l-156 -125h-75z" />
    <glyph glyph-name="uni01D2" unicode="&#x1d2;" 
d="M41 349l93 109h260l68 -69l-96 -290l-100 -75l-269 -4l-35 91zM344 299v97h-141l-69 -47l-72 -210l35 -56h156zM266 520l-78 126h81l69 -69l40 69l106 -4l-146 -122h-72z" />
    <glyph glyph-name="uni01D3" unicode="&#x1d3;" 
d="M-38 111l176 535h81v-50l-157 -463l57 -56l147 22l187 547h78v-47l-165 -500l-100 -75l-269 -4zM316 677l-69 125h84l69 -69l41 69h106l-156 -125h-75z" />
    <glyph glyph-name="uni01D4" unicode="&#x1d4;" 
d="M-41 89l113 369h84v-53l-94 -266l35 -56h175l112 375h85v-50l-131 -388h-335zM266 520l-78 126h81l69 -69l40 69l106 -4l-146 -122h-72z" />
    <glyph glyph-name="uni01E2" unicode="&#x1e2;" 
d="M72 536l94 110h396v-63h-156l-62 -159v-60h125v-62h-157l-62 -160v-59h125v-63h-250v22l94 263l-135 -19l-90 -266h-94q28 79 100 297zM241 364l65 219h-72l-72 -47l-43 -172h122zM184 708l38 62h344l-38 -62h-344z" />
    <glyph glyph-name="uni01E3" unicode="&#x1e3;" 
d="M62 396v59l360 -3l75 -60l-66 -181l-197 -19v-93l185 18l-81 -93l-372 3l-38 90l72 153l184 38l32 88h-154zM375 270v126h-53l-41 -41v-85h94zM119 99l40 140h-59l-78 -97l72 -72zM122 520l37 63h344l-37 -63h-344z" />
    <glyph glyph-name="uni01E4" unicode="&#x1e4;" 
d="M103 536l94 110h259l69 -69l-31 -88h-88v94h-140l-69 -47l-135 -403l57 -56l140 22l29 78h-100v62h121l38 63h-128v62h225l-32 -125h57v-62h-94v-72l-109 -81l-269 -4l-35 91z" />
    <glyph glyph-name="uni01E5" unicode="&#x1e5;" 
d="M41 349l93 109h332l-13 -234l-72 -63l-75 -234l-115 -63h-288l38 63h240l75 93h-259l-35 91zM338 270l31 126h-166l-69 -47l-72 -210l35 -56h178l31 125h-118v62h150z" />
    <glyph glyph-name="Gcaron" unicode="&#x1e6;" 
d="M103 536l94 110h259l69 -69l-31 -88h-88v94h-140l-69 -47l-135 -400l35 -53h156l85 203l-119 19v59h219v-53l-76 -212l-96 -75l-269 -4l-35 91zM316 677l-69 125h84l69 -69l41 69h106l-156 -125h-75z" />
    <glyph glyph-name="gcaron" unicode="&#x1e7;" 
d="M41 349l93 109h335v-50l-157 -466l-106 -78h-303l38 63h240l75 93h-259l-35 91zM269 83l100 313h-166l-69 -47l-72 -210l35 -56h172zM266 520l-78 126h81l69 -69l40 69l106 -4l-146 -122h-72z" />
    <glyph glyph-name="uni01E8" unicode="&#x1e8;" 
d="M-41 99l179 547h87l-37 -150l-44 -113l300 216l28 47h59v-54l-293 -212l-63 -41l169 -256v-63h-53l-175 266l-91 -266h-94zM316 677l-69 125h84l69 -69l41 69h106l-156 -125h-75z" />
    <glyph glyph-name="uni01E9" unicode="&#x1e9;" 
d="M-9 99l178 547h81v-54l-94 -268v-60l244 194l84 -3l-156 -128l-116 -85l138 -222h-94l-128 204l-72 -204h-94zM316 677l-69 125h84l69 -69l41 69h106l-156 -125h-75z" />
    <glyph glyph-name="uni01EA" unicode="&#x1ea;" 
d="M103 536l94 110h259l69 -69l-163 -488l-253 -143l110 -26l-35 -56h-153v125l78 3l-140 57v84zM403 474l3 109h-140l-69 -47l-135 -403l57 -56l147 22z" />
    <glyph glyph-name="uni01EB" unicode="&#x1eb;" 
d="M41 349l93 109h260l68 -69l-96 -300l-257 -143l110 -26l-35 -56h-153v125l78 3l-140 57v87zM344 299v97h-141l-69 -47l-72 -210l35 -56h156z" />
    <glyph glyph-name="uni01EC" unicode="&#x1ec;" 
d="M103 536l94 110h259l69 -69l-163 -488l-253 -143l110 -26l-35 -56h-153v125l78 3l-140 57v84zM403 474l3 109h-140l-69 -47l-135 -403l57 -56l147 22zM216 708l37 62h281l-37 -62h-281z" />
    <glyph glyph-name="uni01ED" unicode="&#x1ed;" 
d="M41 349l93 109h260l68 -69l-96 -300l-257 -143l110 -26l-35 -56h-153v125l78 3l-140 57v87zM344 299v97h-141l-69 -47l-72 -210l35 -56h156zM153 520l38 63h281l-38 -63h-281z" />
    <glyph glyph-name="uni01EE" unicode="&#x1ee;" 
d="M125 583v63h406v-54l-262 -181l131 -19l34 -87l-72 -206l-96 -75l-269 -4l-35 97l41 41l122 -75h122l59 109l22 125l-219 32l307 234h-291zM316 677l-69 125h84l69 -69l41 69h106l-156 -125h-75z" />
    <glyph glyph-name="uni01EF" unicode="&#x1ef;" 
d="M62 396v62h407v-53l-263 -181l132 -19l34 -88l-66 -190l-115 -63h-247l-38 103l35 35l121 -75h119l63 78l22 125l-219 31l306 235h-291zM266 520l-78 126h81l69 -69l40 69l106 -4l-146 -122h-72z" />
    <glyph glyph-name="uni01F0" unicode="&#x1f0;" 
d="M281 396v62h157v-50l-157 -466l-106 -78h-200l-37 100l34 56h94l-38 -62l103 -41l78 88l132 391h-60zM391 520l-79 126h82l68 -69l41 69l106 -4l-147 -122h-71z" />
    <glyph glyph-name="uni01F4" unicode="&#x1f4;" 
d="M103 536l94 110h259l69 -69l-31 -88h-88v94h-140l-69 -47l-135 -400l35 -53h156l85 203l-119 19v59h219v-53l-76 -212l-96 -75l-269 -4l-35 91zM297 677l156 125h94l-156 -125h-94z" />
    <glyph glyph-name="uni01F5" unicode="&#x1f5;" 
d="M41 349l93 109h335v-50l-157 -466l-106 -78h-303l38 63h240l75 93h-259l-35 91zM269 83l100 313h-166l-69 -47l-72 -210l35 -56h172zM234 524l157 122h90l-93 -94z" />
    <glyph glyph-name="AEacute" unicode="&#x1fc;" 
d="M72 536l94 110h396v-63h-156l-62 -159v-60h125v-62h-157l-62 -160v-59h125v-63h-250v22l94 263l-135 -19l-90 -266h-94q28 79 100 297zM241 364l65 219h-72l-72 -47l-43 -172h122zM297 677l156 125h94l-156 -125h-94z" />
    <glyph glyph-name="aeacute" unicode="&#x1fd;" 
d="M62 396v59l360 -3l75 -60l-66 -181l-197 -19v-93l185 18l-81 -93l-372 3l-38 90l72 153l184 38l32 88h-154zM375 270v126h-53l-41 -41v-85h94zM119 99l40 140h-59l-78 -97l72 -72zM234 524l157 122h90l-93 -94z" />
    <glyph glyph-name="Oslashacute" unicode="&#x1fe;" 
d="M103 536l94 110l256 -4l113 -84l-60 -38l-140 -421l-100 -75l-263 -4l-72 135l60 37zM406 499v84h-140l-69 -47l-72 -212v-25zM262 99l113 297h-22l-294 -226l25 -71h178zM297 677l156 125h94l-156 -125h-94z" />
    <glyph glyph-name="oslashacute" unicode="&#x1ff;" 
d="M38 349l100 112l362 -12v-41l-56 -59l-78 -250l-100 -79l-360 10v53h53zM128 225q44 33 225 171h-150l-69 -47l-50 -157zM344 302h-16l-234 -166v-56l168 19zM234 524l157 122h90l-93 -94z" />
    <glyph glyph-name="Scommaaccent" unicode="&#x218;" 
d="M62 -83v72h94v-72l-109 -81h-94zM88 524l109 122h259l69 -69l-31 -88h-88v94h-140l-78 -50l-16 -153l187 -22l72 -59l-65 -210l-135 -72l-247 19l-18 141h90l35 -94h156l65 122v94l-234 18z" />
    <glyph glyph-name="scommaaccent" unicode="&#x219;" 
d="M62 -83v72h94v-72l-109 -81h-94zM25 336l109 122h266l81 -100l-278 41l-87 -60l43 -69h172l69 -68l-31 -113l-138 -72l-240 19l-29 78l300 -15l22 106l-237 19z" />
    <glyph glyph-name="Tcommaaccent" unicode="&#x21a;" 
d="M62 -83v72h94v-72l-109 -81h-94zM94 20v19l184 544h-153v63h406v-60l-165 -19l-185 -547h-87z" />
    <glyph glyph-name="tcommaaccent" unicode="&#x21b;" 
d="M156 -83v72h94v-72l-109 -81h-94zM212 458l44 188h94l-44 -188h100v-59l-134 -19l-84 -241l34 -56h122v-63h-222l-34 94l96 282h-122v62h150z" />
    <glyph glyph-name="uni0232" unicode="&#x232;" 
d="M159 320l-40 326h100l9 -157l16 -62l6 -72l141 181l47 22v88h93v-63q-122 -141 -197 -230l-75 -89l-75 -244h-90v22l87 254zM216 708l37 62h281l-37 -62h-281z" />
    <glyph glyph-name="uni0233" unicode="&#x233;" 
d="M-41 89l113 369h84v-53l-94 -266l35 -56h175l112 375h85v-50l-157 -466l-106 -78h-303l38 63h240l75 93h-253zM153 520l38 63h281l-38 -63h-281z" />
    <glyph glyph-name="dotlessj" unicode="&#x237;" 
d="M281 396v62h157v-50l-157 -466l-106 -78h-200l-37 100l34 56h94l-38 -62l103 -41l78 88l132 391h-60z" />
    <glyph glyph-name="uni0254" unicode="&#x254;" 
d="M16 324l118 134h260l68 -69l-96 -290l-100 -75l-269 -4l-35 97l41 41l122 -75h128l91 216v103l-172 -32z" />
    <glyph glyph-name="uni0258" unicode="&#x258;" 
d="M38 349l96 109h260l68 -69l-96 -290l-100 -79l-313 16l31 63l260 -22l72 131h-319zM344 270v126l-141 -7l-78 -31v-88h219z" />
    <glyph glyph-name="schwa" unicode="&#x259;" 
d="M62 417l41 41h291l68 -69l-96 -290l-100 -75l-263 -4l-37 63l40 187h338v135l-282 -41v53zM247 83l69 125h-219l-38 -62l38 -63h150z" />
    <glyph glyph-name="uni025B" unicode="&#x25b;" 
d="M31 342l103 116h266l75 -94l-113 -44l-24 76h-135l-87 -57l43 -69h122v-62h-140l-88 -56l44 -69h122l122 75l47 -44l-122 -90l-269 -4l-38 104l72 115v103z" />
    <glyph glyph-name="uni0272" unicode="&#x272;" 
d="M-47 -23l153 481h319l69 -69l-125 -369h-88v22l94 269v88l-197 -19l-156 -469l-19 -25l-165 -16z" />
    <glyph glyph-name="ezh" unicode="&#x292;" 
d="M62 396v62h407v-53l-263 -181l132 -19l34 -88l-66 -190l-115 -63h-247l-38 103l35 35l121 -75h119l63 78l22 125l-219 31l306 235h-291z" />
    <glyph glyph-name="commaturnedmod" unicode="&#x2bb;" 
d="M312 717l110 82h94l-110 -82v-71h-94v71z" />
    <glyph glyph-name="afii57929" unicode="&#x2bc;" 
d="M247 646l112 153l79 3v-41l-104 -115h-87z" />
    <glyph glyph-name="afii64937" unicode="&#x2bd;" 
d="M319 714l31 88h94l-32 -88l69 -68h-93z" />
    <glyph glyph-name="circumflex" unicode="&#x2c6;" 
d="M203 677l156 125h75l69 -125h-94l-40 69l-69 -69h-97z" />
    <glyph glyph-name="caron" unicode="&#x2c7;" 
d="M316 677l-69 125h84l69 -69l41 69h106l-156 -125h-75z" />
    <glyph glyph-name="breve" unicode="&#x2d8;" 
d="M266 692l-19 110h97v-63h94v63h93v-53l-147 -79z" />
    <glyph glyph-name="dotaccent" unicode="&#x2d9;" 
d="M312 702l38 100h88v-25l-38 -100h-88v25z" />
    <glyph glyph-name="ogonek" unicode="&#x2db;" 
d="M31 -17l78 31l122 6l-122 -90l113 -3l-38 -63h-153v119z" />
    <glyph glyph-name="tilde" unicode="&#x2dc;" 
d="M188 727l78 78l156 -19l-16 -94l85 110h71v-56l-90 -76l-144 22l16 94l-85 -109h-71v50z" />
    <glyph glyph-name="hungarumlaut" unicode="&#x2dd;" 
d="M391 677l156 125h94l-157 -125h-93zM203 677l156 125h94l-156 -125h-94z" />
    <glyph glyph-name="gravecomb" unicode="&#x300;" 
d="M316 677l-69 125h94l68 -125h-93z" />
    <glyph glyph-name="acutecomb" unicode="&#x301;" 
d="M297 677l156 125h94l-156 -125h-94z" />
    <glyph glyph-name="uni0302" unicode="&#x302;" 
d="M203 677l156 125h75l69 -125h-94l-40 69l-69 -69h-97z" />
    <glyph glyph-name="tildecomb" unicode="&#x303;" 
d="M188 727l78 78l156 -19l-16 -94l85 110h71v-56l-90 -76l-144 22l16 94l-85 -109h-71v50z" />
    <glyph glyph-name="uni0304" unicode="&#x304;" 
d="M216 708l37 62h281l-37 -62h-281z" />
    <glyph glyph-name="uni0305" unicode="&#x305;" 
d="M153 708l38 62h406l-38 -62h-406z" />
    <glyph glyph-name="uni0306" unicode="&#x306;" 
d="M266 692l-19 110h97v-63h94v63h93v-53l-147 -79z" />
    <glyph glyph-name="uni0307" unicode="&#x307;" 
d="M312 702l38 100h88v-25l-38 -100h-88v25z" />
    <glyph glyph-name="uni0308" unicode="&#x308;" 
d="M406 702l38 100h87v-25l-37 -100h-88v25zM219 702l37 100h88v-25l-38 -100h-87v25z" />
    <glyph glyph-name="uni030A" unicode="&#x30a;" 
d="M244 711l75 91h140l38 -41l-63 -115h-150zM369 674l34 96h-25l-40 -65z" />
    <glyph glyph-name="uni030B" unicode="&#x30b;" 
d="M391 677l156 125h94l-157 -125h-93zM203 677l156 125h94l-156 -125h-94z" />
    <glyph glyph-name="uni030C" unicode="&#x30c;" 
d="M316 677l-69 125h84l69 -69l41 69h106l-156 -125h-75z" />
    <glyph glyph-name="uni0329" unicode="&#x329;" 
d="M38 -139l31 128h90l-18 -109z" />
    <glyph glyph-name="tonos" unicode="&#x384;" 
d="M109 649l147 121h97l-159 -124z" />
    <glyph glyph-name="dieresistonos" unicode="&#x385;" 
d="M350 517l31 129h91l-19 -110zM162 517l32 129h90l-18 -110zM297 677l156 125h94l-156 -125h-94z" />
    <glyph glyph-name="Alphatonos" unicode="&#x386;" 
d="M109 649l147 121h94l-147 -121l253 -3l69 -69l-187 -557h-94l37 100l38 150h-216l-75 -250h-97q28 79 100 297l72 219l94 110zM406 492v91h-140l-69 -47l-69 -203h216z" />
    <glyph glyph-name="anoteleia" unicode="&#x387;" 
d="M194 330l31 128h91l-19 -109z" />
    <glyph glyph-name="Epsilontonos" unicode="&#x388;" 
d="M-31 20v19l187 560l-28 75l134 96h88l-147 -121l359 -3v-63h-312l-62 -159v-60h187v-62h-219l-62 -160v-59h281v-63h-406z" />
    <glyph glyph-name="Etatonos" unicode="&#x389;" 
d="M-31 20v19l187 560l-28 75l134 96h94l-115 -84l-13 -150l-47 -172h216l81 282h84v-47l-193 -579h-88v22l94 263l-228 -19l-91 -266h-87z" />
    <glyph glyph-name="Iotatonos" unicode="&#x38a;" 
d="M219 583v63h219v-41l-88 -69l-134 -412l40 -104h-225v63h81l163 500h-56zM109 649l147 121h97l-159 -124z" />
    <glyph glyph-name="Omicrontonos" unicode="&#x38c;" 
d="M109 649l147 121h94l-147 -121l253 -3l69 -69l-159 -478l-100 -75l-269 -4l-35 91l141 425l94 110zM403 474l3 109h-140l-69 -47l-135 -403l57 -56l147 22z" />
    <glyph glyph-name="Upsilontonos" unicode="&#x38e;" 
d="M125 674l137 96h94l-131 -93l53 -235l3 -15v-72l141 181l47 22v88h93v-63q-121 -141 -196 -230l-75 -89l-75 -244h-91v22l87 254l-21 21l-41 313z" />
    <glyph glyph-name="Omegatonos" unicode="&#x38f;" 
d="M109 649l147 121h94l-147 -121l253 -3l69 -69l-119 -353l-100 -75l41 -129h-163l44 141l81 63l97 275v84h-140l-69 -47l-103 -303l37 -59l-37 -154h-156v63h100l-32 166l97 287l94 110z" />
    <glyph glyph-name="iotadieresistonos" unicode="&#x390;" 
d="M125 396v62h156v-53l-97 -275l97 -69v-41h-159l-34 94l96 282h-59zM319 517l31 129h91l-19 -110zM131 517l31 129h91l-19 -110zM266 677l156 125h94l-157 -125h-93z" />
    <glyph glyph-name="Alpha" unicode="&#x391;" 
d="M103 536l94 110h259l69 -69l-187 -557h-94l37 100l38 150h-216l-75 -250h-97q28 79 100 297zM406 492v91h-140l-69 -47l-69 -203h216z" />
    <glyph glyph-name="Beta" unicode="&#x392;" 
d="M-41 99l179 547h318l69 -69l-34 -103l-122 -135l65 -37l-72 -203l-96 -75l-335 -4zM406 470v113h-187l-63 -159v-28h175zM338 286l-29 47h-178l-69 -197v-53h191z" />
    <glyph glyph-name="Gamma" unicode="&#x393;" 
d="M-41 99l179 547h393v-60l-322 -19l-184 -547h-94z" />
    <glyph glyph-name="Delta" unicode="&#x394;" 
d="M281 552v94h94v-526l-37 -100h-404l44 141l53 22v87h63v94h62v94h63v94h62zM281 83v375h-31v-94h-62v-94h-63v-93h-63v-94h219z" />
    <glyph glyph-name="Epsilon" unicode="&#x395;" 
d="M-41 99l179 547h393v-63h-312l-63 -159v-60h188v-62h-219l-63 -160v-59h282v-63h-413z" />
    <glyph glyph-name="Zeta" unicode="&#x396;" 
d="M125 583v63h406v-82l-78 -97l-391 -293v-91h282v-63h-413l38 100v54l422 318l50 91h-316z" />
    <glyph glyph-name="Eta" unicode="&#x397;" 
d="M-41 99l179 547h87l-75 -282h216l81 282h84v-47l-193 -579h-88v22l94 263l-228 -19l-91 -266h-94z" />
    <glyph glyph-name="Theta" unicode="&#x398;" 
d="M156 302v62h156v-62h-156zM103 536l94 110h259l69 -69l-159 -478l-100 -75l-269 -4l-35 91zM403 474l3 109h-140l-69 -47l-135 -403l57 -56l147 22z" />
    <glyph glyph-name="Iota" unicode="&#x399;" 
d="M219 583v63h219v-41l-88 -69l-134 -412l40 -104h-225v63h81l163 500h-56z" />
    <glyph glyph-name="Kappa" unicode="&#x39a;" 
d="M-41 99l179 547h87l-37 -150l-44 -113l300 216l28 47h59v-54l-293 -212l-63 -41l169 -256v-63h-53l-175 266l-91 -266h-94z" />
    <glyph glyph-name="Lambda" unicode="&#x39b;" 
d="M281 552v94h97l-12 -547l-28 -79h-79l19 454l-31 -110h-59v-94h-47l-119 -250h-84v38l109 197l47 22v87h62v94h63v94h62z" />
    <glyph glyph-name="Mu" unicode="&#x39c;" 
d="M-41 99l179 547h74l76 -188h28l181 188h65v-47l-193 -579h-88v22l125 363v65l-128 -137h-53l-41 141l-159 -454h-94z" />
    <glyph glyph-name="Nu" unicode="&#x39d;" 
d="M-41 99l179 547h87l-34 -138l128 -206h22l109 344h81v-47l-193 -579h-88v29l56 143l-144 207l-28 -50l-109 -329h-94z" />
    <glyph glyph-name="Xi" unicode="&#x39e;" 
d="M-62 20v63h406v-63h-406zM94 302v62h281v-62h-281zM125 583v63h406v-63h-406z" />
    <glyph glyph-name="Omicron" unicode="&#x39f;" 
d="M103 536l94 110h259l69 -69l-159 -478l-100 -75l-269 -4l-35 91zM403 474l3 109h-140l-69 -47l-135 -403l57 -56l147 22z" />
    <glyph glyph-name="Pi" unicode="&#x3a0;" 
d="M250 20v19l184 547l-225 -19l-184 -547h-94q28 79 117 352l90 274h393v-47l-193 -579h-88z" />
    <glyph glyph-name="Rho" unicode="&#x3a1;" 
d="M-41 99l179 547h318l69 -69l-66 -197l-93 -110h-263l-75 -250h-97zM375 383l41 200h-197l-66 -172l-25 -78h169z" />
    <glyph glyph-name="Sigma" unicode="&#x3a3;" 
d="M125 536v110h406v-63h-312v-47l125 -156v-69l-297 -212l297 -19v-60h-406v63l312 231v66z" />
    <glyph glyph-name="Tau" unicode="&#x3a4;" 
d="M94 20v19l184 544h-153v63h406v-60l-165 -19l-185 -547h-87z" />
    <glyph glyph-name="Upsilon" unicode="&#x3a5;" 
d="M159 320l-40 326h100l9 -157l16 -62l6 -72l141 181l47 22v88h93v-63q-122 -141 -197 -230l-75 -89l-75 -244h-90v22l87 254z" />
    <glyph glyph-name="Phi" unicode="&#x3a6;" 
d="M281 596v50h94v-63h87l35 -91l-100 -300l-94 -109h-115v-63h-63l-150 132l128 378zM147 192l103 307l-22 21l-62 -78l-72 -212v-97zM300 180l100 309l-50 31l-125 -371z" />
    <glyph glyph-name="Chi" unicode="&#x3a7;" 
d="M166 411l-41 235h94l9 -63l16 -63l6 -134l188 213v47h93v-47l-222 -250l38 -329h-97l-6 126l-16 62l-9 72l-141 -181l-75 -79h-65v35l78 81l143 172z" />
    <glyph glyph-name="Psi" unicode="&#x3a8;" 
d="M3 233l135 413h81v-54l-122 -353l56 -31l141 438h81v-54l-125 -362v-28l84 68l113 376h84v-50l-134 -397l-178 -66l-35 -113h-93l37 126h-90z" />
    <glyph glyph-name="Omega" unicode="&#x3a9;" 
d="M103 536l94 110h259l69 -69l-119 -353l-100 -75l41 -129h-163l44 141l81 63l97 275v84h-140l-69 -47l-103 -303l37 -59l-37 -154h-156v63h100l-32 166z" />
    <glyph glyph-name="Iotadieresis" unicode="&#x3aa;" 
d="M219 583v63h219v-41l-88 -69l-134 -412l40 -104h-225v63h81l163 500h-56zM406 702l38 100h87v-25l-37 -100h-88v25zM219 702l37 100h88v-25l-38 -100h-87v25z" />
    <glyph glyph-name="Upsilondieresis" unicode="&#x3ab;" 
d="M159 320l-40 326h100l9 -157l16 -62l6 -72l141 181l47 22v88h93v-63q-122 -141 -197 -230l-75 -89l-75 -244h-90v22l87 254zM406 702l38 100h87v-25l-37 -100h-88v25zM219 702l37 100h88v-25l-38 -100h-87v25z" />
    <glyph glyph-name="alphatonos" unicode="&#x3ac;" 
d="M41 349l93 109l366 -9v-50l-84 -50l-66 -200l31 -119l-384 -10l-35 91zM238 83l100 313h-135l-69 -47l-72 -210l35 -56h141zM234 524l157 122h90l-93 -94z" />
    <glyph glyph-name="epsilontonos" unicode="&#x3ad;" 
d="M31 342l103 116h266l75 -94l-113 -44l-24 76h-135l-87 -57l43 -69h122v-62h-140l-88 -56l44 -69h122l122 75l47 -44l-122 -90l-269 -4l-38 104l72 115v103zM234 524l157 122h90l-93 -94z" />
    <glyph glyph-name="etatonos" unicode="&#x3ae;" 
d="M75 458h319l68 -69l-171 -509l-100 -19l153 453v85l-197 -19l-122 -360h-94q18 50 38.5 111t34.5 104t37 116t34 107zM234 524l157 122h90l-93 -94z" />
    <glyph glyph-name="iotatonos" unicode="&#x3af;" 
d="M125 396v62h156v-53l-97 -275l97 -69v-41h-159l-34 94l96 282h-59zM203 524l156 122h91l-94 -94z" />
    <glyph glyph-name="upsilondieresistonos" unicode="&#x3b0;" 
d="M-41 89l113 369h84v-53l-94 -272l57 -56l147 22l125 359h78v-50l-103 -309l-100 -75l-263 -4zM350 517l31 129h91l-19 -110zM162 517l32 129h90l-18 -110zM297 677l156 125h94l-156 -125h-94z" />
    <glyph glyph-name="alpha" unicode="&#x3b1;" 
d="M41 349l93 109l366 -9v-50l-84 -50l-66 -200l31 -119l-384 -10l-35 91zM238 83l100 313h-135l-69 -47l-72 -210l35 -56h141z" />
    <glyph glyph-name="beta" unicode="&#x3b2;" 
d="M119 580l40 66h272l66 -82l-122 -228l59 -34l-72 -203l-96 -75l-235 -4l-62 -156h-91zM375 470v113h-156l-63 -159v-28h144zM338 286l-29 47h-178l-69 -197v-53h191z" />
    <glyph glyph-name="gamma" unicode="&#x3b3;" 
d="M94 24l-41 434h103l6 -266l-9 -62l159 169v65h63v94h94v-94h-63v-65l-78 -82l-131 -156l-63 -181l-103 -19z" />
    <glyph glyph-name="delta" unicode="&#x3b4;" 
d="M188 596v50h281v-63h-157v-37l135 -188l-78 -256l-103 -78l-269 -4l-35 91l79 235l131 109l112 3zM344 299v97h-141l-69 -47l-72 -210l35 -56h156z" />
    <glyph glyph-name="epsilon" unicode="&#x3b5;" 
d="M31 342l103 116h266l75 -94l-113 -44l-24 76h-135l-87 -57l43 -69h122v-62h-140l-88 -56l44 -69h122l122 75l47 -44l-122 -90l-269 -4l-38 104l72 115v103z" />
    <glyph glyph-name="zeta" unicode="&#x3b6;" 
d="M125 583v63h406v-54l-284 -203l-153 -140l-16 -150l200 -19l69 -88l-128 -128l-110 3l110 82v68l-235 19l10 200l109 113l316 234h-294z" />
    <glyph glyph-name="eta" unicode="&#x3b7;" 
d="M75 458h319l68 -69l-171 -509l-100 -19l153 453v85l-197 -19l-122 -360h-94q18 50 38.5 111t34.5 104t37 116t34 107z" />
    <glyph glyph-name="theta" unicode="&#x3b8;" 
d="M134 536l94 110h197l69 -69l-160 -478l-100 -75l-206 -4l-34 91zM375 505v78h-78l-72 -47l-44 -172h157zM241 108l68 194h-153l-65 -166l62 -62z" />
    <glyph glyph-name="iota" unicode="&#x3b9;" 
d="M125 396v62h156v-53l-97 -275l97 -69v-41h-159l-34 94l96 282h-59z" />
    <glyph glyph-name="kappa" unicode="&#x3ba;" 
d="M106 458h88l-44 -200l250 200l84 -3l-156 -128l-116 -85l138 -222h-94l-128 204l-72 -204h-94q18 50 38.5 111t34.5 104t37 116t34 107z" />
    <glyph glyph-name="lambda" unicode="&#x3bb;" 
d="M269 396h-13l-240 -376h-78v35l259 387l50 35l-28 169h93l7 -47l28 -125l15 -375l-24 -79h-82z" />
    <glyph glyph-name="mugreek" unicode="&#x3bc;" 
d="M-119 -136l194 594h81v-53l-94 -269v-53l110 3l134 113l78 259h85v-50l-131 -388h-88v76l-75 -76h-144l-62 -156h-88z" />
    <glyph glyph-name="nu" unicode="&#x3bd;" 
d="M72 20l-13 438h97v-347l94 94v65h62v94h63v94h94v-94h-63v-94h-62v-93h-53l-82 -157h-137z" />
    <glyph glyph-name="xi" unicode="&#x3be;" 
d="M103 536l94 110h334v-63h-265l-72 -47l-22 -125l234 -19l-34 -59h-210l-68 -84l-16 -150l200 -19l69 -88l-128 -128l-110 3l110 82v68l-235 19l10 210l137 143l-65 41z" />
    <glyph glyph-name="omicron" unicode="&#x3bf;" 
d="M41 349l93 109h260l68 -69l-96 -290l-100 -75l-269 -4l-35 91zM344 299v97h-141l-69 -47l-72 -210l35 -56h156z" />
    <glyph glyph-name="pi" unicode="&#x3c0;" 
d="M75 458h394v-50l-131 -388h-88v22l122 357l-225 -19l-122 -360h-94q18 50 38.5 111t34.5 104t37 116t34 107z" />
    <glyph glyph-name="rho" unicode="&#x3c1;" 
d="M41 349l93 109h260l68 -69l-96 -290l-100 -75l-235 -4l-62 -156h-91zM344 299v97h-141l-69 -47l-72 -213v-53h191z" />
    <glyph glyph-name="sigma1" unicode="&#x3c2;" 
d="M41 349l93 109h266l75 -94l-113 -44l-24 76h-135l-69 -47l-72 -210l35 -56h178l72 -91l-128 -128l-110 3l110 82v71h-222l-35 91z" />
    <glyph glyph-name="sigma" unicode="&#x3c3;" 
d="M41 349l93 109h366v-62h-100l34 -91l-72 -206l-96 -75l-269 -4l-35 91zM338 283l-72 113h-63l-69 -47l-72 -210l35 -56h156z" />
    <glyph glyph-name="tau" unicode="&#x3c4;" 
d="M62 396v62h407v-59l-166 -19l-87 -250l96 -69v-41h-159l-34 94l97 282h-154z" />
    <glyph glyph-name="upsilon" unicode="&#x3c5;" 
d="M-41 89l113 369h84v-53l-94 -272l57 -56l147 22l125 359h78v-50l-103 -309l-100 -75l-263 -4z" />
    <glyph glyph-name="phi" unicode="&#x3c6;" 
d="M41 349l93 109h54v-94h-54l-68 -228l37 -62l131 368l144 22l84 -72l-100 -306l-200 -97l-31 -125h-100l63 156h-97l-35 91zM278 114l72 219l-31 78l-69 -175l-41 -162z" />
    <glyph glyph-name="chi" unicode="&#x3c7;" 
d="M100 224l-38 234h94l10 -62l15 -63l7 -134l187 212v47h94v-47l-216 -247q35 -222 39 -251l5 -30l-100 -22l-3 81l-19 175l-228 -262l-75 25l112 125l141 178z" />
    <glyph glyph-name="psi" unicode="&#x3c8;" 
d="M-41 89l113 369h84v-53l-94 -272l54 -53l112 378h84v-53l-93 -269v-56l59 37l110 341h81v-41l-103 -331l-204 -97l-31 -125h-100l63 156h-91z" />
    <glyph glyph-name="omega" unicode="&#x3c9;" 
d="M-6 230l106 228h88v-22l-91 -181l-44 -181l69 40l72 219h90l-43 -141l-25 -72l59 -37l81 297l-15 78h90l28 -78l-93 -281l-100 -75l-282 12z" />
    <glyph glyph-name="iotadieresis" unicode="&#x3ca;" 
d="M125 396v62h156v-53l-97 -275l97 -69v-41h-159l-34 94l96 282h-59zM319 517l31 129h91l-19 -110zM131 517l31 129h91l-19 -110z" />
    <glyph glyph-name="upsilondieresis" unicode="&#x3cb;" 
d="M-41 89l113 369h84v-53l-94 -272l57 -56l147 22l125 359h78v-50l-103 -309l-100 -75l-263 -4zM350 517l31 129h91l-19 -110zM162 517l32 129h90l-18 -110z" />
    <glyph glyph-name="omicrontonos" unicode="&#x3cc;" 
d="M41 349l93 109h260l68 -69l-96 -290l-100 -75l-269 -4l-35 91zM344 299v97h-141l-69 -47l-72 -210l35 -56h156zM234 524l157 122h90l-93 -94z" />
    <glyph glyph-name="upsilontonos" unicode="&#x3cd;" 
d="M-41 89l113 369h84v-53l-94 -272l57 -56l147 22l125 359h78v-50l-103 -309l-100 -75l-263 -4zM234 524l157 122h90l-93 -94z" />
    <glyph glyph-name="omegatonos" unicode="&#x3ce;" 
d="M-6 230l106 228h88v-22l-91 -181l-44 -181l69 40l72 219h90l-43 -141l-25 -72l59 -37l81 297l-15 78h90l28 -78l-93 -281l-100 -75l-282 12zM234 524l157 122h90l-93 -94z" />
    <glyph glyph-name="theta1" unicode="&#x3d1;" 
d="M134 536l94 110h197l72 -72l-59 -147h62v-63h-84l-78 -275l-141 -75l-181 22l3 172h-50v62h159l-19 -168l110 -25l93 222v65h-143l-69 69zM359 442l19 141h-81l-66 -47l-43 -112z" />
    <glyph glyph-name="phi1" unicode="&#x3d5;" 
d="M250 458v94h94v-78l118 -75l-100 -313l-206 -100v-59h-100l35 93h-94l-35 91l79 238l93 109h116zM212 396h-9l-69 -47l-72 -216l50 -50zM278 114l72 219l-31 78l-69 -175l-41 -162z" />
    <glyph glyph-name="uni03F0" unicode="&#x3f0;" 
d="M62 396v62h150l69 -84l-47 -50l138 72l37 62h60v-53l-216 -150l-25 -94l28 -78h88v-63h-163l-31 126l-184 -132l-41 38q122 87 180 131l57 44l19 169h-119z" />
    <glyph glyph-name="uni03F1" unicode="&#x3f1;" 
d="M41 349l93 109h260l68 -69l-96 -290l-100 -63l-250 -31l15 -63l250 -18l-34 -60h-303l-35 91zM344 299v97h-141l-69 -47l-72 -213v-53h191z" />
    <glyph glyph-name="uni03F2" unicode="&#x3f2;" 
d="M41 349l93 109h266l75 -94l-113 -44l-24 76h-135l-69 -47l-72 -210l35 -56h122l122 75l47 -44l-122 -90l-269 -4l-35 91z" />
    <glyph glyph-name="uni03F3" unicode="&#x3f3;" 
d="M281 396v62h157v-50l-157 -466l-106 -78h-200l-37 100l34 56h94l-38 -62l103 -41l78 88l132 391h-60zM381 517l31 129h91l-19 -110z" />
    <glyph glyph-name="uni03F4" unicode="&#x3f4;" 
d="M103 536l94 110h259l69 -69l-159 -478l-100 -75l-269 -4l-35 91zM406 505v78h-140l-72 -47l-44 -172h219zM262 99l82 203h-219l-66 -166l60 -59z" />
    <glyph glyph-name="uni03F5" unicode="&#x3f5;" 
d="M0 277l181 181h288v-62h-222l-122 -66v-60h219v-62h-241l-41 -41l69 -84h213v-63h-266l-72 47l-12 94z" />
    <glyph glyph-name="uni03F6" unicode="&#x3f6;" 
d="M62 396v62h266l91 -56l15 -113l-93 -197l-157 -72h-246v63h271l113 125h-260v62h282v26l-38 100h-244z" />
    <glyph glyph-name="uni0400" unicode="&#x400;" 
d="M-41 99l179 547h393v-63h-312l-63 -159v-60h188v-62h-219l-63 -160v-59h282v-63h-413zM316 677l-69 125h94l68 -125h-93z" />
    <glyph glyph-name="afii10023" unicode="&#x401;" 
d="M-41 99l179 547h393v-63h-312l-63 -159v-60h188v-62h-219l-63 -160v-59h282v-63h-413zM406 702l38 100h87v-25l-37 -100h-88v25zM219 702l37 100h88v-25l-38 -100h-87v25z" />
    <glyph glyph-name="afii10051" unicode="&#x402;" 
d="M0 20v19l184 544h-90v63h281v-57l-116 -28l-34 -134h216l34 -91l-78 -237l-100 -75l-109 -4v63h96l94 222l-37 59h-141l-109 -344h-91z" />
    <glyph glyph-name="afii10052" unicode="&#x403;" 
d="M-41 99l179 547h393v-60l-322 -19l-184 -547h-94zM297 677l156 125h94l-156 -125h-94z" />
    <glyph glyph-name="afii10053" unicode="&#x404;" 
d="M103 536l94 110h259l69 -69l-31 -88h-88v94h-140l-72 -47l-44 -172h194v-62h-219l-63 -163l35 -56h156l35 94h87v-72l-109 -81l-269 -4l-35 91z" />
    <glyph glyph-name="afii10054" unicode="&#x405;" 
d="M88 524l109 122h259l69 -69l-31 -88h-88v94h-140l-78 -50l-16 -153l187 -22l72 -59l-65 -210l-135 -72l-247 19l-18 141h90l35 -94h156l65 122v94l-234 18z" />
    <glyph glyph-name="afii10055" unicode="&#x406;" 
d="M219 583v63h219v-41l-88 -69l-134 -412l40 -104h-225v63h81l163 500h-56z" />
    <glyph glyph-name="afii10056" unicode="&#x407;" 
d="M219 583v63h219v-41l-88 -69l-134 -412l40 -104h-225v63h81l163 500h-56zM406 702l38 100h87v-25l-37 -100h-88v25zM219 702l37 100h88v-25l-38 -100h-87v25z" />
    <glyph glyph-name="afii10057" unicode="&#x408;" 
d="M344 583v63h218v-57l-81 -31l-147 -469l-137 -75l-213 22v156l104 19l-10 -112h156l169 484h-59z" />
    <glyph glyph-name="afii10058" unicode="&#x409;" 
d="M94 20v19l181 541l-75 -31l-156 -475l-103 -66l-47 47l65 44l144 437l94 110h178v-60l-63 -159h129l34 -91l-78 -237l-100 -75zM378 305l-37 59h-50l-72 -240v-41h65z" />
    <glyph glyph-name="afii10059" unicode="&#x40a;" 
d="M-72 99l178 547h88l-75 -282h90l82 282h84v-60l-63 -159h129l34 -91l-78 -237l-100 -75l-203 -4v22l94 263l-104 -19l-90 -266h-94zM378 305l-37 59h-50l-72 -240v-41h65z" />
    <glyph glyph-name="afii10060" unicode="&#x40b;" 
d="M0 20v19l184 544h-90v63h281v-57l-116 -28l-34 -134h216l34 -91l-106 -316h-88v22l94 266l-34 56h-141l-109 -344h-91z" />
    <glyph glyph-name="afii10061" unicode="&#x40c;" 
d="M-41 99l179 547h87l-37 -150l-44 -113l300 216l28 47h59v-54l-293 -212l-63 -41l169 -256v-63h-53l-175 266l-91 -266h-94zM297 677l156 125h94l-156 -125h-94z" />
    <glyph glyph-name="uni040D" unicode="&#x40d;" 
d="M-41 99l179 547h81v-54l-94 -268v-57l278 207l41 172h87v-47l-193 -579h-88v22l94 269v56l-278 -206l-35 -141h-100zM316 677l-69 125h94l68 -125h-93z" />
    <glyph glyph-name="afii10062" unicode="&#x40e;" 
d="M38 339l100 307h87l-37 -141l-41 -175l209 19l94 297h81v-47l-165 -500l-100 -75l-297 -4v63h278l65 122v65h-206zM266 692l-19 110h97v-63h94v63h93v-53l-147 -79z" />
    <glyph glyph-name="afii10145" unicode="&#x40f;" 
d="M-41 99l179 547h81v-50l-157 -463v-50h207l181 563h81v-47l-193 -579h-150l-63 -156h-94l63 156h-163z" />
    <glyph glyph-name="afii10017" unicode="&#x410;" 
d="M103 536l94 110h259l69 -69l-187 -557h-94l37 100l38 150h-216l-75 -250h-97q28 79 100 297zM406 492v91h-140l-69 -47l-69 -203h216z" />
    <glyph glyph-name="afii10018" unicode="&#x411;" 
d="M-41 99l179 547h362v-63h-284l-50 -141l243 -18l35 -88l-78 -237l-100 -75l-335 -4zM347 305l-38 59h-175l-72 -240v-41h191z" />
    <glyph glyph-name="afii10019" unicode="&#x412;" 
d="M-41 99l179 547h318l69 -69l-34 -103l-122 -135l65 -37l-72 -203l-96 -75l-335 -4zM406 470v113h-187l-63 -159v-28h175zM338 286l-29 47h-178l-69 -197v-53h191z" />
    <glyph glyph-name="afii10020" unicode="&#x413;" 
d="M-41 99l179 547h393v-60l-322 -19l-184 -547h-94z" />
    <glyph glyph-name="afii10021" unicode="&#x414;" 
d="M134 536l94 110h272v-50l-156 -463l9 -128l-9 -109h-100l31 124h-281l-32 -124h-87v93l119 119zM238 83l162 500h-103l-69 -47l-134 -403v-50h144z" />
    <glyph glyph-name="afii10022" unicode="&#x415;" 
d="M-41 99l179 547h393v-63h-312l-63 -159v-60h188v-62h-219l-63 -160v-59h282v-63h-413z" />
    <glyph glyph-name="afii10024" unicode="&#x416;" 
d="M72 439l62 207h85v-60l-60 -156l57 -38l75 254h90l-37 -150l-44 -116l103 81l41 185h94l-41 -172l-156 -141l65 -119l-68 -194h-94l28 79l44 134l-57 34l-75 -247h-96l37 100l41 160l-69 -41l-72 -219h-94l38 100v60l169 156z" />
    <glyph glyph-name="afii10025" unicode="&#x417;" 
d="M94 530l103 116h259l69 -69l-66 -213h-56l16 -78l-47 -194l-141 -75l-247 19l-18 141h90l35 -94h156l65 122v97h-187v62h216l65 122v97h-153l-94 -94h-65v41z" />
    <glyph glyph-name="afii10026" unicode="&#x418;" 
d="M-41 99l179 547h81v-54l-94 -268v-57l278 207l41 172h87v-47l-193 -579h-88v22l94 269v56l-278 -206l-35 -141h-100z" />
    <glyph glyph-name="afii10027" unicode="&#x419;" 
d="M-41 99l179 547h81v-54l-94 -268v-57l278 207l41 172h87v-47l-193 -579h-88v22l94 269v56l-278 -206l-35 -141h-100zM266 692l-19 110h97v-63h94v63h93v-53l-147 -79z" />
    <glyph glyph-name="afii10028" unicode="&#x41a;" 
d="M-41 99l179 547h87l-37 -150l-44 -113l300 216l28 47h59v-54l-293 -212l-63 -41l169 -256v-63h-53l-175 266l-91 -266h-94z" />
    <glyph glyph-name="afii10029" unicode="&#x41b;" 
d="M250 20v19l184 544h-106l-69 -47l-143 -437l-100 -75h-94l100 75l144 437l93 110h272v-47l-193 -579h-88z" />
    <glyph glyph-name="afii10030" unicode="&#x41c;" 
d="M-41 99l179 547h74l76 -188h28l181 188h65v-47l-193 -579h-88v22l125 363v65l-128 -137h-53l-41 141l-159 -454h-94z" />
    <glyph glyph-name="afii10031" unicode="&#x41d;" 
d="M-41 99l179 547h87l-75 -282h216l81 282h84v-47l-193 -579h-88v22l94 263l-228 -19l-91 -266h-94z" />
    <glyph glyph-name="afii10032" unicode="&#x41e;" 
d="M103 536l94 110h259l69 -69l-159 -478l-100 -75l-269 -4l-35 91zM403 474l3 109h-140l-69 -47l-135 -403l57 -56l147 22z" />
    <glyph glyph-name="afii10033" unicode="&#x41f;" 
d="M250 20v19l184 547l-225 -19l-184 -547h-94q28 79 117 352l90 274h393v-47l-193 -579h-88z" />
    <glyph glyph-name="afii10034" unicode="&#x420;" 
d="M-41 99l179 547h318l69 -69l-66 -197l-93 -110h-263l-75 -250h-97zM375 383l41 200h-197l-66 -172l-25 -78h169z" />
    <glyph glyph-name="afii10035" unicode="&#x421;" 
d="M103 536l94 110h259l69 -69l-31 -88h-88v94h-140l-69 -47l-135 -400l35 -53h156l35 94h87v-72l-109 -81l-269 -4l-35 91z" />
    <glyph glyph-name="afii10036" unicode="&#x422;" 
d="M94 20v19l184 544h-153v63h406v-60l-165 -19l-185 -547h-87z" />
    <glyph glyph-name="afii10037" unicode="&#x423;" 
d="M38 339l100 307h87l-37 -141l-41 -175l209 19l94 297h81v-47l-165 -500l-100 -75l-297 -4v63h278l65 122v65h-206z" />
    <glyph glyph-name="afii10038" unicode="&#x424;" 
d="M312 646v62h63l150 -131l-163 -488l-243 -131h-60l38 62h-100l-35 91l141 425l94 110h115zM275 583h-9l-69 -47l-135 -403l50 -50zM275 114l137 406l-31 79l-37 -94l-125 -369v-56z" />
    <glyph glyph-name="afii10039" unicode="&#x425;" 
d="M166 411l-41 235h94l9 -63l16 -63l6 -134l188 213v47h93v-47l-222 -250l38 -329h-97l-6 126l-16 62l-9 72l-141 -181l-75 -79h-65v35l78 81l143 172z" />
    <glyph glyph-name="afii10040" unicode="&#x426;" 
d="M-38 111l176 535h81v-50l-157 -457l35 -56h172l181 563h81v-50l-150 -447l28 -116l-65 -169h-94l62 156h-315z" />
    <glyph glyph-name="afii10041" unicode="&#x427;" 
d="M38 339l100 307h87l-37 -141l-41 -175l209 19l94 297h81v-47l-193 -579h-94l37 100l38 150h-213z" />
    <glyph glyph-name="afii10042" unicode="&#x428;" 
d="M-38 111l176 535h81v-50l-157 -463l50 -50l182 563h81v-50l-156 -463v-50h50l181 563h81v-47l-193 -579h-341z" />
    <glyph glyph-name="afii10043" unicode="&#x429;" 
d="M-38 111l176 535h81v-50l-157 -463l50 -50l182 563h81v-50l-156 -463v-50h50l181 563h81v-50l-159 -466l31 -116l-59 -150h-94l62 156h-315z" />
    <glyph glyph-name="afii10044" unicode="&#x42a;" 
d="M-31 20v19l184 544h-59v63h162l-44 -188h182l68 -69l-96 -290l-100 -75zM344 299v97h-156l-63 -160l-37 -153h165z" />
    <glyph glyph-name="afii10045" unicode="&#x42b;" 
d="M303 99l178 547h81v-47l-193 -579h-94zM-41 99l179 547h87l-44 -188h88l69 -69l-97 -290l-100 -75l-210 -4zM219 299v97h-63l-62 -160l-38 -153h72z" />
    <glyph glyph-name="afii10046" unicode="&#x42c;" 
d="M-9 99l178 547h87l-44 -188h182l68 -69l-96 -290l-100 -75l-304 -4zM344 299v97h-156l-63 -160l-37 -153h165z" />
    <glyph glyph-name="afii10047" unicode="&#x42d;" 
d="M94 530l103 116h259l69 -69l-159 -478l-100 -79l-282 16l-18 141h90l38 -97l168 19l82 203h-219v62h244l37 141v78h-153l-94 -94h-65v41z" />
    <glyph glyph-name="afii10048" unicode="&#x42e;" 
d="M-41 99l179 547h87l-75 -282h62l44 172l97 110h135l68 -69l-159 -478l-100 -75l-144 -4l-34 94l65 191l-72 -22l-87 -263h-94zM300 83l162 500h-90q-28 -78 -91 -263l-62 -184v-53h81z" />
    <glyph glyph-name="afii10049" unicode="&#x42f;" 
d="M103 536l94 110h334v-47l-193 -579h-94l28 79l47 153l-319 -238l-69 25l303 216l-125 22l-75 59zM353 349l81 234h-168l-78 -50l-41 -203z" />
    <glyph glyph-name="afii10065" unicode="&#x430;" 
d="M94 396v62h300l68 -69l-124 -372l-354 19l-18 138l128 128h250v94h-250zM281 139l38 100h-188l-75 -90l41 -66h184v56z" />
    <glyph glyph-name="afii10066" unicode="&#x431;" 
d="M103 536l94 110h272v-63h-203l-66 -47l-41 -109h250l35 -91l-78 -237l-100 -75l-335 -4q28 79 100 297zM347 305l-38 59h-175l-72 -240v-41h191z" />
    <glyph glyph-name="afii10067" unicode="&#x432;" 
d="M-62 20v19l184 544l37 63h241l66 -82l-100 -203l65 -65l-69 -197l-96 -75zM344 470v113h-125l-63 -159v-28h113zM338 286l-29 47h-178l-69 -197v-53h191z" />
    <glyph glyph-name="afii10068" unicode="&#x433;" 
d="M75 458h394v-59l-322 -19l-122 -360h-94q18 50 38.5 111t34.5 104t37 116t34 107z" />
    <glyph glyph-name="afii10069" unicode="&#x434;" 
d="M41 349l93 109h335v-50l-157 -466l-106 -78h-303l38 63h240l75 93h-259l-35 91zM269 83l100 313h-166l-69 -47l-72 -210l35 -56h172z" />
    <glyph glyph-name="afii10070" unicode="&#x435;" 
d="M41 349l93 109h260l68 -69l-62 -178l-322 -19v-93l300 9l-72 -88h-309l-35 91zM344 270v126l-141 -7l-78 -31v-88h219z" />
    <glyph glyph-name="afii10072" unicode="&#x436;" 
d="M38 339l31 119h93l-31 -125l53 -34l41 159h94l-41 -166l97 78v88h94v-91l-153 -118l68 -69l-40 -160h-91l38 188h-44l-66 -188h-87v29l59 156l-84 -31l-38 -154h-97l44 138l131 109z" />
    <glyph glyph-name="afii10073" unicode="&#x437;" 
d="M16 324l118 134h260l68 -69l-31 -119h-47v-159l-118 -87l-269 -4l-35 97l38 38l147 -78l119 22l18 109h-159v59l203 19l22 119l-178 -35z" />
    <glyph glyph-name="afii10074" unicode="&#x438;" 
d="M-41 89l113 369h84v-53l-94 -266l35 -56h175l112 375h85v-50l-131 -388h-335z" />
    <glyph glyph-name="afii10075" unicode="&#x439;" 
d="M-41 89l113 369h84v-53l-94 -266l35 -56h175l112 375h85v-50l-131 -388h-335zM219 546l-38 100h100v-63h94v63h94v-60l-122 -66h-128v26z" />
    <glyph glyph-name="afii10076" unicode="&#x43a;" 
d="M106 458h88l-44 -200l250 200l84 -3l-156 -128l-116 -85l138 -222h-94l-128 204l-72 -204h-94q18 50 38.5 111t34.5 104t37 116t34 107z" />
    <glyph glyph-name="afii10077" unicode="&#x43b;" 
d="M103 349l94 109h272v-50l-131 -388h-88v22l122 354h-106l-69 -47l-81 -250l-100 -75h-94l100 75z" />
    <glyph glyph-name="afii10078" unicode="&#x43c;" 
d="M75 458h44l125 -169l228 175l34 -34l-137 -410h-88v22l94 266l-166 -109l-78 106l-28 -50l-78 -235h-94q18 50 38.5 111t34.5 104t37 116t34 107z" />
    <glyph glyph-name="afii10079" unicode="&#x43d;" 
d="M75 458h87l-43 -188h219l43 188h88v-50l-131 -388h-88v29l62 159h-221l-66 -188h-94q18 50 38.5 111t34.5 104t37 116t34 107z" />
    <glyph glyph-name="afii10080" unicode="&#x43e;" 
d="M41 349l93 109h260l68 -69l-96 -290l-100 -75l-269 -4l-35 91zM344 299v97h-141l-69 -47l-72 -210l35 -56h156z" />
    <glyph glyph-name="afii10081" unicode="&#x43f;" 
d="M75 458h394v-50l-131 -388h-88v22l122 357l-225 -19l-122 -360h-94q18 50 38.5 111t34.5 104t37 116t34 107z" />
    <glyph glyph-name="afii10082" unicode="&#x440;" 
d="M-119 -136l194 594h319l68 -69l-96 -290l-100 -75l-235 -4l-62 -156h-88zM344 299v97h-188l-62 -160l-38 -153h197z" />
    <glyph glyph-name="afii10083" unicode="&#x441;" 
d="M41 349l93 109h266l75 -94l-113 -44l-24 76h-135l-69 -47l-72 -210l35 -56h122l122 75l47 -44l-122 -90l-269 -4l-35 91z" />
    <glyph glyph-name="afii10084" unicode="&#x442;" 
d="M62 396v62h407v-59l-166 -19l-122 -360h-87v22l122 354h-154z" />
    <glyph glyph-name="afii10085" unicode="&#x443;" 
d="M-41 89l113 369h84v-53l-94 -266l35 -56h175l112 375h85v-50l-157 -466l-106 -78h-303l38 63h240l75 93h-253z" />
    <glyph glyph-name="afii10086" unicode="&#x444;" 
d="M250 458v94h94v-78l118 -75l-100 -313l-206 -100v-59h-100l35 93h-94l-35 91l79 238l93 109h116zM212 396h-9l-69 -47l-72 -216l50 -50zM278 114l72 219l-31 78l-69 -175l-41 -162z" />
    <glyph glyph-name="afii10087" unicode="&#x445;" 
d="M62 364v94h94v-119l78 -62l141 112v69h94v-94l-47 -3l-147 -122l91 -140l-28 -79h-94l31 82l-84 115l-197 -197h-56v60l203 159z" />
    <glyph glyph-name="afii10088" unicode="&#x446;" 
d="M-41 89l113 369h84v-53l-94 -266l35 -56h175l112 375h85v-53l-97 -275l31 -116l-59 -150h-94l62 156h-309z" />
    <glyph glyph-name="afii10089" unicode="&#x447;" 
d="M28 270l41 188h90l-18 -172l197 -19l43 191h88v-50l-131 -388h-88v29l62 159h-246z" />
    <glyph glyph-name="afii10090" unicode="&#x448;" 
d="M-41 89l113 369h84v-53l-94 -272l54 -53l112 378h84v-53l-93 -269v-53h53l112 375h85v-50l-131 -388h-335z" />
    <glyph glyph-name="afii10091" unicode="&#x449;" 
d="M-41 89l113 369h84v-53l-94 -272l54 -53l112 378h84v-53l-93 -269v-53h53l112 375h85v-53l-97 -275l31 -116l-59 -150h-94l62 156h-309z" />
    <glyph glyph-name="afii10092" unicode="&#x44a;" 
d="M62 396v62h163l-31 -122l197 -19l-10 -206l-115 -87l-266 -4v22l122 354h-60zM316 208l-38 62h-116l-37 -140v-47h122z" />
    <glyph glyph-name="afii10093" unicode="&#x44b;" 
d="M419 458h81v-50l-131 -388h-94q18 50 38.5 111t34 104t37 116t34.5 107zM75 458h87l-31 -122l135 -19l-10 -206l-115 -87l-210 -4q18 50 38.5 111t34.5 104t37 116t34 107zM188 189l-19 63l-69 22l-41 -166l41 -41z" />
    <glyph glyph-name="afii10094" unicode="&#x44c;" 
d="M106 458h88l-32 -122l197 -19l-9 -206l-116 -87l-272 -4q18 50 38.5 111t34.5 104t37 116t34 107zM284 208l-37 62h-116l-37 -140v-47h122z" />
    <glyph glyph-name="afii10095" unicode="&#x44d;" 
d="M16 324l118 134h260l68 -69l-96 -290l-100 -75l-269 -4l-35 97l41 41l122 -75h122l69 125h-191v62h219v132l-172 -32z" />
    <glyph glyph-name="afii10096" unicode="&#x44e;" 
d="M75 458h87l-43 -188h69v72l103 116h134l69 -69l-97 -290l-100 -79l-156 16l3 172h-53l-66 -188h-94q18 50 38.5 111t34.5 104t37 116t34 107zM300 83l100 313h-88l-62 -160l-38 -153h88z" />
    <glyph glyph-name="afii10097" unicode="&#x44f;" 
d="M25 336l109 122h335v-50l-131 -388h-88v29l62 162l-78 -47l-200 -150l-72 25l226 153l-141 35zM338 270l31 126h-166l-87 -57l43 -69h179z" />
    <glyph glyph-name="uni0450" unicode="&#x450;" 
d="M41 349l93 109h260l68 -69l-62 -178l-322 -19v-93l300 9l-72 -88h-309l-35 91zM344 270v126l-141 -7l-78 -31v-88h219zM266 520l-78 126h81l75 -76v-50h-78z" />
    <glyph glyph-name="afii10071" unicode="&#x451;" 
d="M41 349l93 109h260l68 -69l-62 -178l-322 -19v-93l300 9l-72 -88h-309l-35 91zM344 270v126l-141 -7l-78 -31v-88h219zM350 517l31 129h91l-19 -110zM162 517l32 129h90l-18 -110z" />
    <glyph glyph-name="afii10099" unicode="&#x452;" 
d="M-31 20v19l156 466l-66 22l113 115l78 4v-63h159l-37 -63h-153v-62h206l69 -69l-156 -462l-122 -66l-138 19l181 94l110 312l6 113l-197 -19l-122 -360h-87z" />
    <glyph glyph-name="afii10100" unicode="&#x453;" 
d="M75 458h394v-59l-322 -19l-122 -360h-94q18 50 38.5 111t34.5 104t37 116t34 107zM234 524l157 122h90l-93 -94z" />
    <glyph glyph-name="afii10101" unicode="&#x454;" 
d="M41 349l93 109h266l75 -94l-113 -44l-24 76h-113l-100 -38v-88h156v-59l-203 -19v-93l119 -22l147 78l44 -41l-122 -90l-269 -4l-35 91z" />
    <glyph glyph-name="afii10102" unicode="&#x455;" 
d="M25 336l109 122h266l81 -100l-278 41l-87 -60l43 -69h172l69 -68l-31 -113l-138 -72l-240 19l-29 78l300 -15l22 106l-237 19z" />
    <glyph glyph-name="afii10103" unicode="&#x456;" 
d="M156 396v62h156v-53l-93 -269l34 -116h-222v63h81l100 313h-56zM256 517l32 129h90l-19 -110z" />
    <glyph glyph-name="afii10104" unicode="&#x457;" 
d="M156 396v62h156v-53l-93 -269l34 -116h-222v63h81l100 313h-56zM350 517l31 129h91l-19 -110zM162 517l32 129h90l-18 -110z" />
    <glyph glyph-name="afii10105" unicode="&#x458;" 
d="M281 396v62h157v-50l-157 -466l-106 -78h-200l-37 100l34 56h94l-38 -62l103 -41l78 88l132 391h-60zM381 517l31 129h91l-19 -110z" />
    <glyph glyph-name="afii10106" unicode="&#x459;" 
d="M41 349l93 109h185l-31 -122l134 -19l-10 -206l-115 -87l-203 -4v22l122 350l-82 -31l-87 -287l-106 -66l-47 47l65 44zM344 189l-19 63l-69 22l-40 -166l40 -41z" />
    <glyph glyph-name="afii10107" unicode="&#x45a;" 
d="M44 458h87l-43 -188h93l44 188h94l-31 -122l134 -19l-10 -206l-115 -87l-203 -4v29l62 159h-97l-65 -188h-94q18 50 38.5 111t34 104t37 116t34.5 107zM344 189l-19 63l-69 22l-40 -166l40 -41z" />
    <glyph glyph-name="afii10108" unicode="&#x45b;" 
d="M-31 20v19l156 466l-66 22l113 115l78 4v-63h159l-37 -63h-153v-62h206l69 -69l-125 -369h-88v22l94 269v88l-197 -19l-122 -360h-87z" />
    <glyph glyph-name="afii10109" unicode="&#x45c;" 
d="M106 458h88l-44 -200l250 200l84 -3l-156 -128l-116 -85l138 -222h-94l-128 204l-72 -204h-94q18 50 38.5 111t34.5 104t37 116t34 107zM234 524l157 122h90l-93 -94z" />
    <glyph glyph-name="uni045D" unicode="&#x45d;" 
d="M-41 89l113 369h84v-53l-94 -266l35 -56h175l112 375h85v-50l-131 -388h-335zM266 520l-78 126h81l75 -76v-50h-78z" />
    <glyph glyph-name="afii10110" unicode="&#x45e;" 
d="M-41 89l113 369h84v-53l-94 -266l35 -56h175l112 375h85v-50l-157 -466l-106 -78h-303l38 63h240l75 93h-253zM219 546l-38 100h100v-63h94v63h94v-60l-122 -66h-128v26z" />
    <glyph glyph-name="afii10193" unicode="&#x45f;" 
d="M75 458h81v-53l-94 -269v-53h210l112 375h85v-50l-131 -388h-150l-63 -156h-94l63 156h-163q18 50 38.5 111t34.5 104t37 116t34 107z" />
    <glyph glyph-name="afii10146" unicode="&#x462;" 
d="M-31 20v19l156 466l-66 22l113 115l78 4v-63h128l-37 -63h-122v-62h175l68 -69l-96 -290l-100 -75zM344 299v97h-156l-63 -160l-37 -153h165z" />
    <glyph glyph-name="afii10194" unicode="&#x463;" 
d="M188 549v97h100l-32 -126h119v-62h-150l-31 -122l197 -19l-10 -206l-115 -87l-266 -4v22l125 366l-34 106zM316 208l-38 62h-116l-37 -140v-47h122z" />
    <glyph glyph-name="uni046A" unicode="&#x46a;" 
d="M156 333l-37 313h412v-63l-140 -166l-69 -68l84 -132l-68 -197h-94l28 79l44 134l-57 34l-75 -247h-96l37 100l41 160l-69 -41l-72 -219h-87v22l65 194zM272 396l166 187h-222l22 -153z" />
    <glyph glyph-name="uni046B" unicode="&#x46b;" 
d="M62 346v112h407v-69l-160 -125l72 -87l-37 -157h-91l38 188h-44l-66 -188h-87v29l59 156l-84 -31l-38 -154h-97l44 138l150 122zM234 277l147 119h-225v-57z" />
    <glyph glyph-name="afii10050" unicode="&#x490;" 
d="M462 646l32 124h97l-66 -184l-316 -19l-184 -547h-94q28 79 117 352l90 274h324z" />
    <glyph glyph-name="afii10098" unicode="&#x491;" 
d="M400 458l31 125h97l-66 -184l-315 -19l-122 -360h-94q28 79 86 258l58 180h325z" />
    <glyph glyph-name="uni0492" unicode="&#x492;" 
d="M53 364l81 282h397v-63h-312l-63 -159v-60h125v-59l-165 -19l-91 -266h-87v22l84 244l-28 78h59z" />
    <glyph glyph-name="uni0493" unicode="&#x493;" 
d="M25 270l44 188h400v-59l-328 -19l-19 -110h128v-62h-159l-66 -188h-91l44 141l-6 109h53z" />
    <glyph glyph-name="uni0494" unicode="&#x494;" 
d="M-41 99l179 547h393v-60l-322 -19l-81 -234h250l34 -91l-78 -237l-93 -109h-94l94 109l71 209l-34 56h-175l-75 -250h-97z" />
    <glyph glyph-name="uni0495" unicode="&#x495;" 
d="M75 458h394v-62h-316l-50 -141l194 -31l-9 -207l-110 -121h-94l104 112l15 153l-134 19l-38 -160h-100q18 50 38.5 111t34.5 104t37 116t34 107z" />
    <glyph glyph-name="uni0496" unicode="&#x496;" 
d="M72 439l62 207h85v-60l-60 -156l57 -38l75 254h90l-37 -150l-44 -116l103 81l41 185h94l-41 -172l-156 -141l56 -109l-16 -291l-40 -69h-91l59 153l-62 19l69 181l-57 57l-75 -254h-96l37 100l41 160l-69 -41l-72 -219h-94l38 100v60l169 156z" />
    <glyph glyph-name="uni0497" unicode="&#x497;" 
d="M38 339l31 119h93l-31 -125l53 -34l41 159h94l-41 -166l97 78v88h94v-91l-160 -121l60 -38l28 -203l-53 -141h-94l62 156h-59l38 188h-44l-66 -188h-87v29l59 156l-84 -31l-38 -154h-97l44 138l131 109z" />
    <glyph glyph-name="uni0498" unicode="&#x498;" 
d="M94 530l103 116h259l69 -69l-66 -213h-56l16 -78l-47 -197l-210 -100l-31 -125h-100l60 150l-122 32v131h87l35 -94h156l65 122v97h-187v62h216l65 122v97h-153l-94 -94h-65v41z" />
    <glyph glyph-name="uni0499" unicode="&#x499;" 
d="M16 324l118 134h260l68 -69l-31 -119h-47v-159l-118 -87l-78 -4l-63 -156h-94l60 150l-122 32v100h81l69 -69l147 22l18 109h-159v59l203 19l22 119l-178 -35z" />
    <glyph glyph-name="uni049A" unicode="&#x49a;" 
d="M-41 99l179 547h87l-37 -150l-44 -113l300 216l28 47h59v-54q-294 -212 -325 -234l-31 -22l222 -331l-50 -141h-94l50 141l-191 278l-87 -263h-94z" />
    <glyph glyph-name="uni049B" unicode="&#x49b;" 
d="M106 458h88l-44 -200l250 200l84 -3l-156 -128l-119 -85l157 -237l-50 -141h-97l56 141l-150 215l-69 -200h-94q18 50 38.5 111t34.5 104t37 116t34 107z" />
    <glyph glyph-name="uni049C" unicode="&#x49c;" 
d="M-41 99l179 547h87l-37 -141l-32 -156l69 171h63l-38 -93l109 62l110 85v72h93v-79l-203 -140l-118 -91l156 -237l-28 -79h-91l16 79l-82 150l-59 -103h-59l65 171l-59 -62l-75 -235h-94z" />
    <glyph glyph-name="uni049D" unicode="&#x49d;" 
d="M75 458h87l-37 -203l59 141h63l-41 -110l228 172l82 -3l-157 -128l-115 -85l137 -222h-81l-141 172l-3 -109h-68l31 125h-28l-66 -188h-94q18 50 38.5 111t34.5 104t37 116t34 107z" />
    <glyph glyph-name="uni04A0" unicode="&#x4a0;" 
d="M-31 20v19l184 544h-59v63h162l-37 -150l-44 -113l300 216l28 47h59v-54l-293 -212l-63 -41l169 -256v-63h-53l-175 266l-91 -266h-87z" />
    <glyph glyph-name="uni04A1" unicode="&#x4a1;" 
d="M31 396v62h163l-44 -200l250 200l84 -3l-156 -128l-116 -85l138 -222h-94l-128 204l-72 -204h-87v22l122 354h-60z" />
    <glyph glyph-name="uni04A2" unicode="&#x4a2;" 
d="M-41 99l179 547h87l-75 -282h216l81 282h84v-50l-159 -466l31 -116l-59 -150h-94l59 153l-62 19l97 269l-228 -19l-91 -266h-94z" />
    <glyph glyph-name="uni04A3" unicode="&#x4a3;" 
d="M75 458h87l-43 -188h219l43 188h88v-53l-97 -275l31 -116l-59 -150h-94l59 153l-62 19l65 172h-221l-66 -188h-94q18 50 38.5 111t34.5 104t37 116t34 107z" />
    <glyph glyph-name="uni04A4" unicode="&#x4a4;" 
d="M-72 99l178 547h88l-75 -282h153l81 282h241v-60l-166 -19l-184 -547h-88v22l94 263l-166 -19l-90 -266h-94z" />
    <glyph glyph-name="uni04A5" unicode="&#x4a5;" 
d="M44 458h87l-43 -188h156l44 188h243v-59l-165 -19l-122 -360h-88v29l63 159h-160l-65 -188h-94q18 50 38.5 111t34 104t37 116t34.5 107z" />
    <glyph glyph-name="uni04AA" unicode="&#x4aa;" 
d="M103 536l94 110h259l69 -69l-31 -88h-88v94h-140l-69 -47l-135 -400l35 -53h156l35 94h87v-88l-213 -100l-31 -125h-100l63 156h-97l-35 91z" />
    <glyph glyph-name="uni04AB" unicode="&#x4ab;" 
d="M41 349l93 109h266l75 -94l-113 -44l-24 76h-135l-69 -47l-72 -210l35 -56h150l37 63h91v-57l-213 -100l-31 -125h-100l63 156h-97l-35 91z" />
    <glyph glyph-name="uni04AE" unicode="&#x4ae;" 
d="M159 320l-40 326h100l9 -157l16 -62l6 -72l141 181l47 22v88h93v-63q-122 -141 -197 -230l-75 -89l-75 -244h-90v22l87 254z" />
    <glyph glyph-name="uni04AF" unicode="&#x4af;" 
d="M94 24l-41 434h103l6 -266l-9 -62l159 169v65h63v94h94v-94h-63v-65l-78 -82l-131 -156l-63 -181l-103 -19z" />
    <glyph glyph-name="uni04B0" unicode="&#x4b0;" 
d="M156 324l-37 322h100l9 -157l16 -62l6 -72l141 181l47 22v88h93v-63q-122 -141 -189 -219l-67 -78l100 -19v-59h-128l-66 -188h-87v29l62 159h-125v62h160z" />
    <glyph glyph-name="uni04B1" unicode="&#x4b1;" 
d="M91 52l-38 406h103l6 -266l-9 -62l159 169v65h63v94h94v-94h-63v-65l-78 -82l-140 -165h124v-63h-150l-31 -125h-93l31 125h-100v63h122z" />
    <glyph glyph-name="uni04B2" unicode="&#x4b2;" 
d="M166 411l-41 235h94l9 -63l16 -63l6 -134l188 213v47h93v-47l-222 -250l25 -235l72 -87l-62 -163h-94l59 153l-56 19l-28 188l-6 56l-141 -181l-75 -79h-65v35l78 81l143 172z" />
    <glyph glyph-name="uni04B3" unicode="&#x4b3;" 
d="M62 364v94h94v-119l78 -62l141 112v69h94v-94l-47 -3l-147 -122l131 -212l-62 -163h-94l62 156h-68l31 82l-84 115l-197 -197h-56v60l203 159z" />
    <glyph glyph-name="uni04B6" unicode="&#x4b6;" 
d="M38 339l100 307h87l-37 -141l-41 -175l209 19l94 297h81v-50l-159 -466l31 -116l-59 -150h-94l62 156h-68l37 100l38 150h-213z" />
    <glyph glyph-name="uni04B7" unicode="&#x4b7;" 
d="M28 270l41 188h90l-18 -172l197 -19l43 191h88v-53l-97 -275l31 -116l-59 -150h-94l59 153l-62 19l65 172h-246z" />
    <glyph glyph-name="uni04B8" unicode="&#x4b8;" 
d="M38 333l100 313h87l-37 -141l-41 -181l72 43v91h100l-31 -128l68 22l94 294h81v-47l-193 -579h-94l37 100l38 150h-63l-31 -124h-97l38 96z" />
    <glyph glyph-name="uni04B9" unicode="&#x4b9;" 
d="M28 270l41 188h93l-37 -153l63 -38v97h93v-94h57l43 188h88v-50l-131 -388h-88v29l62 159h-65l-35 -94h-93l34 94h-87z" />
    <glyph glyph-name="uni04BA" unicode="&#x4ba;" 
d="M-41 99l179 547h87l-37 -150l-38 -100h250l34 -91l-96 -285h-88v22l88 254l-35 37h-172l-106 -313h-94z" />
    <glyph glyph-name="uni04BB" unicode="&#x4bb;" 
d="M75 458h87l-37 -156h244l34 -91l-65 -191h-91l41 141l9 63l-197 18l-75 -222h-94q18 50 38.5 111t34.5 104t37 116t34 107z" />
    <glyph glyph-name="uni04C0" unicode="&#x4c0;" 
d="M219 583v63h219v-41l-88 -69l-134 -412l40 -104h-225v63h81l163 500h-56z" />
    <glyph glyph-name="uni04C1" unicode="&#x4c1;" 
d="M72 439l62 207h85v-60l-60 -156l57 -38l75 254h90l-37 -150l-44 -116l103 81l41 185h94l-41 -172l-156 -141l65 -119l-68 -194h-94l28 79l44 134l-57 34l-75 -247h-96l37 100l41 160l-69 -41l-72 -219h-94l38 100v60l169 156zM266 692l-19 110h97v-63h94v63h93v-53
l-147 -79z" />
    <glyph glyph-name="uni04C2" unicode="&#x4c2;" 
d="M38 339l31 119h93l-31 -125l53 -34l41 159h94l-41 -166l97 78v88h94v-91l-153 -118l68 -69l-40 -160h-91l38 188h-44l-66 -188h-87v29l59 156l-84 -31l-38 -154h-97l44 138l131 109zM219 546l-38 100h100v-63h94v63h94v-60l-122 -66h-128v26z" />
    <glyph glyph-name="uni04CF" unicode="&#x4cf;" 
d="M219 583v63h156v-50l-156 -463l34 -113h-222v63h81l163 500h-56z" />
    <glyph glyph-name="uni04D0" unicode="&#x4d0;" 
d="M103 536l94 110h259l69 -69l-187 -557h-94l37 100l38 150h-216l-75 -250h-97q28 79 100 297zM406 492v91h-140l-69 -47l-69 -203h216zM266 692l-19 110h97v-63h94v63h93v-53l-147 -79z" />
    <glyph glyph-name="uni04D1" unicode="&#x4d1;" 
d="M94 396v62h300l68 -69l-124 -372l-354 19l-18 138l128 128h250v94h-250zM281 139l38 100h-188l-75 -90l41 -66h184v56zM219 546l-38 100h100v-63h94v63h94v-60l-122 -66h-128v26z" />
    <glyph glyph-name="uni04D2" unicode="&#x4d2;" 
d="M103 536l94 110h259l69 -69l-187 -557h-94l37 100l38 150h-216l-75 -250h-97q28 79 100 297zM406 492v91h-140l-69 -47l-69 -203h216zM406 702l38 100h87v-25l-37 -100h-88v25zM219 702l37 100h88v-25l-38 -100h-87v25z" />
    <glyph glyph-name="uni04D3" unicode="&#x4d3;" 
d="M94 396v62h300l68 -69l-124 -372l-354 19l-18 138l128 128h250v94h-250zM281 139l38 100h-188l-75 -90l41 -66h184v56zM350 517l31 129h91l-19 -110zM162 517l32 129h90l-18 -110z" />
    <glyph glyph-name="uni04D4" unicode="&#x4d4;" 
d="M72 536l94 110h396v-63h-156l-62 -159v-60h125v-62h-157l-62 -160v-59h125v-63h-250v22l94 263l-135 -19l-90 -266h-94q28 79 100 297zM241 364l65 219h-72l-72 -47l-43 -172h122z" />
    <glyph glyph-name="uni04D5" unicode="&#x4d5;" 
d="M62 396v59l360 -3l75 -60l-66 -181l-197 -19v-93l185 18l-81 -93l-372 3l-38 90l72 153l184 38l32 88h-154zM375 270v126h-53l-41 -41v-85h94zM119 99l40 140h-59l-78 -97l72 -72z" />
    <glyph glyph-name="uni04D6" unicode="&#x4d6;" 
d="M-41 99l179 547h393v-63h-312l-63 -159v-60h188v-62h-219l-63 -160v-59h282v-63h-413zM266 692l-19 110h97v-63h94v63h93v-53l-147 -79z" />
    <glyph glyph-name="uni04D7" unicode="&#x4d7;" 
d="M41 349l93 109h260l68 -69l-62 -178l-322 -19v-93l300 9l-72 -88h-309l-35 91zM344 270v126l-141 -7l-78 -31v-88h219zM219 546l-38 100h100v-63h94v63h94v-60l-122 -66h-128v26z" />
    <glyph glyph-name="uni04D8" unicode="&#x4d8;" 
d="M94 530l103 116h259l69 -69l-159 -478l-100 -75l-263 -4l-41 69l79 275h328l37 141v78h-153l-94 -94h-65v41zM262 99l82 203h-219l-66 -166l60 -59z" />
    <glyph glyph-name="afii10846" unicode="&#x4d9;" 
d="M62 417l41 41h291l68 -69l-96 -290l-100 -75l-263 -4l-37 63l40 187h338v135l-282 -41v53zM247 83l69 125h-219l-38 -62l38 -63h150z" />
    <glyph glyph-name="uni04DA" unicode="&#x4da;" 
d="M94 530l103 116h259l69 -69l-159 -478l-100 -75l-263 -4l-41 69l79 275h328l37 141v78h-153l-94 -94h-65v41zM262 99l82 203h-219l-66 -166l60 -59zM406 702l38 100h87v-25l-37 -100h-88v25zM219 702l37 100h88v-25l-38 -100h-87v25z" />
    <glyph glyph-name="uni04DB" unicode="&#x4db;" 
d="M62 417l41 41h291l68 -69l-96 -290l-100 -75l-263 -4l-37 63l40 187h338v135l-282 -41v53zM247 83l69 125h-219l-38 -62l38 -63h150zM350 517l31 129h91l-19 -110zM162 517l32 129h90l-18 -110z" />
    <glyph glyph-name="uni04DC" unicode="&#x4dc;" 
d="M72 439l62 207h85v-60l-60 -156l57 -38l75 254h90l-37 -150l-44 -116l103 81l41 185h94l-41 -172l-156 -141l65 -119l-68 -194h-94l28 79l44 134l-57 34l-75 -247h-96l37 100l41 160l-69 -41l-72 -219h-94l38 100v60l169 156zM406 702l38 100h87v-25l-37 -100h-88v25z
M219 702l37 100h88v-25l-38 -100h-87v25z" />
    <glyph glyph-name="uni04DD" unicode="&#x4dd;" 
d="M38 339l31 119h93l-31 -125l53 -34l41 159h94l-41 -166l97 78v88h94v-91l-153 -118l68 -69l-40 -160h-91l38 188h-44l-66 -188h-87v29l59 156l-84 -31l-38 -154h-97l44 138l131 109zM350 517l31 129h91l-19 -110zM162 517l32 129h90l-18 -110z" />
    <glyph glyph-name="uni04DE" unicode="&#x4de;" 
d="M94 530l103 116h259l69 -69l-66 -213h-56l16 -78l-47 -194l-141 -75l-247 19l-18 141h90l35 -94h156l65 122v97h-187v62h216l65 122v97h-153l-94 -94h-65v41zM406 702l38 100h87v-25l-37 -100h-88v25zM219 702l37 100h88v-25l-38 -100h-87v25z" />
    <glyph glyph-name="uni04DF" unicode="&#x4df;" 
d="M16 324l118 134h260l68 -69l-31 -119h-47v-159l-118 -87l-269 -4l-35 97l38 38l147 -78l119 22l18 109h-159v59l203 19l22 119l-178 -35zM350 517l31 129h91l-19 -110zM162 517l32 129h90l-18 -110z" />
    <glyph glyph-name="uni04E2" unicode="&#x4e2;" 
d="M-41 99l179 547h81v-54l-94 -268v-57l278 207l41 172h87v-47l-193 -579h-88v22l94 269v56l-278 -206l-35 -141h-100zM216 708l37 62h281l-37 -62h-281z" />
    <glyph glyph-name="uni04E3" unicode="&#x4e3;" 
d="M-41 89l113 369h84v-53l-94 -266l35 -56h175l112 375h85v-50l-131 -388h-335zM153 520l38 63h281l-38 -63h-281z" />
    <glyph glyph-name="uni04E4" unicode="&#x4e4;" 
d="M-41 99l179 547h81v-54l-94 -268v-57l278 207l41 172h87v-47l-193 -579h-88v22l94 269v56l-278 -206l-35 -141h-100zM406 702l38 100h87v-25l-37 -100h-88v25zM219 702l37 100h88v-25l-38 -100h-87v25z" />
    <glyph glyph-name="uni04E5" unicode="&#x4e5;" 
d="M-41 89l113 369h84v-53l-94 -266l35 -56h175l112 375h85v-50l-131 -388h-335zM350 517l31 129h91l-19 -110zM162 517l32 129h90l-18 -110z" />
    <glyph glyph-name="uni04E6" unicode="&#x4e6;" 
d="M103 536l94 110h259l69 -69l-159 -478l-100 -75l-269 -4l-35 91zM403 474l3 109h-140l-69 -47l-135 -403l57 -56l147 22zM406 702l38 100h87v-25l-37 -100h-88v25zM219 702l37 100h88v-25l-38 -100h-87v25z" />
    <glyph glyph-name="uni04E7" unicode="&#x4e7;" 
d="M41 349l93 109h260l68 -69l-96 -290l-100 -75l-269 -4l-35 91zM344 299v97h-141l-69 -47l-72 -210l35 -56h156zM350 517l31 129h91l-19 -110zM162 517l32 129h90l-18 -110z" />
    <glyph glyph-name="uni04E8" unicode="&#x4e8;" 
d="M103 536l94 110h259l69 -69l-159 -478l-100 -75l-269 -4l-35 91zM406 505v78h-140l-72 -47l-44 -172h219zM262 99l82 203h-219l-66 -166l60 -59z" />
    <glyph glyph-name="uni04E9" unicode="&#x4e9;" 
d="M41 349l93 109h260l68 -69l-96 -290l-100 -75l-269 -4l-35 91zM344 270v126l-141 -7l-78 -31v-88h219zM247 83l69 125h-219l-38 -62l38 -63h150z" />
    <glyph glyph-name="uni04EA" unicode="&#x4ea;" 
d="M103 536l94 110h259l69 -69l-159 -478l-100 -75l-269 -4l-35 91zM406 505v78h-140l-72 -47l-44 -172h219zM262 99l82 203h-219l-66 -166l60 -59zM406 702l38 100h87v-25l-37 -100h-88v25zM219 702l37 100h88v-25l-38 -100h-87v25z" />
    <glyph glyph-name="uni04EB" unicode="&#x4eb;" 
d="M41 349l93 109h260l68 -69l-96 -290l-100 -75l-269 -4l-35 91zM344 270v126l-141 -7l-78 -31v-88h219zM247 83l69 125h-219l-38 -62l38 -63h150zM350 517l31 129h91l-19 -110zM162 517l32 129h90l-18 -110z" />
    <glyph glyph-name="uni04EC" unicode="&#x4ec;" 
d="M94 530l103 116h259l69 -69l-159 -478l-100 -79l-282 16l-18 141h90l38 -97l168 19l82 203h-219v62h244l37 141v78h-153l-94 -94h-65v41zM406 702l38 100h87v-25l-37 -100h-88v25zM219 702l37 100h88v-25l-38 -100h-87v25z" />
    <glyph glyph-name="uni04ED" unicode="&#x4ed;" 
d="M16 324l118 134h260l68 -69l-96 -290l-100 -75l-269 -4l-35 97l41 41l122 -75h122l69 125h-191v62h219v132l-172 -32zM350 517l31 129h91l-19 -110zM162 517l32 129h90l-18 -110z" />
    <glyph glyph-name="uni04EE" unicode="&#x4ee;" 
d="M38 339l100 307h87l-37 -141l-41 -175l209 19l94 297h81v-47l-165 -500l-100 -75l-297 -4v63h278l65 122v65h-206zM216 708l37 62h281l-37 -62h-281z" />
    <glyph glyph-name="uni04EF" unicode="&#x4ef;" 
d="M-41 89l113 369h84v-53l-94 -266l35 -56h175l112 375h85v-50l-157 -466l-106 -78h-303l38 63h240l75 93h-253zM153 520l38 63h281l-38 -63h-281z" />
    <glyph glyph-name="uni04F0" unicode="&#x4f0;" 
d="M38 339l100 307h87l-37 -141l-41 -175l209 19l94 297h81v-47l-165 -500l-100 -75l-297 -4v63h278l65 122v65h-206zM406 702l38 100h87v-25l-37 -100h-88v25zM219 702l37 100h88v-25l-38 -100h-87v25z" />
    <glyph glyph-name="uni04F1" unicode="&#x4f1;" 
d="M-41 89l113 369h84v-53l-94 -266l35 -56h175l112 375h85v-50l-157 -466l-106 -78h-303l38 63h240l75 93h-253zM350 517l31 129h91l-19 -110zM162 517l32 129h90l-18 -110z" />
    <glyph glyph-name="uni04F2" unicode="&#x4f2;" 
d="M38 339l100 307h87l-37 -141l-41 -175l209 19l94 297h81v-47l-165 -500l-100 -75l-297 -4v63h278l65 122v65h-206zM391 677l156 125h94l-157 -125h-93zM203 677l156 125h94l-156 -125h-94z" />
    <glyph glyph-name="uni04F3" unicode="&#x4f3;" 
d="M-41 89l113 369h84v-53l-94 -266l35 -56h175l112 375h85v-50l-157 -466l-106 -78h-303l38 63h240l75 93h-253zM338 520l146 122h94l-147 -122h-93zM141 524l156 122h91l-94 -94z" />
    <glyph glyph-name="uni04F4" unicode="&#x4f4;" 
d="M38 339l100 307h87l-37 -141l-41 -175l209 19l94 297h81v-47l-193 -579h-94l37 100l38 150h-213zM406 702l38 100h87v-25l-37 -100h-88v25zM219 702l37 100h88v-25l-38 -100h-87v25z" />
    <glyph glyph-name="uni04F5" unicode="&#x4f5;" 
d="M28 270l41 188h90l-18 -172l197 -19l43 191h88v-50l-131 -388h-88v29l62 159h-246zM350 517l31 129h91l-19 -110zM162 517l32 129h90l-18 -110z" />
    <glyph glyph-name="uni04F8" unicode="&#x4f8;" 
d="M303 99l178 547h81v-47l-193 -579h-94zM-41 99l179 547h87l-44 -188h88l69 -69l-97 -290l-100 -75l-210 -4zM219 299v97h-63l-62 -160l-38 -153h72zM406 702l38 100h87v-25l-37 -100h-88v25zM219 702l37 100h88v-25l-38 -100h-87v25z" />
    <glyph glyph-name="uni04F9" unicode="&#x4f9;" 
d="M419 458h81v-50l-131 -388h-94q18 50 38.5 111t34 104t37 116t34.5 107zM75 458h87l-31 -122l135 -19l-10 -206l-115 -87l-210 -4q18 50 38.5 111t34.5 104t37 116t34 107zM188 189l-19 63l-69 22l-41 -166l41 -41zM350 517l31 129h91l-19 -110zM162 517l32 129h90
l-18 -110z" />
    <glyph glyph-name="afii57664" unicode="&#x5d0;" 
d="M162 411l-37 235h94q6 -47 20 -141l14 -94l53 -53l66 41l75 247h84v-54l-65 -193l-154 -100l38 -279h-100l-3 110l-28 153l-22 19l-94 -35l-75 -247h-97l38 100l34 138l181 119z" />
    <glyph glyph-name="afii57665" unicode="&#x5d1;" 
d="M94 583v63h331l69 -69l-150 -444l34 -113h-472v63h332l137 425v75h-281z" />
    <glyph glyph-name="afii57666" unicode="&#x5d2;" 
d="M156 583v63h206l69 -69l-90 -260l37 -297h-97l-6 141l6 50l-78 -47l-200 -150l-103 22l344 250l68 225v72h-156z" />
    <glyph glyph-name="afii57667" unicode="&#x5d3;" 
d="M219 20v19l184 544h-309v63h468v-41l-87 -69l-169 -516h-87z" />
    <glyph glyph-name="afii57668" unicode="&#x5d4;" 
d="M75 458h81v-50l-131 -388h-94q18 50 38.5 111t34.5 104t37 116t34 107zM250 20v19l156 463v81h-281v63h331l69 -69l-187 -557h-88z" />
    <glyph glyph-name="afii57669" unicode="&#x5d5;" 
d="M94 20v19l156 463v81h-94v63h144l69 -69l-188 -557h-87z" />
    <glyph glyph-name="afii57670" unicode="&#x5d6;" 
d="M94 20v19l156 466l106 78h-200v63h344v-50l-172 -129l-144 -447h-90z" />
    <glyph glyph-name="afii57671" unicode="&#x5d7;" 
d="M250 20v19l156 463v84l-197 -19l-184 -547h-94q28 79 117 352l90 274h318l69 -69l-187 -557h-88z" />
    <glyph glyph-name="afii57672" unicode="&#x5d8;" 
d="M-38 111l176 535h81v-50l-157 -463l57 -56l147 22l137 375l3 109h-94v63h144l69 -69l-159 -478l-100 -75l-269 -4z" />
    <glyph glyph-name="afii57673" unicode="&#x5d9;" 
d="M156 583v63h150l60 -79l-75 -218l-103 -19l62 162v91h-94z" />
    <glyph glyph-name="afii57674" unicode="&#x5da;" 
d="M125 583v63h331l69 -69l-234 -697l-100 -19l215 641v81h-281z" />
    <glyph glyph-name="afii57675" unicode="&#x5db;" 
d="M125 583v63h331l69 -69l-159 -478l-100 -75l-328 -4v60l328 19l137 375l3 109h-281z" />
    <glyph glyph-name="afii57676" unicode="&#x5dc;" 
d="M125 611l63 159h87l-31 -124h287v-41l-69 -225l-250 -181l-62 -179h-88v22l66 191l244 169l62 181h-309v28z" />
    <glyph glyph-name="afii57677" unicode="&#x5dd;" 
d="M-41 99l179 547h318l69 -69l-187 -557h-407zM406 508v75h-190q-29 -78 -91 -263l-63 -184v-53h207z" />
    <glyph glyph-name="afii57678" unicode="&#x5de;" 
d="M-31 20v19l159 466l-34 131l322 6l109 -59l-16 -141l-140 -422h-181v63h112l134 413l-34 87h-103l-69 -47l-172 -516h-87z" />
    <glyph glyph-name="afii57679" unicode="&#x5df;" 
d="M156 583v63h206l69 -69l-234 -697l-100 -19l215 641v81h-156z" />
    <glyph glyph-name="afii57680" unicode="&#x5e0;" 
d="M188 583v63h206l68 -69l-187 -557h-275v63h206l138 425v75h-156z" />
    <glyph glyph-name="afii57681" unicode="&#x5e1;" 
d="M94 583v63h394l68 -69l-159 -478l-100 -75l-269 -4l-34 94l159 469h-59zM434 474l4 109h-191q-28 -78 -91 -264l-62 -186l56 -56l147 22z" />
    <glyph glyph-name="afii57682" unicode="&#x5e2;" 
d="M109 99l19 547h91l6 -485l28 109h59v94h54l81 282h84v-41l-72 -241h-53v-94h-62v-81l-263 -169h-143v60z" />
    <glyph glyph-name="afii57683" unicode="&#x5e3;" 
d="M56 370l78 276h322l69 -69l-234 -697l-100 -19l215 641v81h-187l-66 -169l97 -72v-40h-153z" />
    <glyph glyph-name="afii57684" unicode="&#x5e4;" 
d="M56 370l78 276h322l69 -69l-159 -478l-100 -75l-328 -4v60l328 19l137 375l3 109h-187l-66 -169l97 -72v-40h-153z" />
    <glyph glyph-name="afii57685" unicode="&#x5e5;" 
d="M173 360q-10 57 -48 286h94l9 -63l16 -63l6 -124l156 100l38 150h94l-41 -169l-106 -75l-110 -85l-147 -437l-100 -19l150 441z" />
    <glyph glyph-name="afii57686" unicode="&#x5e6;" 
d="M125 646h94l9 -63l16 -63l6 -124l156 100l38 150h94l-41 -169l-106 -81l-113 -66l38 -310h-378v63h281q-42 258 -94 563z" />
    <glyph glyph-name="afii57687" unicode="&#x5e7;" 
d="M-122 -139l197 597h81v-50l-178 -528zM125 583v63h406v-41l-69 -228l-209 -144l-72 -213h-87v22l65 191l210 144l62 206h-306z" />
    <glyph glyph-name="afii57688" unicode="&#x5e8;" 
d="M250 20v19l156 463v81h-281v63h331l69 -69l-187 -557h-88z" />
    <glyph glyph-name="afii57689" unicode="&#x5e9;" 
d="M-41 99l179 547h81v-54l-91 -256l84 31l79 279h84v-54l-72 -212l-94 -110h-115v-46l-41 -144l213 19l187 547h78v-47l-165 -500l-100 -75l-335 -4z" />
    <glyph glyph-name="afii57690" unicode="&#x5ea;" 
d="M281 20v19l157 463v84l-197 -19l-163 -468l-50 -79h-122v63h82l162 500h-56v63h394l68 -69l-187 -557h-88z" />
    <glyph glyph-name="uni1E0C" unicode="&#x1e0c;" 
d="M6 -139l32 128h90l-19 -109zM-41 99l179 547h253l90 -57l13 -106l-88 -259l-68 -135l-154 -69h-253zM403 492l-34 91h-153q-29 -78 -91 -263l-63 -184v-53h147l94 109z" />
    <glyph glyph-name="uni1E0D" unicode="&#x1e0d;" 
d="M69 -139l31 128h91l-19 -109zM400 458l44 188h87v-47l-193 -579h-341l-35 91l79 238l93 109h266zM269 83l100 313h-166l-69 -47l-72 -210l35 -56h172z" />
    <glyph glyph-name="Klinebelow" unicode="&#x1e34;" 
d="M-31 -104v62h281v-62h-281zM-41 99l179 547h87l-37 -150l-44 -113l300 216l28 47h59v-54l-293 -212l-63 -41l169 -256v-63h-53l-175 266l-91 -266h-94z" />
    <glyph glyph-name="klinebelow" unicode="&#x1e35;" 
d="M0 -104v62h250v-62h-250zM-9 99l178 547h81v-54l-94 -268v-60l244 194l84 -3l-156 -128l-116 -85l138 -222h-94l-128 204l-72 -204h-94z" />
    <glyph glyph-name="uni1E36" unicode="&#x1e36;" 
d="M38 -139l31 128h90l-18 -109zM-41 99l179 547h81v-50l-157 -463v-50h282v-63h-413z" />
    <glyph glyph-name="uni1E37" unicode="&#x1e37;" 
d="M38 -139l31 128h90l-18 -109zM219 583v63h156v-50l-156 -463l34 -113h-222v63h81l163 500h-56z" />
    <glyph glyph-name="uni1E40" unicode="&#x1e40;" 
d="M-41 99l179 547h74l76 -188h28l181 188h65v-47l-193 -579h-88v22l125 363v65l-128 -137h-53l-41 141l-159 -454h-94zM312 702l38 100h88v-25l-38 -100h-88v25z" />
    <glyph glyph-name="uni1E41" unicode="&#x1e41;" 
d="M75 458h319l68 -69l-124 -369h-88v22l94 269v97l-56 -59l-107 -329h-87v22l122 357l-72 -22l-119 -357h-94q18 50 38.5 111t34.5 104t37 116t34 107zM256 517l32 129h90l-19 -110z" />
    <glyph glyph-name="uni1E42" unicode="&#x1e42;" 
d="M38 -139l31 128h90l-18 -109zM-41 99l179 547h74l76 -188h28l181 188h65v-47l-193 -579h-88v22l125 363v65l-128 -137h-53l-41 141l-159 -454h-94z" />
    <glyph glyph-name="uni1E43" unicode="&#x1e43;" 
d="M38 -139l31 128h90l-18 -109zM75 458h319l68 -69l-124 -369h-88v22l94 269v97l-56 -59l-107 -329h-87v22l122 357l-72 -22l-119 -357h-94q18 50 38.5 111t34.5 104t37 116t34 107z" />
    <glyph glyph-name="uni1E44" unicode="&#x1e44;" 
d="M-41 99l179 547h87l-34 -138l128 -206h22l109 344h81v-47l-193 -579h-88v29l56 143l-144 207l-28 -50l-109 -329h-94zM312 702l38 100h88v-25l-38 -100h-88v25z" />
    <glyph glyph-name="uni1E45" unicode="&#x1e45;" 
d="M75 458h319l68 -69l-124 -369h-88v22l94 269v88l-197 -19l-122 -360h-94q18 50 38.5 111t34.5 104t37 116t34 107zM256 517l32 129h90l-19 -110z" />
    <glyph glyph-name="uni1E46" unicode="&#x1e46;" 
d="M38 -139l31 128h90l-18 -109zM-41 99l179 547h87l-34 -138l128 -206h22l109 344h81v-47l-193 -579h-88v29l56 143l-144 207l-28 -50l-109 -329h-94z" />
    <glyph glyph-name="uni1E47" unicode="&#x1e47;" 
d="M38 -139l31 128h90l-18 -109zM75 458h319l68 -69l-124 -369h-88v22l94 269v88l-197 -19l-122 -360h-94q18 50 38.5 111t34.5 104t37 116t34 107z" />
    <glyph glyph-name="uni1E6C" unicode="&#x1e6c;" 
d="M38 -139l31 128h90l-18 -109zM94 20v19l184 544h-153v63h406v-60l-165 -19l-185 -547h-87z" />
    <glyph glyph-name="uni1E6D" unicode="&#x1e6d;" 
d="M131 -139l31 128h91l-19 -109zM212 458l44 188h94l-44 -188h100v-59l-134 -19l-84 -241l34 -56h122v-63h-222l-34 94l96 282h-122v62h150z" />
    <glyph glyph-name="Edotbelow" unicode="&#x1eb8;" 
d="M38 -139l31 128h90l-18 -109zM-41 99l179 547h393v-63h-312l-63 -159v-60h188v-62h-219l-63 -160v-59h282v-63h-413z" />
    <glyph glyph-name="edotbelow" unicode="&#x1eb9;" 
d="M38 -139l31 128h90l-18 -109zM41 349l93 109h260l68 -69l-62 -178l-322 -19v-93l300 9l-72 -88h-309l-35 91zM344 270v126l-141 -7l-78 -31v-88h219z" />
    <glyph glyph-name="Etilde" unicode="&#x1ebc;" 
d="M-41 99l179 547h393v-63h-312l-63 -159v-60h188v-62h-219l-63 -160v-59h282v-63h-413zM188 727l78 78l156 -19l-16 -94l85 110h71v-56l-90 -76l-144 22l16 94l-85 -109h-71v50z" />
    <glyph glyph-name="etilde" unicode="&#x1ebd;" 
d="M41 349l93 109h260l68 -69l-62 -178l-322 -19v-93l300 9l-72 -88h-309l-35 91zM344 270v126l-141 -7l-78 -31v-88h219zM122 520l69 126h150l62 -110l3 110h94v-88l-100 -38h-119l-3 110l-62 -110h-94z" />
    <glyph glyph-name="uni1ECA" unicode="&#x1eca;" 
d="M38 -139l31 128h90l-18 -109zM219 583v63h219v-41l-88 -69l-134 -412l40 -104h-225v63h81l163 500h-56z" />
    <glyph glyph-name="uni1ECB" unicode="&#x1ecb;" 
d="M38 -139l31 128h90l-18 -109zM156 396v62h156v-53l-93 -269l34 -116h-222v63h81l100 313h-56zM256 517l32 129h90l-19 -110z" />
    <glyph glyph-name="Odotbelow" unicode="&#x1ecc;" 
d="M38 -139l31 128h90l-18 -109zM103 536l94 110h259l69 -69l-159 -478l-100 -75l-269 -4l-35 91zM403 474l3 109h-140l-69 -47l-135 -403l57 -56l147 22z" />
    <glyph glyph-name="odotbelow" unicode="&#x1ecd;" 
d="M38 -139l31 128h90l-18 -109zM41 349l93 109h260l68 -69l-96 -290l-100 -75l-269 -4l-35 91zM344 299v97h-141l-69 -47l-72 -210l35 -56h156z" />
    <glyph glyph-name="uni1EE4" unicode="&#x1ee4;" 
d="M38 -139l31 128h90l-18 -109zM-38 111l176 535h81v-50l-157 -463l57 -56l147 22l187 547h78v-47l-165 -500l-100 -75l-269 -4z" />
    <glyph glyph-name="uni1EE5" unicode="&#x1ee5;" 
d="M69 -139l31 128h91l-19 -109zM-41 89l113 369h84v-53l-94 -266l35 -56h175l112 375h85v-50l-131 -388h-335z" />
    <glyph glyph-name="Ytilde" unicode="&#x1ef8;" 
d="M159 320l-40 326h100l9 -157l16 -62l6 -72l141 181l47 22v88h93v-63q-122 -141 -197 -230l-75 -89l-75 -244h-90v22l87 254zM188 727l78 78l156 -19l-16 -94l85 110h71v-56l-90 -76l-144 22l16 94l-85 -109h-71v50z" />
    <glyph glyph-name="ytilde" unicode="&#x1ef9;" 
d="M-41 89l113 369h84v-53l-94 -266l35 -56h175l112 375h85v-50l-157 -466l-106 -78h-303l38 63h240l75 93h-253zM122 520l69 126h150l62 -110l3 110h94v-88l-100 -38h-119l-3 110l-62 -110h-94z" />
    <glyph glyph-name="uni2000" unicode="&#x2000;" 
 />
    <glyph glyph-name="uni2001" unicode="&#x2001;" 
 />
    <glyph glyph-name="enspace" unicode="&#x2002;" 
 />
    <glyph glyph-name="uni2003" unicode="&#x2003;" 
 />
    <glyph glyph-name="uni2004" unicode="&#x2004;" 
 />
    <glyph glyph-name="uni2005" unicode="&#x2005;" 
 />
    <glyph glyph-name="uni2006" unicode="&#x2006;" 
 />
    <glyph glyph-name="uni2007" unicode="&#x2007;" 
 />
    <glyph glyph-name="uni2008" unicode="&#x2008;" 
 />
    <glyph glyph-name="uni2009" unicode="&#x2009;" 
 />
    <glyph glyph-name="uni200A" unicode="&#x200a;" 
 />
    <glyph glyph-name="uni200B" unicode="&#x200b;" 
 />
    <glyph glyph-name="afii61664" unicode="&#x200c;" 
 />
    <glyph glyph-name="afii301" unicode="&#x200d;" 
 />
    <glyph glyph-name="afii299" unicode="&#x200e;" 
 />
    <glyph glyph-name="afii300" unicode="&#x200f;" 
 />
    <glyph glyph-name="hyphentwo" unicode="&#x2010;" 
d="M62 302v62h344v-62h-344z" />
    <glyph glyph-name="uni2011" unicode="&#x2011;" 
d="M62 302v62h344v-62h-344z" />
    <glyph glyph-name="figuredash" unicode="&#x2012;" 
d="M31 302v62h407v-62h-407z" />
    <glyph glyph-name="endash" unicode="&#x2013;" 
d="M31 302v62h407v-62h-407z" />
    <glyph glyph-name="emdash" unicode="&#x2014;" 
d="M31 302v62h438v-62h-438z" />
    <glyph glyph-name="afii00208" unicode="&#x2015;" 
d="M31 302v62h438v-62h-438z" />
    <glyph glyph-name="dblverticalbar" unicode="&#x2016;" 
d="M209 99l179 547h81v-47l-194 -579h-94zM53 99l178 547h81v-47l-193 -579h-94z" />
    <glyph glyph-name="underscoredbl" unicode="&#x2017;" 
d="M-125 -167v63h406v-63h-406zM-97 -42l38 62h406l-38 -62h-406z" />
    <glyph glyph-name="quoteleft" unicode="&#x2018;" 
d="M294 630l65 75l79 3v-62h-57l-31 -126h-97z" />
    <glyph glyph-name="quoteright" unicode="&#x2019;" 
d="M222 520l106 188h78v-50l-97 -138h-87z" />
    <glyph glyph-name="quotesinglbase" unicode="&#x201a;" 
d="M34 -42l107 188h78v-50l-97 -138h-88z" />
    <glyph glyph-name="quotereversed" unicode="&#x201b;" 
d="M303 661l9 47h91l-19 -172l-93 -19z" />
    <glyph glyph-name="quotedblleft" unicode="&#x201c;" 
d="M388 630l65 75l78 3v-62h-56l-31 -126h-97zM200 630l66 75l78 3v-62h-56l-32 -126h-97z" />
    <glyph glyph-name="quotedblright" unicode="&#x201d;" 
d="M347 520l106 188h78v-50l-97 -138h-87zM159 520l107 188h78v-50l-97 -138h-88z" />
    <glyph glyph-name="quotedblbase" unicode="&#x201e;" 
d="M128 -42l106 188h78v-50l-96 -138h-88zM-59 -42l106 188h78v-50l-97 -138h-87z" />
    <glyph glyph-name="uni201F" unicode="&#x201f;" 
d="M366 661l9 47h91l-19 -172l-94 -19zM178 661l10 47h90l-19 -172l-93 -19z" />
    <glyph glyph-name="dagger" unicode="&#x2020;" 
d="M256 520l32 126h93l-31 -126h119v-62h-144l-141 -438h-90v22l125 363v53h-94v62h131z" />
    <glyph glyph-name="daggerdbl" unicode="&#x2021;" 
d="M256 520l32 126h93l-31 -126h119v-62h-150l-38 -150l-37 -100h134l-37 -62h-119l-38 -126h-93l37 126h-131l37 62h116l69 197v53h-94v62h131z" />
    <glyph glyph-name="bullet" unicode="&#x2022;" 
d="M125 342l103 116h103l69 -69l-31 -112l-147 -78l-97 37v106z" />
    <glyph glyph-name="ellipsis" unicode="&#x2026;" 
d="M250 46l38 100h87v-26l-37 -100h-88v26zM94 46l37 100h88v-26l-38 -100h-87v26zM-62 46l37 100h87v-26l-37 -100h-87v26z" />
    <glyph glyph-name="perthousand" unicode="&#x2030;" 
d="M131 161l66 41h209v-113l-78 -62l-219 9zM375 599v47h94v-47l-172 -194q-210 -256 -264 -320l-55 -65h-72v35l78 81l219 269zM91 520l68 126h88l37 -63l-68 -125h-88z" />
    <glyph glyph-name="minute" unicode="&#x2032;" 
d="M250 511l69 197h125l-28 -47l-85 -203h-81v53z" />
    <glyph glyph-name="second" unicode="&#x2033;" 
d="M344 511l68 197h126l-29 -47l-84 -203h-81v53zM156 511l69 197h125l-28 -47l-84 -203h-82v53z" />
    <glyph glyph-name="guilsinglleft" unicode="&#x2039;" 
d="M172 327l156 128h94l-156 -128l-116 -85l138 -222h-94l-138 222z" />
    <glyph glyph-name="guilsinglright" unicode="&#x203a;" 
d="M250 277l-128 181h94l128 -181v-60l-282 -203l-68 25l256 178v60z" />
    <glyph glyph-name="exclamdbl" unicode="&#x203c;" 
d="M188 46l37 100h87v-26l-37 -100h-87v26zM0 46l38 100h87v-26l-37 -100h-88v26zM253 236l135 410h81l-7 -79l-109 -312zM66 236l134 410h81l-6 -79l-109 -312z" />
    <glyph glyph-name="overline" unicode="&#x203e;" 
d="M153 708l38 62h406l-38 -62h-406z" />
    <glyph glyph-name="uni2070" unicode="&#x2070;" 
d="M181 617l110 122h134l69 -69l-66 -206l-137 -75l-119 25zM334 458l66 219h-88l-62 -160v-59h84z" />
    <glyph glyph-name="uni2071" unicode="&#x2071;" 
d="M312 608l-37 100h166l-47 -141l3 -171h-209v62h87zM375 739v94h94v-94h-94z" />
    <glyph glyph-name="uni2074" unicode="&#x2074;" 
d="M172 514l281 222l47 3v-50l-100 -293h-88v62h-162zM378 583h-19l-93 -63h75z" />
    <glyph glyph-name="uni2075" unicode="&#x2075;" 
d="M188 599l37 140h244v-62h-153l-35 -60l172 -18l-22 -125l-65 -82l-225 19l31 63l172 -16v94h-156v47z" />
    <glyph glyph-name="uni2076" unicode="&#x2076;" 
d="M197 630l94 109h178v-62h-153l-35 -60l172 -18l-22 -125l-62 -78h-203l-35 37zM344 458v94h-94v-94h94z" />
    <glyph glyph-name="uni2077" unicode="&#x2077;" 
d="M219 639v100h281v-78l-188 -219v-46h-93v50l109 121l94 119z" />
    <glyph glyph-name="uni2078" unicode="&#x2078;" 
d="M184 614l69 125h213l31 -50l-81 -234l-63 -63l-212 19l21 125l57 22zM372 614l37 63h-93l-38 -63h94zM344 458v94h-94v-94h94z" />
    <glyph glyph-name="uni2079" unicode="&#x2079;" 
d="M188 617l65 122h213l34 -56l-75 -209l-97 -75l-172 -3v62h188v62h-156v97zM369 583l34 94h-81l-41 -41v-53h88z" />
    <glyph glyph-name="uni207A" unicode="&#x207a;" 
d="M266 592l50 85h87l-31 -88l112 -28l-125 -50l-50 -84h-87l31 87l-112 28z" />
    <glyph glyph-name="uni207B" unicode="&#x207b;" 
d="M153 520l38 63h312l-37 -63h-313z" />
    <glyph glyph-name="uni207C" unicode="&#x207c;" 
d="M156 458v62h313v-62h-313zM184 614l38 63h312l-37 -63h-313z" />
    <glyph glyph-name="uni207D" unicode="&#x207d;" 
d="M244 617l109 122h94l-116 -125l-3 -218l-94 18z" />
    <glyph glyph-name="uni207E" unicode="&#x207e;" 
d="M338 670l-69 69h93l69 -69l-69 -196l-96 -75h-94l97 75z" />
    <glyph glyph-name="nsuperior" unicode="&#x207f;" 
d="M125 396v18l100 294h247l34 -91l-75 -221h-93l37 100l37 150h-121l-75 -250h-91z" />
    <glyph glyph-name="uni2080" unicode="&#x2080;" 
d="M25 149l109 121h135l69 -68l-66 -206l-138 -76l-118 26zM178 -11l66 219h-88l-62 -159v-60h84z" />
    <glyph glyph-name="uni2081" unicode="&#x2081;" 
d="M59 152l107 118h90l-50 -171l3 -172h-209v62h88l34 141z" />
    <glyph glyph-name="uni2082" unicode="&#x2082;" 
d="M28 146l69 124h212l44 -71l-244 -210h141v-62h-281l3 47l290 215l-81 25l-69 -68h-84z" />
    <glyph glyph-name="uni2083" unicode="&#x2083;" 
d="M62 230l41 40h206l41 -68l-69 -69v-137l-90 -72l-207 18l32 63l172 -16v94h-63v63h91l43 68l-197 -44v60z" />
    <glyph glyph-name="uni2084" unicode="&#x2084;" 
d="M16 46l281 221l47 3v-50l-100 -293h-88v62h-162zM222 114h-19l-94 -62h75z" />
    <glyph glyph-name="uni2085" unicode="&#x2085;" 
d="M31 130l38 140h243v-62h-153l-34 -59l172 -19l-22 -125l-66 -81l-225 18l32 63l172 -16v94h-157v47z" />
    <glyph glyph-name="uni2086" unicode="&#x2086;" 
d="M41 161l93 109h178v-62h-153l-34 -59l172 -19l-22 -125l-63 -78h-203l-34 37zM188 -11v94h-94v-94h94z" />
    <glyph glyph-name="uni2087" unicode="&#x2087;" 
d="M62 170v100h282v-78l-188 -218v-47h-94v50l110 122l94 118z" />
    <glyph glyph-name="uni2088" unicode="&#x2088;" 
d="M28 146l69 124h212l32 -50l-82 -234l-62 -62l-213 18l22 125l56 22zM216 146l37 62h-94l-37 -62h94zM188 -11v94h-94v-94h94z" />
    <glyph glyph-name="uni2089" unicode="&#x2089;" 
d="M31 149l66 121h212l35 -56l-75 -209l-97 -75l-172 -3v62h188v63h-157v97zM212 114l35 94h-81l-41 -41v-53h87z" />
    <glyph glyph-name="uni208A" unicode="&#x208a;" 
d="M109 124l50 84h88l-31 -88l112 -28l-125 -50l-50 -84h-87l31 88l-113 28z" />
    <glyph glyph-name="uni208B" unicode="&#x208b;" 
d="M-3 52l37 62h313l-38 -62h-312z" />
    <glyph glyph-name="uni208C" unicode="&#x208c;" 
d="M0 -11v63h312v-63h-312zM28 146l38 62h312l-37 -62h-313z" />
    <glyph glyph-name="uni208D" unicode="&#x208d;" 
d="M88 149l109 121h94l-116 -124l-3 -219l-94 19z" />
    <glyph glyph-name="uni208E" unicode="&#x208e;" 
d="M181 202l-69 68h94l69 -68l-69 -197l-97 -75h-93l96 75z" />
    <glyph glyph-name="uni2090" unicode="&#x2090;" 
d="M94 177v62h222l34 -90l-75 -225l-291 18l22 125l72 47h172v63h-156zM219 -11v63h-125v-63h125z" />
    <glyph glyph-name="uni2091" unicode="&#x2091;" 
d="M25 149l116 90l187 -15v-157l-234 -18v-60h200l-66 -65l-212 18zM250 114v63h-125v-63h125z" />
    <glyph glyph-name="uni2092" unicode="&#x2092;" 
d="M25 149l116 90l187 -15l-9 -207l-116 -90l-187 15zM219 36l37 141h-125l-37 -141v-47h125v47z" />
    <glyph glyph-name="uni2093" unicode="&#x2093;" 
d="M62 158v81h94v-93h60l93 93h66v-37l-159 -128l65 -66v-81h-93v93h-60l-94 -93h-65v37l159 128z" />
    <glyph glyph-name="uni2094" unicode="&#x2094;" 
d="M59 177l41 65l228 -18l-9 -207l-116 -90l-187 15v157l234 18v60h-191zM219 -11v63h-125v-63h125z" />
    <glyph glyph-name="uni2095" unicode="&#x2095;" 
d="M106 364h88l-32 -125h154l34 -90l-75 -222h-94l38 100l37 150h-122l-75 -250h-97q18 50 38.5 110.5t34.5 103.5t37 116t34 107z" />
    <glyph glyph-name="uni2096" unicode="&#x2096;" 
d="M106 364h88l-38 -150l-44 -112l194 137h85l-203 -159l100 -153h-97l-75 140l-63 -140h-91q18 50 38.5 110.5t34.5 103.5t37 116t34 107z" />
    <glyph glyph-name="uni2097" unicode="&#x2097;" 
d="M125 302v62h156v-53l-93 -269l34 -115h-222v62h81l100 313h-56z" />
    <glyph glyph-name="uni2098" unicode="&#x2098;" 
d="M-94 -73v19l100 293h341l34 -90l-75 -222h-94l38 100l38 150h-60l-75 -250h-97l38 100l37 150h-59l-75 -250h-91z" />
    <glyph glyph-name="uni209A" unicode="&#x209a;" 
d="M-55 -128q20 55 40 114t46.5 141t37.5 115l259 -18l-9 -207l-116 -87l-144 -3l-34 -94h-94zM219 36l37 141h-125l-37 -141v-47h125v47z" />
    <glyph glyph-name="peseta" unicode="&#x20a7;" 
d="M-72 99l178 547h225l72 -72l-59 -150l37 -154h57v-56l-126 -31v-100h63v-63h-147l-37 38l59 150h-94v62h125v54l-200 -41l-87 -263h-94zM281 486v97h-93l-63 -159v-60h91z" />
    <glyph glyph-name="afii57636" unicode="&#x20aa;" 
d="M328 99l188 547h46v-47l-165 -500l-100 -75l-241 -4q28 79 86 258l58 180h50v-53l-94 -269v-56zM-41 99l179 547h224l69 -69l-125 -369h-56v22l94 269v87l-166 -19l-184 -547h-63z" />
    <glyph glyph-name="Euro" unicode="&#x20ac;" 
d="M28 396l266 250h162l75 -76v-50h-87l-25 72l-166 -40l-69 -125h191v-63h-219v-62h191l-38 -63h-178l-31 -87l69 -69h109l38 63h106l-156 -126h-169l-78 141l15 78l-81 3l116 88z" />
    <glyph glyph-name="uni20AE" unicode="&#x20ae;" 
d="M125 583v63h406v-60l-172 -19l-18 -103l112 -28l-181 -87l150 -38l-166 -69l-75 -222h-87l37 150l-115 29l181 87l-150 38l165 68l66 191h-153z" />
    <glyph glyph-name="uni2102" unicode="&#x2102;" 
d="M134 536l94 110h228l69 -69l-31 -88h-56v97l-135 -19l-147 -434v-50h128l35 94h56v-72l-109 -81l-238 -4l-34 91zM88 111l137 413l-25 25l-134 -416z" />
    <glyph glyph-name="uni210E" unicode="&#x210e;" 
d="M-41 99l179 547h87l-44 -188h213l68 -69l-124 -369h-88v22l94 269v88l-197 -19l-122 -360h-94z" />
    <glyph glyph-name="uni210F" unicode="&#x210f;" 
d="M-31 20v19l156 466l-66 22l113 115l78 4v-63h159l-37 -63h-153v-62h206l69 -69l-125 -369h-88v22l94 269v88l-197 -19l-122 -360h-87z" />
    <glyph glyph-name="uni2115" unicode="&#x2115;" 
d="M-9 99l178 547h50l-13 -144l141 -200h25l109 344h50v-47l-193 -579h-63l41 104l-169 256l-122 -360h-63zM284 302l-65 122l-69 40l106 -162h28z" />
    <glyph glyph-name="afii61352" unicode="&#x2116;" 
d="M281 83v63h157v-63h-157zM312 177v62h157v-62h-157zM406 539l78 78l94 -21l-22 -122l-72 -47h-78v112zM-72 99l178 547h75l10 -219l6 -91l44 25l81 285h84v-47l-194 -579h-78l16 269l-44 75l-109 -344h-97z" />
    <glyph glyph-name="uni211A" unicode="&#x211a;" 
d="M134 536l94 110h228l69 -69l-159 -478l-57 -38l41 -103h-100v62h-222l-34 91zM438 502v81h-122l-25 -47l-141 -425l38 -37v75l118 -38zM88 111l137 413l-25 25l-134 -416z" />
    <glyph glyph-name="uni211D" unicode="&#x211d;" 
d="M-9 99l178 547h287l69 -69l-66 -197l-93 -110h-91l100 -153v-97h-87l-110 172l-59 -172h-157zM84 99l163 484h-31q-29 -78 -107 -311l-78 -233zM406 383l41 200h-135l-65 -172l-25 -78h106zM344 42v57l-163 187l144 -219z" />
    <glyph glyph-name="trademark" unicode="&#x2122;" 
d="M94 583v63h268l72 -72l97 81l38 -38l-75 -221h-91l38 124h-63l-37 -124h-91v28l62 159h-65l-66 -187h-87v28l62 159h-62z" />
    <glyph glyph-name="uni2124" unicode="&#x2124;" 
d="M141 286l50 78h65l-68 -84l37 -34l-163 -107v-56h282v-63h-375v35l90 215h69l-44 -78l57 54v40zM244 364l75 94h62l-75 -94h44l-75 -94h-63l76 94h-44zM156 583v63h382l-44 -172l-97 -110h-59l74 94h-46l112 125h-322z" />
    <glyph glyph-name="Ohm" unicode="&#x2126;" 
d="M103 536l94 110h259l69 -69l-119 -353l-100 -75l41 -129h-163l44 141l81 63l97 275v84h-140l-69 -47l-103 -303l37 -59l-37 -154h-156v63h100l-32 166z" />
    <glyph glyph-name="aleph" unicode="&#x2135;" 
d="M162 420l-37 226h94l6 -47l25 -125l12 -141h22l128 69l-34 244h91l3 -16l31 -225l-219 -150l35 -235h-100l-7 110l-28 187l-28 29l-103 -104l-6 -222l-94 19l9 216z" />
    <glyph glyph-name="arrowleft" unicode="&#x2190;" 
d="M22 346l244 206h46v-56l-140 -97l325 -3l-35 -94h-306v-60l63 -37l-35 -59h-46z" />
    <glyph glyph-name="arrowup" unicode="&#x2191;" 
d="M94 20v19l156 463v22l-138 -97l-65 3l250 216h75l128 -185l-66 -41l-81 110l-172 -510h-87z" />
    <glyph glyph-name="arrowright" unicode="&#x2192;" 
d="M312 505v47h60l125 -175l-47 -75l-212 -156l-66 3l175 153h-322l28 78l319 31z" />
    <glyph glyph-name="arrowdown" unicode="&#x2193;" 
d="M181 286l113 360h81v-50l-153 -457l159 107l35 -35l-150 -125l-147 -78l-119 153v78h59l63 -109z" />
    <glyph glyph-name="arrowboth" unicode="&#x2194;" 
d="M-9 346l243 206h47v-56l-140 -97l268 -3l-71 131l43 40l144 -181l-28 -78l-247 -172l-34 34l168 132h-259v-60l63 -37l-35 -59h-47z" />
    <glyph glyph-name="arrowupdn" unicode="&#x2195;" 
d="M47 430l250 216h75l128 -185l-66 -41l-81 110l-131 -391l159 107l35 -35l-150 -125l-147 -78l-119 153v78h59l63 -109q34 94 81 231l47 138v25l-138 -97z" />
    <glyph glyph-name="uni21A4" unicode="&#x21a4;" 
d="M22 346l244 206h46v-56l-140 -97l266 -3l37 156h56l-6 -78l-106 -310l-75 -25l62 163h-250v-60l63 -37l-35 -59h-46z" />
    <glyph glyph-name="uni21A6" unicode="&#x21a6;" 
d="M-25 146l131 406h56l-37 -156h253l-72 131l44 40l144 -181l-28 -78l-247 -172l-35 34l169 132h-259l-63 -156h-56z" />
    <glyph glyph-name="arrowupdnbse" unicode="&#x21a8;" 
d="M47 430l250 216h75l128 -185l-66 -41l-81 110l-103 -303v-22l138 97l65 -3l-250 -216h141v-63h-406v63h190l-128 184l66 41l81 -109l103 303v22l-138 -97z" />
    <glyph glyph-name="uni21B2" unicode="&#x21b2;" 
d="M366 270l112 376h84v-44l-137 -425h-331l75 -122l-47 -50l-122 156v94l253 178l38 -34l-150 -125z" />
    <glyph glyph-name="uni21B3" unicode="&#x21b3;" 
d="M0 220l138 426h81v-54l-94 -268v-54h219l-75 122l47 50l122 -156v-94l-254 -178l-37 35l150 125l-297 3v43z" />
    <glyph glyph-name="carriagereturn" unicode="&#x21b5;" 
d="M366 270l81 282h84v-41l-106 -334h-331l75 -122l-47 -50l-122 156v94l253 178l38 -34l-150 -125z" />
    <glyph glyph-name="uni21BB" unicode="&#x21bb;" 
d="M94 489v63h250v-47l-38 -141h-87v66l-66 -41l-53 -134l62 -78h110l97 109l43 172h50l32 -84l-91 -188l-156 -72h-138l-71 47l-13 94l6 97l128 137h-65z" />
    <glyph glyph-name="uni21CB" unicode="&#x21cb;" 
d="M-31 261l40 41h457l-32 -85l-184 -137v90l78 32l-359 6v53zM31 442l203 141h19l-69 -125h316v-94h-469v78z" />
    <glyph glyph-name="uni21CC" unicode="&#x21cc;" 
d="M-38 236l41 66h463l-35 -94h-334l-19 -141zM372 520l40 66l85 -112l3 -110h-469v94h378z" />
    <glyph glyph-name="arrowdblleft" unicode="&#x21d0;" 
d="M109 420l125 97l47 3v-62h219v-94h-344v-62h310l-35 -94h-240l-38 -62h-47l-112 193z" />
    <glyph glyph-name="arrowdblup" unicode="&#x21d1;" 
d="M188 20v19l153 453l-72 -22l-150 -450h-88v22l125 366l-65 41l237 193l44 4l131 -188l-94 -38l-134 -400h-87z" />
    <glyph glyph-name="arrowdblright" unicode="&#x21d2;" 
d="M312 458v62h57l100 -153v-56l-238 -165h-47l38 62h-260l29 78l321 19v59h-281v94h281z" />
    <glyph glyph-name="arrowdbldown" unicode="&#x21d3;" 
d="M112 264l116 382h84v-54l-124 -362v-53h50l150 469h81v-54l-122 -353h59v-47l-259 -181l-116 150v72z" />
    <glyph glyph-name="arrowdblboth" unicode="&#x21d4;" 
d="M109 420l125 97l41 3l31 -78l69 94l125 -156v-69l-238 -165h-46l37 62h-62l-38 -62h-47l-112 193zM344 302v62h-188v-62h188z" />
    <glyph glyph-name="uni21D5" unicode="&#x21d5;" 
d="M91 449l237 193l44 4l131 -188l-94 -38l-62 -181h59v-47l-259 -181l-116 150v78h63l65 166zM238 177l100 312h-57l-62 -159l-38 -153h57z" />
    <glyph glyph-name="universal" unicode="&#x2200;" 
d="M119 567l6 79h97l-10 -110l7 -78h181l84 188h78v-66l-359 -560h-100zM306 270l32 126h-122l-22 -79l-28 -171h59l31 124h50z" />
    <glyph glyph-name="existential" unicode="&#x2203;" 
d="M125 583v63h406v-47l-193 -579h-400v63h334l66 219h-307v62h335l65 219h-306z" />
    <glyph glyph-name="uni2204" unicode="&#x2204;" 
d="M441 646l34 93h87v-47l-224 -672h-304l-93 -93h-66v62h63v60l224 237l-131 19v59h188v47l159 172h-253v63h316zM369 364l34 138l-15 15l-76 -121v-32h57zM272 83l66 219h-76l-124 -144l-47 -75h181z" />
    <glyph glyph-name="emptyset" unicode="&#x2205;" 
d="M375 520l78 126h78v-57l-90 -72l34 -87l-75 -222l-116 -62h-146l-88 -126h-81v35l97 100l-32 81l72 206l97 75zM281 420v38h-87l-38 -141v-56zM372 396h-16l-137 -157v-31h87z" />
    <glyph glyph-name="increment" unicode="&#x2206;" 
d="M281 552v94h94v-526l-37 -100h-404l44 141l53 22v87h63v94h62v94h63v94h62zM281 83v375h-31v-94h-62v-94h-63v-93h-63v-94h219z" />
    <glyph glyph-name="gradient" unicode="&#x2207;" 
d="M116 567l9 79h406v-76l-359 -550h-69zM266 308q68 103 178 275h-225l-10 -16l-12 -362z" />
    <glyph glyph-name="element" unicode="&#x2208;" 
d="M125 536l172 106l234 4v-54l-284 -34l-88 -116l-3 -78h282v-59l-329 -19l-21 -150l84 -53h172v-63h-247l-103 104l34 206z" />
    <glyph glyph-name="notelement" unicode="&#x2209;" 
d="M472 646l34 93h88v-53l-250 -275v-47h94v-62h-144l-138 -156v-63h188v-69l-278 22l-78 -109h-82v31l100 119l13 240l106 222l181 107h166zM250 411l159 172l-81 -6l-94 -35l-75 -100l-3 -78h94v47zM112 180l76 122h-66l-34 -97z" />
    <glyph glyph-name="uni220A" unicode="&#x220a;" 
d="M31 370l181 182h288v-63h-222l-122 -65v-60h282v-62h-304l-40 -41l68 -84h213v-63h-266l-71 47l-13 94z" />
    <glyph glyph-name="suchthat" unicode="&#x220b;" 
d="M125 583v63h237l110 -79l9 -125l-84 -246l-100 -104l-138 -72h-221v63h240l122 109l41 110h-310v62h338l28 116l-56 103h-216z" />
    <glyph glyph-name="uni220C" unicode="&#x220c;" 
d="M153 536l-28 203h87l32 -84l194 -41l53 -140l-94 -282l-106 -112l28 -153h-100v109l-281 -22v69h253l-16 219h-144v62h157zM397 480l-56 103h-94l28 -172l6 -47h88zM303 170l35 132h-54l-31 -50z" />
    <glyph glyph-name="uni220D" unicode="&#x220d;" 
d="M94 489v63h265l91 -56l16 -113l-94 -197l-156 -72h-247v63h272l112 125h-322v62h344v25l-37 100h-244z" />
    <glyph glyph-name="minus" unicode="&#x2212;" 
d="M31 302v62h407v-62h-407z" />
    <glyph glyph-name="uni2213" unicode="&#x2213;" 
d="M156 239l63 157h93l-62 -157h156v-62h-181l-37 -157h-94l37 157h-131v62h156zM94 458v62h406v-62h-406z" />
    <glyph glyph-name="uni2214" unicode="&#x2214;" 
d="M156 239l63 157h93l-62 -157h156v-62h-181l-37 -157h-94l37 157h-131v62h156zM250 542l41 41h78l-31 -125h-88v84z" />
    <glyph glyph-name="uni2215" unicode="&#x2215;" 
d="M78 233l406 316l47 3v-50l-534 -394l-41 38z" />
    <glyph glyph-name="uni2216" unicode="&#x2216;" 
d="M94 508v44h59l253 -372v-66h-56z" />
    <glyph glyph-name="bulletoperator" unicode="&#x2219;" 
d="M156 352l78 78l125 -19l-21 -125l-72 -47h-110v113z" />
    <glyph glyph-name="radical" unicode="&#x221a;" 
d="M244 105l206 634h144v-40l-88 -69l-200 -610h-140l-154 235l22 109h91v-109z" />
    <glyph glyph-name="infinity" unicode="&#x221e;" 
d="M34 411l97 75h331l35 -90l-53 -144l-85 -69h-312l-75 63zM181 286l22 119l-72 25l-65 -191h43zM406 399v28h-50l-75 -75v-113h63z" />
    <glyph glyph-name="orthogonal" unicode="&#x221f;" 
d="M-28 146l128 374h88v-21l-94 -269v-22h315l-37 -62h-400z" />
    <glyph glyph-name="uni2225" unicode="&#x2225;" 
d="M209 99l179 547h81v-47l-194 -579h-94zM53 99l178 547h81v-47l-193 -579h-94z" />
    <glyph glyph-name="logicaland" unicode="&#x2227;" 
d="M109 270l125 188h72l28 -78l13 -360h-97v316l-94 -94v-65h-62v-66l-91 -91h-65v63h62v94h62v93h47z" />
    <glyph glyph-name="logicalor" unicode="&#x2228;" 
d="M94 20l-25 438h87l6 -78l4 -231l46 28l179 281h78v-34l-181 -263l-122 -141h-72z" />
    <glyph glyph-name="intersection" unicode="&#x2229;" 
d="M109 446l125 71l125 3l82 -53l9 -118l-112 -329h-88v22l119 347l-69 69h-72l-94 -109l-109 -329h-94l35 88l72 241z" />
    <glyph glyph-name="union" unicode="&#x222a;" 
d="M-19 161l119 359h88v-21l-119 -347l69 -69h71l94 109l109 328h88v-21l-94 -275l-72 -138l-178 -72l-153 38z" />
    <glyph glyph-name="approxequal" unicode="&#x2248;" 
d="M0 264l78 32l138 6l37 -63l119 63h69l-69 -125h-125l-119 62l-37 -62h-91v87zM62 452l79 31l137 6l38 -62l118 62h69l-69 -125h-125l-118 63l-38 -63h-91v88z" />
    <glyph glyph-name="notequal" unicode="&#x2260;" 
d="M403 458l38 62h84l-31 -124h-113l-147 -122l204 -4v-56l-329 -28l-156 -40l75 34l-34 90h137l160 126h-229v62h341z" />
    <glyph glyph-name="equivalence" unicode="&#x2261;" 
d="M-31 114v63h406v-63h-406zM31 302v62h407v-62h-407zM94 489v63h406v-63h-406z" />
    <glyph glyph-name="lessequal" unicode="&#x2264;" 
d="M-31 20v63h375v-63h-375zM141 420l281 222l78 4v-29l-281 -200v-68l125 -157v-46h-78l-144 221z" />
    <glyph glyph-name="greaterequal" unicode="&#x2265;" 
d="M-31 20v63h375v-63h-375zM353 392l-165 254h93l166 -250q-25 -19 -156 -121l-132 -101l-128 -25v21l203 132z" />
    <glyph glyph-name="uni226A" unicode="&#x226a;" 
d="M239 378q58 42 308 233l47 3v-47l-203 -140l-119 -91l166 -250l-69 -44q-57 88 -122 191l-66 103zM52 378q57 43 307 233l47 3v-47l-203 -140l-119 -91l166 -250l-69 -44q-56 88 -122 191l-65 103z" />
    <glyph glyph-name="uni226B" unicode="&#x226b;" 
d="M281 536v78h53l166 -250v-50l-316 -234l-100 -38l44 69l278 200v69zM94 536v78h53l165 -250v-50l-315 -234l-100 -38l44 69l278 200v69z" />
    <glyph glyph-name="propersubset" unicode="&#x2282;" 
d="M31 370l181 182h319v-63h-253l-116 -62l-62 -181l69 -69h237v-63h-297l-71 47l-13 94z" />
    <glyph glyph-name="propersuperset" unicode="&#x2283;" 
d="M94 489v63h297l90 -56l16 -113l-94 -197l-156 -72h-278v63h303l94 109l37 110l-34 93h-275z" />
    <glyph glyph-name="reflexsubset" unicode="&#x2286;" 
d="M-66 52l38 62h437l-37 -62h-438zM128 542l138 69l296 3v-62h-303l-93 -110l-38 -109l34 -94h276v-62h-297l-91 56l-16 113z" />
    <glyph glyph-name="reflexsuperset" unicode="&#x2287;" 
d="M-66 52l38 62h437l-37 -62h-438zM125 552v62h297l72 -47l12 -93l-6 -116l-181 -181h-319v62h253l116 63l62 181l-69 69h-237z" />
    <glyph glyph-name="perpendicular" unicode="&#x22a5;" 
d="M112 83l141 437h91v-21l-125 -363v-53h125v-63h-406v63h174z" />
    <glyph glyph-name="uni22C2" unicode="&#x22c2;" 
d="M250 20v19l153 453l-34 91h-60l-115 -63l-169 -500h-94q28 79 99 290l70 210l159 126h119l116 -63l-16 -141l-140 -422h-88z" />
    <glyph glyph-name="uni22C3" unicode="&#x22c3;" 
d="M-19 161l157 485h81v-50l-150 -444l69 -69h71l97 109l144 454h81v-54l-125 -368l-72 -138l-178 -72l-153 38z" />
    <glyph glyph-name="uni2300" unicode="&#x2300;" 
d="M375 520l78 126h78v-57l-90 -72l34 -87l-75 -222l-116 -62h-146l-88 -126h-81v35l97 100l-32 81l72 206l97 75zM281 420v38h-87l-38 -141v-56zM372 396h-16l-137 -157v-31h87z" />
    <glyph glyph-name="house" unicode="&#x2302;" 
d="M16 333l250 184l72 3l131 -209l-100 -291h-463l3 47zM303 83l63 209l-100 135l-200 -172l-41 -172h278z" />
    <glyph glyph-name="uni2308" unicode="&#x2308;" 
d="M53 99l178 547h238v-60l-166 -19l-184 -547h-94z" />
    <glyph glyph-name="uni2309" unicode="&#x2309;" 
d="M188 20v19l184 544h-153v63h250v-47l-194 -579h-87z" />
    <glyph glyph-name="uni230A" unicode="&#x230a;" 
d="M53 99l178 547h81v-50l-156 -463v-50h125v-63h-256z" />
    <glyph glyph-name="uni230B" unicode="&#x230b;" 
d="M206 83l182 563h81v-47l-194 -579h-244v63h175z" />
    <glyph glyph-name="revlogicalnot" unicode="&#x2310;" 
d="M31 308l38 150h400v-62h-316l-65 -188h-94z" />
    <glyph glyph-name="uni2319" unicode="&#x2319;" 
d="M31 308l38 150h93l-43 -188h287v-62h-412z" />
    <glyph glyph-name="integraltp" unicode="&#x2320;" 
d="M31 -167v19l244 728l44 69l197 -19v-94l-116 -22l47 78l-85 -28l-243 -731h-88z" />
    <glyph glyph-name="integralbt" unicode="&#x2321;" 
d="M112 83l244 750h82v-47l-229 -687l-59 -79h-172l-37 38l34 88h87v-63h50z" />
    <glyph glyph-name="uni239B" unicode="&#x239b;" 
d="M203 564l272 269h94l-272 -269l-94 -184l-37 -31l-172 -516h-94q28 78 100 297l72 219l37 31z" />
    <glyph glyph-name="uni239C" unicode="&#x239c;" 
d="M-72 -89l303 922h81v-47l-318 -953h-94z" />
    <glyph glyph-name="uni239D" unicode="&#x239d;" 
d="M81 380l150 453h81v-50l-150 -441l4 -368l90 -141h-94l-93 144z" />
    <glyph glyph-name="uni239E" unicode="&#x239e;" 
d="M156 -167v19l160 465l6 357l-103 159h93l104 -159l-4 -338l-168 -503h-88z" />
    <glyph glyph-name="uni239F" unicode="&#x239f;" 
d="M178 -89l303 922h81v-47l-318 -953h-94z" />
    <glyph glyph-name="uni23A0" unicode="&#x23a0;" 
d="M369 474l112 359h81v-50l-150 -434l-84 -172h-47v-75l-284 -269h-94l285 269v75h46z" />
    <glyph glyph-name="uni23A1" unicode="&#x23a1;" 
d="M-72 -89l303 922h331v-59l-259 -19l-309 -922h-94z" />
    <glyph glyph-name="uni23A2" unicode="&#x23a2;" 
d="M-72 -89l303 922h81v-47l-318 -953h-94z" />
    <glyph glyph-name="uni23A3" unicode="&#x23a3;" 
d="M-72 -89l303 922h81v-50l-281 -837v-50h219v-63h-350z" />
    <glyph glyph-name="uni23A4" unicode="&#x23a4;" 
d="M156 -167v19l310 918h-247v63h343v-47l-318 -953h-88z" />
    <glyph glyph-name="uni23A5" unicode="&#x23a5;" 
d="M178 -89l303 922h81v-47l-318 -953h-94z" />
    <glyph glyph-name="uni23A6" unicode="&#x23a6;" 
d="M175 -104l306 937h81v-47l-318 -953h-338v63h269z" />
    <glyph glyph-name="uni23A7" unicode="&#x23a7;" 
d="M288 708l159 125h209v-63h-159l-116 -62l-293 -875h-94q28 78 161 477z" />
    <glyph glyph-name="uni23A8" unicode="&#x23a8;" 
d="M212 474l113 359h81v-50l-131 -394l-91 -31l38 -119l-134 -406h-88v22l122 356l-34 91h-88v62h116z" />
    <glyph glyph-name="uni23A9" unicode="&#x23a9;" 
d="M53 5l272 828h81v-50l-275 -819l69 -68h144v-63h-203l-82 53z" />
    <glyph glyph-name="uni23AB" unicode="&#x23ab;" 
d="M94 -167v19l278 828l-34 90h-182v63h191l115 -63l-15 -140l-266 -797h-87z" />
    <glyph glyph-name="uni23AC" unicode="&#x23ac;" 
d="M284 420l135 413h81v-53l-125 -360l34 -56h91v-53l-175 -37l-141 -441h-96q28 78 84 250l56 172l94 69z" />
    <glyph glyph-name="uni23AD" unicode="&#x23ad;" 
d="M150 5l269 828h81v-50l-250 -747l-69 -134l-153 -69h-184v63h209z" />
    <glyph glyph-name="uni23AE" unicode="&#x23ae;" 
d="M53 -89l303 922h82v-47l-319 -953h-94z" />
    <glyph glyph-name="uni23AF" unicode="&#x23af;" 
d="M0 355l41 41h487l-34 -94h-494v53z" />
    <glyph glyph-name="uni23BA" unicode="&#x23ba;" 
d="M156 739v94h500v-94h-500z" />
    <glyph glyph-name="uni23BB" unicode="&#x23bb;" 
d="M62 542l41 41h488l-35 -94h-494v53z" />
    <glyph glyph-name="uni23BC" unicode="&#x23bc;" 
d="M-62 83v94h500v-94h-500z" />
    <glyph glyph-name="uni23BD" unicode="&#x23bd;" 
d="M-156 -114l40 41h488l-34 -94h-494v53z" />
    <glyph glyph-name="uni23D0" unicode="&#x23d0;" 
d="M53 -89l303 922h82v-47l-319 -953h-94z" />
    <glyph glyph-name="uni2409" unicode="&#x2409;" 
d="M153 239l38 63h281l-38 -63h-84l-75 -219h-94l28 79l44 140h-100zM62 405l72 241h85v-94h93v94h94v-41l-72 -241h-90l31 125h-94l-31 -125h-88v41z" />
    <glyph glyph-name="uni240A" unicode="&#x240a;" 
d="M134 161l54 141h284l-38 -63h-184v-62h94v-63h-128l-35 -94h-90zM62 405l72 241h85v-60l-63 -159h188v-63h-282v41z" />
    <glyph glyph-name="uni240B" unicode="&#x240b;" 
d="M153 239l38 63h281l-38 -63h-84l-75 -219h-94l28 79l44 140h-100zM88 455l43 191h91l-41 -219l97 37l41 182h93l-40 -166l-138 -113l-72 -3z" />
    <glyph glyph-name="uni240C" unicode="&#x240c;" 
d="M134 161l54 141h284l-38 -63h-184v-62h94v-63h-128l-35 -94h-90zM62 405l72 241h272v-63h-184l-38 -63h128v-62h-156v-94h-94v41z" />
    <glyph glyph-name="uni240D" unicode="&#x240d;" 
d="M134 161l54 141h250v-122l-126 -38l66 -122h-94l-62 110l-41 -110h-90zM344 177v62h-94v-62h94zM59 417l94 232l231 -19l28 -78l-200 15l-56 -147l194 44l-28 -84l-206 -19z" />
    <glyph glyph-name="uni2424" unicode="&#x2424;" 
d="M134 161l54 141h93l-62 -160v-59h156v-63h-284zM62 405l72 241h75l69 -141l41 141h87v-41l-72 -241h-75l-68 141l-41 -141h-88v41z" />
    <glyph glyph-name="SF100000" unicode="&#x2500;" 
d="M0 355l41 41h487l-34 -94h-494v53z" />
    <glyph glyph-name="uni2501" unicode="&#x2501;" 
d="M0 327l38 100h500l-38 -100v-57h-500v57z" />
    <glyph glyph-name="SF110000" unicode="&#x2502;" 
d="M53 -89l303 922h82v-47l-319 -953h-94z" />
    <glyph glyph-name="uni2503" unicode="&#x2503;" 
d="M22 -89l303 922h144v-47l-319 -953h-156z" />
    <glyph glyph-name="uni2508" unicode="&#x2508;" 
d="M344 355l40 41h113l-35 -94h-118v53zM156 355l41 41h144l-35 -94h-150v53zM0 355l41 41h112l-34 -94h-119v53z" />
    <glyph glyph-name="uni2509" unicode="&#x2509;" 
d="M344 327l37 100h125l-37 -100v-57h-125v57zM156 327l38 100h156l-38 -100v-57h-156v57zM0 327l38 100h124l-37 -100v-57h-125v57z" />
    <glyph glyph-name="uni250A" unicode="&#x250a;" 
d="M62 -58l38 141h94l-38 -141v-46h-94v46zM128 146l66 187h87v-28l-62 -159h-91zM219 424l62 159h91l-66 -187h-87v28zM312 692l38 141h94l-38 -141v-46h-94v46z" />
    <glyph glyph-name="uni250B" unicode="&#x250b;" 
d="M31 -58l38 141h150v-47l-38 -140h-150v46zM97 146l65 187h150v-28l-62 -159h-153zM188 424l62 159h153l-65 -187h-150v28zM281 692l38 141h150v-47l-38 -140h-150v46z" />
    <glyph glyph-name="SF010000" unicode="&#x250c;" 
d="M31 -167v19l157 465l28 79h312l-34 -91l-222 -19l-153 -453h-88z" />
    <glyph glyph-name="uni250D" unicode="&#x250d;" 
d="M225 427h313l-38 -100v-57h-238l-140 -437h-97q32 88 63.5 181t76 229.5t60.5 183.5z" />
    <glyph glyph-name="uni250E" unicode="&#x250e;" 
d="M0 -167v19l156 465l28 79h344l-34 -91l-191 -19l-153 -453h-150z" />
    <glyph glyph-name="uni250F" unicode="&#x250f;" 
d="M194 427h344l-38 -100v-57h-206l-141 -437h-159q31 88 63 181t76.5 229.5t60.5 183.5z" />
    <glyph glyph-name="SF030000" unicode="&#x2510;" 
d="M31 -167v19l153 450h-184v53l41 41h268l-190 -563h-88z" />
    <glyph glyph-name="uni2511" unicode="&#x2511;" 
d="M0 327l38 100h281q-28 -78 -114 -336l-86 -258h-88v22l125 362v53h-156v57z" />
    <glyph glyph-name="uni2512" unicode="&#x2512;" 
d="M0 -167v19l153 450h-153v53l41 41h300l-191 -563h-150z" />
    <glyph glyph-name="uni2513" unicode="&#x2513;" 
d="M0 327l38 100h312q-28 -78 -114 -336l-86 -258h-150v22l125 362v53h-125v57z" />
    <glyph glyph-name="SF020000" unicode="&#x2514;" 
d="M356 833h82v-53l-126 -363v-21h216l-34 -94h-313q28 78 55.5 160t67.5 208t52 163z" />
    <glyph glyph-name="uni2515" unicode="&#x2515;" 
d="M188 314l168 519h82v-53l-122 -353h222l-38 -100v-57h-312v44z" />
    <glyph glyph-name="uni2516" unicode="&#x2516;" 
d="M325 833h144v-53l-125 -363v-21h184l-34 -94h-344q28 78 55.5 160t67.5 208t52 163z" />
    <glyph glyph-name="uni2517" unicode="&#x2517;" 
d="M156 314l169 519h144v-53l-122 -353h191l-38 -100v-57h-344v44z" />
    <glyph glyph-name="SF040000" unicode="&#x2518;" 
d="M216 399l140 434h82v-47l-163 -484h-281l28 78z" />
    <glyph glyph-name="uni2519" unicode="&#x2519;" 
d="M231 442l125 391h82v-44l-169 -519h-269v79l47 71z" />
    <glyph glyph-name="uni251A" unicode="&#x251a;" 
d="M184 399l141 434h144v-47l-163 -484h-312l28 78z" />
    <glyph glyph-name="uni251B" unicode="&#x251b;" 
d="M200 442l125 391h144v-44l-169 -519h-300v79l47 71z" />
    <glyph glyph-name="SF080000" unicode="&#x251c;" 
d="M53 -89l303 922h82v-53l-126 -363v-21h216l-34 -91l-222 -19l-153 -453h-94z" />
    <glyph glyph-name="uni251D" unicode="&#x251d;" 
d="M53 -89l303 922h82v-53l-122 -353h222l-38 -100v-57h-238l-140 -437h-97z" />
    <glyph glyph-name="uni251E" unicode="&#x251e;" 
d="M178 380l147 453h144v-53l-125 -363v-21h184l-34 -91l-222 -19l-153 -453h-88v22l128 369z" />
    <glyph glyph-name="uni251F" unicode="&#x251f;" 
d="M244 474l112 359h82v-53l-126 -363v-21h216l-34 -91l-191 -19l-153 -453h-156q28 78 100 297l72 219z" />
    <glyph glyph-name="uni2520" unicode="&#x2520;" 
d="M22 -89l303 922h144v-53l-125 -363v-21h184l-34 -91l-191 -19l-153 -453h-156z" />
    <glyph glyph-name="uni2521" unicode="&#x2521;" 
d="M108 99q54 187 217 734h144v-53l-122 -353h191l-38 -100v-57h-238l-140 -437h-97l28 78z" />
    <glyph glyph-name="uni2522" unicode="&#x2522;" 
d="M0 -167v19l188 550l56 72l112 359h82v-53l-122 -353h222l-38 -100v-57h-206l-141 -437h-153z" />
    <glyph glyph-name="uni2523" unicode="&#x2523;" 
d="M22 -89l303 922h144v-53l-122 -353h191l-38 -100v-57h-206l-141 -437h-159z" />
    <glyph glyph-name="SF090000" unicode="&#x2524;" 
d="M31 -167v19l153 450h-190l28 78l194 19l140 434h82v-47l-319 -953h-88z" />
    <glyph glyph-name="uni2525" unicode="&#x2525;" 
d="M231 442l125 391h82v-47l-319 -953h-88v22l125 362v53h-156v79l47 71z" />
    <glyph glyph-name="uni2526" unicode="&#x2526;" 
d="M31 -167v19l153 450h-190l28 78l162 19l141 434h144v-50l-157 -459l-53 -69l-140 -422h-88z" />
    <glyph glyph-name="uni2527" unicode="&#x2527;" 
d="M0 -167v19l153 450h-159l28 78l194 19l140 434h82v-53l-97 -275l-25 -175l-166 -497h-150z" />
    <glyph glyph-name="uni2528" unicode="&#x2528;" 
d="M0 -167v19l153 450h-159l28 78l162 19l141 434h144v-47l-319 -953h-150z" />
    <glyph glyph-name="uni2529" unicode="&#x2529;" 
d="M200 442l125 391h144v-47l-166 -500l-44 -31l-140 -422h-88v22l125 362v53h-156v79l47 71z" />
    <glyph glyph-name="uni252A" unicode="&#x252a;" 
d="M231 442l125 391h82v-53l-97 -275l-19 -156l-172 -516h-150v22l125 362v53h-125v79l47 71z" />
    <glyph glyph-name="uni252B" unicode="&#x252b;" 
d="M200 442l125 391h144v-47l-319 -953h-150v22l125 362v53h-125v79l47 71z" />
    <glyph glyph-name="SF060000" unicode="&#x252c;" 
d="M31 -167v19l153 450h-184v53l41 41h487l-34 -91l-222 -19l-153 -453h-88z" />
    <glyph glyph-name="uni252D" unicode="&#x252d;" 
d="M0 327l38 100h165l322 -41l-31 -81l-222 -19l-153 -453h-88v22l125 362v53h-156v57z" />
    <glyph glyph-name="uni252E" unicode="&#x252e;" 
d="M31 -167v19l153 450h-190l28 78l212 37l304 10l-38 -100v-57h-238l-140 -437h-91z" />
    <glyph glyph-name="uni252F" unicode="&#x252f;" 
d="M0 327l38 100h500l-38 -100v-57h-238l-140 -437h-91v22l125 362v53h-156v57z" />
    <glyph glyph-name="uni2530" unicode="&#x2530;" 
d="M0 -167v19l153 450h-153v53l41 41h487l-34 -91l-191 -19l-153 -453h-150z" />
    <glyph glyph-name="uni2531" unicode="&#x2531;" 
d="M0 327l38 100h203l284 -41l-31 -81l-191 -19l-153 -453h-150v22l125 362v53h-125v57z" />
    <glyph glyph-name="uni2532" unicode="&#x2532;" 
d="M0 -167v19l153 450h-159l28 78l181 40l335 7l-38 -100v-57h-206l-141 -437h-153z" />
    <glyph glyph-name="uni2533" unicode="&#x2533;" 
d="M0 327l38 100h500l-38 -100v-57h-206l-141 -437h-153v22l125 362v53h-125v57z" />
    <glyph glyph-name="SF070000" unicode="&#x2534;" 
d="M216 399l140 434h82v-53l-126 -363v-21h216l-34 -94h-500l28 78z" />
    <glyph glyph-name="uni2535" unicode="&#x2535;" 
d="M231 442l125 391h82v-53l-126 -363v-21h216l-34 -88l-466 -44l-34 32l40 128z" />
    <glyph glyph-name="uni2536" unicode="&#x2536;" 
d="M216 396l140 437h82v-53l-122 -353h222l-38 -100v-66l-478 41l-28 28l40 66h182z" />
    <glyph glyph-name="uni2537" unicode="&#x2537;" 
d="M231 442l125 391h82v-53l-122 -353h222l-38 -100v-57h-500v79l47 71z" />
    <glyph glyph-name="uni2538" unicode="&#x2538;" 
d="M184 399l141 434h144v-53l-125 -363v-21h184l-34 -94h-500l28 78z" />
    <glyph glyph-name="uni2539" unicode="&#x2539;" 
d="M344 417v-18l184 -19l-47 -78l-481 -41v88l47 71l153 22l125 391h144v-53z" />
    <glyph glyph-name="uni253A" unicode="&#x253a;" 
d="M184 399l141 434h144v-53l-122 -353h191l-38 -100v-57h-266l-237 41l25 69z" />
    <glyph glyph-name="uni253B" unicode="&#x253b;" 
d="M200 442l125 391h144v-53l-122 -353h191l-38 -100v-57h-500v79l47 71z" />
    <glyph glyph-name="SF050000" unicode="&#x253c;" 
d="M31 -167v19l153 450h-190l28 78l194 19l140 434h82v-53l-126 -363v-21h216l-34 -91l-222 -19l-153 -453h-88z" />
    <glyph glyph-name="uni253D" unicode="&#x253d;" 
d="M231 442l125 391h82v-53l-126 -363v-21h216l-34 -91l-222 -19l-153 -453h-88v22l125 362v53h-156v79l47 71z" />
    <glyph glyph-name="uni253E" unicode="&#x253e;" 
d="M31 -167v19l153 450h-190l28 78l194 19l140 434h82v-53l-122 -353h222l-38 -100v-57h-238l-140 -437h-91z" />
    <glyph glyph-name="uni253F" unicode="&#x253f;" 
d="M231 442l125 391h82v-53l-122 -353h222l-38 -100v-57h-238l-140 -437h-91v22l125 362v53h-156v79l47 71z" />
    <glyph glyph-name="uni2540" unicode="&#x2540;" 
d="M31 -167v19l153 450h-190l28 78l162 19l141 434h144v-53l-125 -363v-21h184l-34 -91l-222 -19l-153 -453h-88z" />
    <glyph glyph-name="uni2541" unicode="&#x2541;" 
d="M0 -167v19l153 450h-159l28 78l194 19l140 434h82v-53l-126 -363v-21h216l-34 -91l-191 -19l-153 -453h-150z" />
    <glyph glyph-name="uni2542" unicode="&#x2542;" 
d="M0 -167v19l153 450h-159l28 78l162 19l141 434h144v-53l-125 -363v-21h184l-34 -91l-191 -19l-153 -453h-150z" />
    <glyph glyph-name="uni2543" unicode="&#x2543;" 
d="M200 442l125 391h144v-53l-125 -363v-21h184l-34 -91l-222 -19l-153 -453h-88v22l125 362v53h-156v79l47 71z" />
    <glyph glyph-name="uni2544" unicode="&#x2544;" 
d="M31 -167v19l153 450h-190l28 78l162 19l141 434h144v-53l-122 -353h191l-38 -100v-57h-238l-140 -437h-91z" />
    <glyph glyph-name="uni2545" unicode="&#x2545;" 
d="M231 442l125 391h82v-53l-126 -363v-21h216l-34 -91l-191 -19l-153 -453h-150v22l125 362v53h-125v79l47 71z" />
    <glyph glyph-name="uni2546" unicode="&#x2546;" 
d="M0 -167v19l153 450h-159l28 78l194 19l140 434h82v-53l-122 -353h222l-38 -100v-57h-206l-141 -437h-153z" />
    <glyph glyph-name="uni2547" unicode="&#x2547;" 
d="M200 442l125 391h144v-53l-122 -353h191l-38 -100v-57h-238l-140 -437h-91v22l125 362v53h-156v79l47 71z" />
    <glyph glyph-name="uni2548" unicode="&#x2548;" 
d="M231 442l125 391h82v-53l-122 -353h222l-38 -100v-57h-206l-141 -437h-153v22l125 362v53h-125v79l47 71z" />
    <glyph glyph-name="uni2549" unicode="&#x2549;" 
d="M200 442l125 391h144v-53l-125 -363v-21h184l-34 -91l-191 -19l-153 -453h-150v22l125 362v53h-125v79l47 71z" />
    <glyph glyph-name="uni254A" unicode="&#x254a;" 
d="M0 -167v19l153 450h-159l28 78l162 19l141 434h144v-53l-122 -353h191l-38 -100v-57h-206l-141 -437h-153z" />
    <glyph glyph-name="uni254B" unicode="&#x254b;" 
d="M200 442l125 391h144v-53l-122 -353h191l-38 -100v-57h-206l-141 -437h-153v22l125 362v53h-125v79l47 71z" />
    <glyph glyph-name="SF430000" unicode="&#x2550;" 
d="M-31 261l40 41h488l-35 -94h-493v53zM31 364v94h500v-94h-500z" />
    <glyph glyph-name="SF240000" unicode="&#x2551;" 
d="M147 -89l303 922h81v-47l-319 -953h-93zM-9 -89l303 922h81v-47l-319 -953h-94z" />
    <glyph glyph-name="SF510000" unicode="&#x2552;" 
d="M53 -89l178 547h300v-94h-250v-62h216l-35 -91l-221 -19l-122 -359h-94z" />
    <glyph glyph-name="SF520000" unicode="&#x2553;" 
d="M-31 -167v19l156 465l28 79h375l-34 -91l-128 -19l-154 -453h-87v19l153 453l-72 -22l-150 -450h-87z" />
    <glyph glyph-name="SF390000" unicode="&#x2554;" 
d="M188 39q62 185 90 263h219l-35 -91l-128 -19l-122 -359h-87v22zM-9 -89l178 547h362v-94h-300l-172 -531h-97z" />
    <glyph glyph-name="SF220000" unicode="&#x2555;" 
d="M31 364v94h281v-47l-193 -578h-88v22l122 353h-191l29 78l197 19v59h-157z" />
    <glyph glyph-name="SF210000" unicode="&#x2556;" 
d="M-31 -167v19l153 450h-122v53l41 41h362l-191 -563h-87v19l153 453l-72 -22l-150 -450h-87z" />
    <glyph glyph-name="SF250000" unicode="&#x2557;" 
d="M-31 261l40 41h207l-160 -469h-87v22l122 353h-122v53zM125 -167v19l156 462v50h-250v94h375v-47l-194 -578h-87z" />
    <glyph glyph-name="SF500000" unicode="&#x2558;" 
d="M178 286l178 547h82v-53l-94 -269v-53h187v-94h-250v-62h216l-35 -94h-312z" />
    <glyph glyph-name="SF490000" unicode="&#x2559;" 
d="M294 833h81v-53l-125 -363v-21h59l141 437h81v-53l-125 -363v-21h122l-34 -94h-375q28 78 55 160t67.5 208t52.5 163z" />
    <glyph glyph-name="SF380000" unicode="&#x255a;" 
d="M312 408l138 425h81v-53l-93 -269v-53h93v-94h-219v44zM219 320v-18h278l-35 -94h-374q28 78 117 352l89 273h81v-50z" />
    <glyph glyph-name="SF280000" unicode="&#x255b;" 
d="M241 458l112 375h85v-47l-194 -578h-282l29 78l197 19v59h-157v94h210z" />
    <glyph glyph-name="SF270000" unicode="&#x255c;" 
d="M153 399l141 434h81v-53l-125 -363v-21h59l141 437h81v-47l-162 -484h-375l28 78z" />
    <glyph glyph-name="SF260000" unicode="&#x255d;" 
d="M278 305l172 528h81v-47l-193 -578h-376l29 78zM178 458l113 375h84v-44l-137 -425h-207v94h147z" />
    <glyph glyph-name="SF360000" unicode="&#x255e;" 
d="M53 -89l303 922h82v-53l-94 -269v-53h187v-94h-250v-62h216l-35 -91l-221 -19l-122 -359h-94z" />
    <glyph glyph-name="SF370000" unicode="&#x255f;" 
d="M147 -89l303 922h81v-53l-125 -363v-21h122l-34 -91l-128 -19l-154 -453h-93zM-9 -89l303 922h81v-47l-319 -953h-94z" />
    <glyph glyph-name="SF420000" unicode="&#x2560;" 
d="M188 39q62 185 90 263h219l-35 -91l-128 -19l-122 -359h-87v22zM312 408l138 425h81v-53l-93 -269v-53h93v-94h-219v44zM-9 -89l303 922h81v-47l-319 -953h-94z" />
    <glyph glyph-name="SF190000" unicode="&#x2561;" 
d="M241 458l112 375h85v-47l-319 -953h-88v22l122 353h-191l29 78l197 19v59h-157v94h210z" />
    <glyph glyph-name="SF200000" unicode="&#x2562;" 
d="M147 -89l303 922h81v-47l-319 -953h-93zM-31 -167v19l153 450h-128l28 78l131 19l141 434h81v-47l-319 -953h-87z" />
    <glyph glyph-name="SF230000" unicode="&#x2563;" 
d="M-31 261l40 41h207l-160 -469h-87v22l122 353h-122v53zM147 -89l303 922h81v-47l-319 -953h-93zM178 458l113 375h84v-44l-137 -425h-207v94h147z" />
    <glyph glyph-name="SF470000" unicode="&#x2564;" 
d="M-31 261l40 41h488l-35 -91l-221 -19l-122 -359h-88v22l122 353h-184v53zM31 364v94h500v-94h-500z" />
    <glyph glyph-name="SF480000" unicode="&#x2565;" 
d="M-31 -167v19l153 450h-122v53l41 41h487l-34 -91l-128 -19l-154 -453h-87v19l153 453l-72 -22l-150 -450h-87z" />
    <glyph glyph-name="SF410000" unicode="&#x2566;" 
d="M188 39q62 185 90 263h219l-35 -91l-128 -19l-122 -359h-87v22zM-31 261l40 41h207l-160 -469h-87v22l122 353h-122v53zM31 364v94h500v-94h-500z" />
    <glyph glyph-name="SF450000" unicode="&#x2567;" 
d="M-31 261l40 41h488l-35 -94h-493v53zM241 458l112 375h85v-53l-94 -269v-53h187v-94h-500v94h210z" />
    <glyph glyph-name="SF460000" unicode="&#x2568;" 
d="M153 399l141 434h81v-53l-125 -363v-21h59l141 437h81v-53l-125 -363v-21h122l-34 -94h-500l28 78z" />
    <glyph glyph-name="SF400000" unicode="&#x2569;" 
d="M-31 261l40 41h488l-35 -94h-493v53zM312 408l138 425h81v-53l-93 -269v-53h93v-94h-219v44zM178 458l113 375h84v-44l-137 -425h-207v94h147z" />
    <glyph glyph-name="SF540000" unicode="&#x256a;" 
d="M241 458l112 375h85v-53l-94 -269v-53h187v-94h-250v-62h216l-35 -91l-221 -19l-122 -359h-88v22l122 353h-191l29 78l197 19v59h-157v94h210z" />
    <glyph glyph-name="SF530000" unicode="&#x256b;" 
d="M-31 -167v19l153 450h-128l28 78l131 19l141 434h81v-53l-125 -363v-21h59l141 437h81v-53l-125 -363v-21h122l-34 -91l-128 -19l-154 -453h-87v19l153 453l-72 -22l-150 -450h-87z" />
    <glyph glyph-name="SF440000" unicode="&#x256c;" 
d="M188 39q62 185 90 263h219l-35 -91l-128 -19l-122 -359h-87v22zM-31 261l40 41h207l-160 -469h-87v22l122 353h-122v53zM312 408l138 425h81v-53l-93 -269v-53h93v-94h-219v44zM178 458l113 375h84v-44l-137 -425h-207v94h147z" />
    <glyph glyph-name="uni256D" unicode="&#x256d;" 
d="M266 339l125 53l137 4l-31 -88l-209 -41l-94 -200l-75 -234h-88v22l125 365z" />
    <glyph glyph-name="uni256E" unicode="&#x256e;" 
d="M0 355l41 41h109l81 -100l13 -91l-125 -372h-88v22l119 344l-59 103h-91v53z" />
    <glyph glyph-name="uni256F" unicode="&#x256f;" 
d="M234 474l125 359h79v-50l-104 -309l-100 -100l-137 -72h-97v56z" />
    <glyph glyph-name="uni2570" unicode="&#x2570;" 
d="M250 499l106 334h82v-59l-66 -175l-25 -175l181 -35l-34 -87h-147l-97 97v100z" />
    <glyph glyph-name="uni2571" unicode="&#x2571;" 
d="M594 786v47h62v-78l-153 -178q-197 -241 -253 -307q-35 -39 -156.5 -187t-159.5 -191l-59 -68l-37 34l53 94q209 253 265 318q33 38 161 194q115 143 191 225z" />
    <glyph glyph-name="uni2572" unicode="&#x2572;" 
d="M150 724l6 109h63l6 -47l19 -94l37 -253l25 -128q41 -244 53 -322l13 -78l-56 -91l-28 29l-38 253l-25 128q-38 228 -56 345l-19 117v32z" />
    <glyph glyph-name="uni2573" unicode="&#x2573;" 
d="M150 724l6 109h63l6 -47l19 -94l34 -209l34 -37l88 121l194 219v47h62v-78l-203 -244l-144 -162l35 -282l28 -156l-56 -91l-28 29l-47 281v78h-44q-203 -247 -263 -316l-59 -68l-41 37l97 144q135 156 197 230l63 73l6 103l-47 281v32z" />
    <glyph glyph-name="uni2574" unicode="&#x2574;" 
d="M0 355l41 41h268l-34 -94h-275v53z" />
    <glyph glyph-name="uni2575" unicode="&#x2575;" 
d="M356 833h82v-47l-163 -484h-94q28 78 55.5 160t67.5 208t52 163z" />
    <glyph glyph-name="uni2576" unicode="&#x2576;" 
d="M188 355l40 41h300l-34 -94h-306v53z" />
    <glyph glyph-name="uni2577" unicode="&#x2577;" 
d="M31 -167v19l157 465l28 79h93l-190 -563h-88z" />
    <glyph glyph-name="uni2578" unicode="&#x2578;" 
d="M0 327l38 100h281l-38 -100v-57h-281v57z" />
    <glyph glyph-name="uni2579" unicode="&#x2579;" 
d="M325 833h144v-47l-163 -484h-156q28 78 55.5 160t67.5 208t52 163z" />
    <glyph glyph-name="uni257A" unicode="&#x257a;" 
d="M188 327l37 100h313l-38 -100v-57h-312v57z" />
    <glyph glyph-name="uni257B" unicode="&#x257b;" 
d="M0 -167v19l156 465l28 79h157l-191 -563h-150z" />
    <glyph glyph-name="uni257C" unicode="&#x257c;" 
d="M22 380l212 37l304 10l-38 -100v-57h-209l-294 41z" />
    <glyph glyph-name="uni257D" unicode="&#x257d;" 
d="M244 474l112 359h82v-53l-97 -275l-25 -175l-166 -497h-156q28 78 100 297l72 219z" />
    <glyph glyph-name="uni257E" unicode="&#x257e;" 
d="M-6 296l40 131h169l322 -41l-31 -78l-466 -44z" />
    <glyph glyph-name="uni257F" unicode="&#x257f;" 
d="M178 380l147 453h144v-50l-157 -459l-53 -69l-140 -422h-88v22l128 369z" />
    <glyph glyph-name="upblock" unicode="&#x2580;" 
d="M6 330l163 503h487v-50l-147 -434z" />
    <glyph glyph-name="uni2581" unicode="&#x2581;" 
d="M-156 -142l37 100h494v-25l-37 -100h-494v25z" />
    <glyph glyph-name="uni2582" unicode="&#x2582;" 
d="M-125 -67l37 150h494v-53l-68 -197h-500z" />
    <glyph glyph-name="uni2583" unicode="&#x2583;" 
d="M-109 -8q46 138 75 216h500l-128 -375h-494v22z" />
    <glyph glyph-name="dnblock" unicode="&#x2584;" 
d="M6 333h500q-28 -78 -98 -289l-70 -211h-500q28 78 168 500z" />
    <glyph glyph-name="uni2585" unicode="&#x2585;" 
d="M-134 -89l178 547h487v-47l-193 -578h-500z" />
    <glyph glyph-name="uni2586" unicode="&#x2586;" 
d="M-156 -167v19l218 653l29 78h500l-253 -750h-494z" />
    <glyph glyph-name="uni2587" unicode="&#x2587;" 
d="M-134 -89l265 797h500q-28 -78 -161 -477l-132 -398h-500z" />
    <glyph glyph-name="block" unicode="&#x2588;" 
d="M-134 -89l303 922h487v-47l-318 -953h-500z" />
    <glyph glyph-name="uni2589" unicode="&#x2589;" 
d="M-134 -89l303 922h425v-47l-319 -953h-437z" />
    <glyph glyph-name="uni258A" unicode="&#x258a;" 
d="M-134 -89l303 922h362v-47l-319 -953h-374z" />
    <glyph glyph-name="uni258B" unicode="&#x258b;" 
d="M-134 -89l303 922h300v-47l-319 -953h-312z" />
    <glyph glyph-name="lfblock" unicode="&#x258c;" 
d="M-134 -89l303 922h237v-47l-318 -953h-250z" />
    <glyph glyph-name="uni258D" unicode="&#x258d;" 
d="M-134 -89l303 922h175v-47l-319 -953h-187z" />
    <glyph glyph-name="uni258E" unicode="&#x258e;" 
d="M-134 -89l303 922h112v-47l-319 -953h-124z" />
    <glyph glyph-name="uni258F" unicode="&#x258f;" 
d="M-134 -89l303 922h50v-47l-319 -953h-62z" />
    <glyph glyph-name="rtblock" unicode="&#x2590;" 
d="M116 -89l303 922h237v-47l-318 -953h-250z" />
    <glyph glyph-name="ltshade" unicode="&#x2591;" 
 />
    <glyph glyph-name="shade" unicode="&#x2592;" 
d="M253 405l103 175l28 -28l-81 -94l41 -41l-97 -150l31 -50l-84 -115l18 172l79 90zM275 599l6 93l63 -93v93l62 -93v93l60 -93l-97 -147l37 -35l-100 -153l38 -34l-97 -150l31 -47h-212l96 150l-37 34l100 153l-34 35l75 131zM338 452l100 150h-154l32 -47l-97 -150
l37 -38l-94 -134l29 -81l-66 -41v-75l63 94v-94l121 184l-31 47l97 150zM250 674l41 103l53 -85v94l62 -94v94l63 -94v94l62 -94v88l41 -41l-81 -93l40 -41l-100 -153l38 -35l-100 -153l37 -34l-97 -150l32 -47l-57 -91l-268 -3v200l62 -9l-3 200l66 -13l-3 200l65 -12
l-3 200zM475 549l16 147h-216l-53 -104l34 -34l-100 -153l38 -35l-100 -153l37 -34l-97 -147l60 -94v94l62 -94v94l63 -94v94l62 -94l7 94l9 63l75 131l-34 34l100 153l-41 41zM184 792l-25 28l482 -6l-25 -90v-75l-50 28l-4 -110l-9 -106l-50 28l-3 -109l-9 -106l-50 28
l-3 -110l-10 -106l-50 28l-3 -109l-9 -106l-63 37l35 -90l-479 12l-18 6l100 188h-38l100 187h-37l100 188h-38l100 187h-37zM525 639l97 147h-397l31 -81l-84 19l19 -116l-82 47l79 -85v-50l-79 16l19 -116l-81 47l78 -84v-50l-78 16l19 -116l-82 47l78 -84v-50l-78 15
l19 -115l-81 46l78 -84v-50l-47 16l-15 -47v-78l62 93v-93l62 93v-93l63 93v-93l63 93v-93l62 93v-93l122 184l-31 47l97 150l-38 34l100 153l-38 35l100 153z" />
    <glyph glyph-name="dkshade" unicode="&#x2593;" 
d="M-145 -122q11 33 314 955h478v-94h-44l-19 -187h-43l-19 -188h-44l-19 -187h-43l-19 -188h-56l31 -50l-56 -90l-472 -3z" />
    <glyph glyph-name="uni2596" unicode="&#x2596;" 
d="M6 333h250q-28 -78 -98 -289l-70 -211h-250q28 78 168 500z" />
    <glyph glyph-name="uni2597" unicode="&#x2597;" 
d="M256 333h250q-28 -78 -98 -289l-70 -211h-250q28 78 168 500z" />
    <glyph glyph-name="uni2598" unicode="&#x2598;" 
d="M3 330l166 503h237v-50l-147 -434z" />
    <glyph glyph-name="uni2599" unicode="&#x2599;" 
d="M-134 -89l303 922h237v-50l-153 -450h253q-28 -78 -98 -289l-70 -211h-500z" />
    <glyph glyph-name="uni259A" unicode="&#x259a;" 
d="M94 -167v19l156 462v38l-247 -25l166 506h237v-53l-125 -363v-84h225q-28 -78 -98 -289l-70 -211h-244z" />
    <glyph glyph-name="uni259B" unicode="&#x259b;" 
d="M-134 -89l303 922h487v-50l-147 -434l-256 -19l-165 -497h-250z" />
    <glyph glyph-name="uni259C" unicode="&#x259c;" 
d="M250 314v19h-244l163 500h487v-47l-318 -953h-244v19z" />
    <glyph glyph-name="uni259D" unicode="&#x259d;" 
d="M253 330l166 503h237v-50l-147 -434z" />
    <glyph glyph-name="uni259E" unicode="&#x259e;" 
d="M284 417l135 416h237v-50l-147 -434l-256 -19l-165 -497h-250q28 78 98 289l70 211h244v66l72 -44z" />
    <glyph glyph-name="uni259F" unicode="&#x259f;" 
d="M262 349l157 484h237v-47l-318 -953h-500q28 78 96 287l69 210z" />
    <glyph glyph-name="filledbox" unicode="&#x25a0;" 
d="M34 142l128 378h310l-44 -140l-75 -219z" />
    <glyph glyph-name="filledrect" unicode="&#x25ac;" 
d="M-31 120l37 150h432v-53l-69 -197h-438z" />
    <glyph glyph-name="uni25AE" unicode="&#x25ae;" 
d="M-41 99l179 547h393v-47l-193 -579h-407z" />
    <glyph glyph-name="triagup" unicode="&#x25b2;" 
d="M109 324l213 259h44v-78q43 -250 57 -336l15 -86h-500v47z" />
    <glyph glyph-name="uni25B6" unicode="&#x25b6;" 
d="M72 536l25 47h25l378 -225v-44l-544 -231l-25 28z" />
    <glyph glyph-name="triagrt" unicode="&#x25ba;" 
d="M72 536l25 47h25l378 -225v-44l-544 -231l-25 28z" />
    <glyph glyph-name="triagdn" unicode="&#x25bc;" 
d="M88 536l6 47h506l-84 -109l-63 -69l-219 -269l-43 -66l-38 35l-28 147l-37 253v31z" />
    <glyph glyph-name="uni25C0" unicode="&#x25c0;" 
d="M0 349l547 231l44 3l-163 -484l-19 -22l-409 237v35z" />
    <glyph glyph-name="triaglf" unicode="&#x25c4;" 
d="M0 349l547 231l44 3l-163 -484l-19 -22l-409 237v35z" />
    <glyph glyph-name="blackdiamond" unicode="&#x25c6;" 
d="M109 420l157 129l75 3l128 -182v-59l-275 -197h-63l-137 222z" />
    <glyph glyph-name="lozenge" unicode="&#x25ca;" 
d="M109 420l157 129l75 3l128 -182v-59l-275 -197h-63l-137 222zM375 314l-3 66l-81 109l-182 -137l-25 -16l107 -159z" />
    <glyph glyph-name="circle" unicode="&#x25cb;" 
d="M125 342l103 116h103l69 -69l-31 -112l-147 -78l-97 37v106zM312 305v91h-46l-94 -60l72 -72z" />
    <glyph glyph-name="H18533" unicode="&#x25cf;" 
d="M125 342l103 116h103l69 -69l-31 -112l-147 -78l-97 37v106z" />
    <glyph glyph-name="invbullet" unicode="&#x25d8;" 
d="M-134 -89l303 922h487v-47l-318 -953h-500zM400 389l-69 69h-103l-103 -116v-106l97 -37l147 78z" />
    <glyph glyph-name="invcircle" unicode="&#x25d9;" 
d="M172 336l94 60h46v-91l-68 -41zM-134 -89l303 922h487v-47l-318 -953h-500zM400 389l-69 69h-103l-103 -116v-106l97 -37l147 78z" />
    <glyph glyph-name="smileface" unicode="&#x263a;" 
d="M128 208l-37 62h225l-38 -62h-150zM281 396v62h94v-62h-94zM156 396v62h94v-62h-94zM72 536l94 110h322l68 -69l-159 -478l-100 -75l-331 -4l-35 91zM434 474l4 109h-204l-68 -47l-135 -403l53 -53l213 19z" />
    <glyph glyph-name="invsmileface" unicode="&#x263b;" 
d="M72 536l94 110h322l68 -69l-159 -478l-100 -75l-331 -4l-35 91zM219 396v62h-94v-62h94zM406 396v62h-94v-62h94zM275 177l75 93h-294l75 -93h144z" />
    <glyph glyph-name="sun" unicode="&#x263c;" 
d="M209 411l79 203h87v-28l-59 -156l90 34v56h94v-37l-141 -116l79 -3v-62h-94v-60l62 -37l-34 -59h-94l34 59l-56 34l-65 -187h-97l65 165l-25 22l-78 -93l-103 3l175 153h-97v62h138l-75 75v81h90zM281 302v62h-93v-62h93z" />
    <glyph glyph-name="female" unicode="&#x2640;" 
d="M94 533l103 113h259l69 -69l-66 -210l-209 -100v-59h159l-37 -62h-150l-38 -126h-93l37 126h-162l37 62h147l34 88l-131 34zM406 470v113h-140l-78 -50l-16 -153l153 -22z" />
    <glyph glyph-name="male" unicode="&#x2642;" 
d="M406 330v-19l-75 -212l-97 -75l-268 -4l-35 97l88 232l184 59l247 175h-169v63h281v-54l-68 -196h-60l41 131l-159 -107zM306 286l-28 47h-147l-69 -84l-15 -150l172 -19z" />
    <glyph glyph-name="spade" unicode="&#x2660;" 
d="M281 592v54h78l122 -226l-9 -124l-106 -119h-85l-3 78l-62 -109l37 -126h-222v63h88l34 137l-28 29v-72h-87l-66 81l90 184z" />
    <glyph glyph-name="club" unicode="&#x2663;" 
d="M181 514l72 135l169 -19l-19 -156l-91 -50v-54l116 32l41 -103l-63 -119l-125 -38l-72 44l41 -166h-219v63h94v87l-116 -31l-40 103l62 119l125 38l66 -41z" />
    <glyph glyph-name="heart" unicode="&#x2665;" 
d="M72 536l69 47h103l37 -97l138 97h112v-100l-93 -197l-254 -178l-81 31l-97 203z" />
    <glyph glyph-name="diamond" unicode="&#x2666;" 
d="M109 420l157 129l75 3l128 -182v-59l-275 -197h-63l-137 222z" />
    <glyph glyph-name="musicalnote" unicode="&#x266a;" 
d="M-12 83l181 563h362v-54l-69 -193l-284 -19l-100 -281l-50 -79h-122v63h82zM400 458l31 125h-172l-40 -41v-84h181z" />
    <glyph glyph-name="musicalnotedbl" unicode="&#x266b;" 
d="M-41 99l179 547h424v-47l-165 -500l-69 -47l-125 3l109 81l94 263l-259 -19l-103 -310l-103 -62l-47 47zM431 458l31 125h-234l-40 -41v-84h243z" />
    <glyph glyph-name="uni2713" unicode="&#x2713;" 
d="M484 589l22 57h88v-47l-172 -194q-210 -256 -264 -320l-55 -65h-72l-9 110l-6 244l68 25l4 -82l18 -175l160 182z" />
    <glyph glyph-name="uni2714" unicode="&#x2714;" 
d="M469 599v47h125v-47l-172 -194q-210 -256 -264 -320l-55 -65h-72l-9 110l-6 250l112 22l-9 -53l6 -153l172 209z" />
    <glyph glyph-name="uni2717" unicode="&#x2717;" 
d="M297 458l125 188h78v-47l-156 -169v-66l75 -122l-50 -50l-97 141l-122 -141l-134 -172h-78v32q121 140 201 234l80 94v34l-91 122l-3 47h69z" />
    <glyph glyph-name="uni2718" unicode="&#x2718;" 
d="M303 480l119 162l109 4v-47l-156 -169v-94l63 -37v-91h-91l-56 100l-88 -88l-156 -200h-109v32q121 140 201 234l80 94v34l-91 122l-3 47h103z" />
    <glyph glyph-name="uni27E8" unicode="&#x27e8;" 
d="M344 599v47h94v-47l-222 -250l37 -329h-97l-3 79l-31 250z" />
    <glyph glyph-name="uni27E9" unicode="&#x27e9;" 
d="M259 411l-40 235h93l7 -47l25 -125l9 -166l-87 -88l-157 -200h-78v35l78 81l144 172z" />
    <glyph glyph-name="uni27EA" unicode="&#x27ea;" 
d="M438 599v47h93v-47l-222 -250l38 -329h-97l-3 79l-31 250zM250 599v47h94v-47l-222 -250l37 -329h-97l-3 79l-31 250z" />
    <glyph glyph-name="uni27EB" unicode="&#x27eb;" 
d="M353 411l-41 235h94l6 -47l26 -125l9 -166l-88 -88l-156 -200h-78v35l78 81l144 172zM166 411l-41 235h94l6 -47l25 -125l9 -166l-87 -88l-156 -200h-78v35l78 81l143 172z" />
    <glyph glyph-name="uni2800" unicode="&#x2800;" 
 />
    <glyph glyph-name="uni2801" unicode="&#x2801;" 
d="M188 730l40 40h78l-31 -124h-87v84z" />
    <glyph glyph-name="uni2802" unicode="&#x2802;" 
d="M94 420l37 100h88v-24l-38 -100h-87v24z" />
    <glyph glyph-name="uni2803" unicode="&#x2803;" 
d="M94 420l37 100h88v-24l-38 -100h-87v24zM188 730l40 40h78l-31 -124h-87v84z" />
    <glyph glyph-name="uni2804" unicode="&#x2804;" 
d="M6 142l32 128h90l-19 -109z" />
    <glyph glyph-name="uni2805" unicode="&#x2805;" 
d="M6 142l32 128h90l-19 -109zM188 730l40 40h78l-31 -124h-87v84z" />
    <glyph glyph-name="uni2806" unicode="&#x2806;" 
d="M6 142l32 128h90l-19 -109zM94 420l37 100h88v-24l-38 -100h-87v24z" />
    <glyph glyph-name="uni2807" unicode="&#x2807;" 
d="M6 142l32 128h90l-19 -109zM94 420l37 100h88v-24l-38 -100h-87v24zM188 730l40 40h78l-31 -124h-87v84z" />
    <glyph glyph-name="uni2808" unicode="&#x2808;" 
d="M438 730l40 40h78l-31 -124h-87v84z" />
    <glyph glyph-name="uni2809" unicode="&#x2809;" 
d="M438 730l40 40h78l-31 -124h-87v84zM188 730l40 40h78l-31 -124h-87v84z" />
    <glyph glyph-name="uni280A" unicode="&#x280a;" 
d="M94 420l37 100h88v-24l-38 -100h-87v24zM438 730l40 40h78l-31 -124h-87v84z" />
    <glyph glyph-name="uni280B" unicode="&#x280b;" 
d="M94 420l37 100h88v-24l-38 -100h-87v24zM438 730l40 40h78l-31 -124h-87v84zM188 730l40 40h78l-31 -124h-87v84z" />
    <glyph glyph-name="uni280C" unicode="&#x280c;" 
d="M6 142l32 128h90l-19 -109zM438 730l40 40h78l-31 -124h-87v84z" />
    <glyph glyph-name="uni280D" unicode="&#x280d;" 
d="M6 142l32 128h90l-19 -109zM438 730l40 40h78l-31 -124h-87v84zM188 730l40 40h78l-31 -124h-87v84z" />
    <glyph glyph-name="uni280E" unicode="&#x280e;" 
d="M6 142l32 128h90l-19 -109zM94 420l37 100h88v-24l-38 -100h-87v24zM438 730l40 40h78l-31 -124h-87v84z" />
    <glyph glyph-name="uni280F" unicode="&#x280f;" 
d="M6 142l32 128h90l-19 -109zM94 420l37 100h88v-24l-38 -100h-87v24zM438 730l40 40h78l-31 -124h-87v84zM188 730l40 40h78l-31 -124h-87v84z" />
    <glyph glyph-name="uni2810" unicode="&#x2810;" 
d="M344 420l37 100h88v-24l-38 -100h-87v24z" />
    <glyph glyph-name="uni2811" unicode="&#x2811;" 
d="M344 420l37 100h88v-24l-38 -100h-87v24zM188 730l40 40h78l-31 -124h-87v84z" />
    <glyph glyph-name="uni2812" unicode="&#x2812;" 
d="M344 420l37 100h88v-24l-38 -100h-87v24zM94 420l37 100h88v-24l-38 -100h-87v24z" />
    <glyph glyph-name="uni2813" unicode="&#x2813;" 
d="M344 420l37 100h88v-24l-38 -100h-87v24zM94 420l37 100h88v-24l-38 -100h-87v24zM188 730l40 40h78l-31 -124h-87v84z" />
    <glyph glyph-name="uni2814" unicode="&#x2814;" 
d="M6 142l32 128h90l-19 -109zM344 420l37 100h88v-24l-38 -100h-87v24z" />
    <glyph glyph-name="uni2815" unicode="&#x2815;" 
d="M6 142l32 128h90l-19 -109zM344 420l37 100h88v-24l-38 -100h-87v24zM188 730l40 40h78l-31 -124h-87v84z" />
    <glyph glyph-name="uni2816" unicode="&#x2816;" 
d="M6 142l32 128h90l-19 -109zM344 420l37 100h88v-24l-38 -100h-87v24zM94 420l37 100h88v-24l-38 -100h-87v24z" />
    <glyph glyph-name="uni2817" unicode="&#x2817;" 
d="M6 142l32 128h90l-19 -109zM344 420l37 100h88v-24l-38 -100h-87v24zM94 420l37 100h88v-24l-38 -100h-87v24zM188 730l40 40h78l-31 -124h-87v84z" />
    <glyph glyph-name="uni2818" unicode="&#x2818;" 
d="M344 420l37 100h88v-24l-38 -100h-87v24zM438 730l40 40h78l-31 -124h-87v84z" />
    <glyph glyph-name="uni2819" unicode="&#x2819;" 
d="M344 420l37 100h88v-24l-38 -100h-87v24zM438 730l40 40h78l-31 -124h-87v84zM188 730l40 40h78l-31 -124h-87v84z" />
    <glyph glyph-name="uni281A" unicode="&#x281a;" 
d="M344 420l37 100h88v-24l-38 -100h-87v24zM94 420l37 100h88v-24l-38 -100h-87v24zM438 730l40 40h78l-31 -124h-87v84z" />
    <glyph glyph-name="uni281B" unicode="&#x281b;" 
d="M344 420l37 100h88v-24l-38 -100h-87v24zM94 420l37 100h88v-24l-38 -100h-87v24zM438 730l40 40h78l-31 -124h-87v84zM188 730l40 40h78l-31 -124h-87v84z" />
    <glyph glyph-name="uni281C" unicode="&#x281c;" 
d="M6 142l32 128h90l-19 -109zM344 420l37 100h88v-24l-38 -100h-87v24zM438 730l40 40h78l-31 -124h-87v84z" />
    <glyph glyph-name="uni281D" unicode="&#x281d;" 
d="M6 142l32 128h90l-19 -109zM344 420l37 100h88v-24l-38 -100h-87v24zM438 730l40 40h78l-31 -124h-87v84zM188 730l40 40h78l-31 -124h-87v84z" />
    <glyph glyph-name="uni281E" unicode="&#x281e;" 
d="M6 142l32 128h90l-19 -109zM344 420l37 100h88v-24l-38 -100h-87v24zM94 420l37 100h88v-24l-38 -100h-87v24zM438 730l40 40h78l-31 -124h-87v84z" />
    <glyph glyph-name="uni281F" unicode="&#x281f;" 
d="M6 142l32 128h90l-19 -109zM344 420l37 100h88v-24l-38 -100h-87v24zM94 420l37 100h88v-24l-38 -100h-87v24zM438 730l40 40h78l-31 -124h-87v84zM188 730l40 40h78l-31 -124h-87v84z" />
    <glyph glyph-name="uni2820" unicode="&#x2820;" 
d="M256 142l32 128h90l-19 -109z" />
    <glyph glyph-name="uni2821" unicode="&#x2821;" 
d="M256 142l32 128h90l-19 -109zM188 730l40 40h78l-31 -124h-87v84z" />
    <glyph glyph-name="uni2822" unicode="&#x2822;" 
d="M256 142l32 128h90l-19 -109zM94 420l37 100h88v-24l-38 -100h-87v24z" />
    <glyph glyph-name="uni2823" unicode="&#x2823;" 
d="M256 142l32 128h90l-19 -109zM94 420l37 100h88v-24l-38 -100h-87v24zM188 730l40 40h78l-31 -124h-87v84z" />
    <glyph glyph-name="uni2824" unicode="&#x2824;" 
d="M256 142l32 128h90l-19 -109zM6 142l32 128h90l-19 -109z" />
    <glyph glyph-name="uni2825" unicode="&#x2825;" 
d="M256 142l32 128h90l-19 -109zM6 142l32 128h90l-19 -109zM188 730l40 40h78l-31 -124h-87v84z" />
    <glyph glyph-name="uni2826" unicode="&#x2826;" 
d="M256 142l32 128h90l-19 -109zM6 142l32 128h90l-19 -109zM94 420l37 100h88v-24l-38 -100h-87v24z" />
    <glyph glyph-name="uni2827" unicode="&#x2827;" 
d="M256 142l32 128h90l-19 -109zM6 142l32 128h90l-19 -109zM94 420l37 100h88v-24l-38 -100h-87v24zM188 730l40 40h78l-31 -124h-87v84z" />
    <glyph glyph-name="uni2828" unicode="&#x2828;" 
d="M256 142l32 128h90l-19 -109zM438 730l40 40h78l-31 -124h-87v84z" />
    <glyph glyph-name="uni2829" unicode="&#x2829;" 
d="M256 142l32 128h90l-19 -109zM438 730l40 40h78l-31 -124h-87v84zM188 730l40 40h78l-31 -124h-87v84z" />
    <glyph glyph-name="uni282A" unicode="&#x282a;" 
d="M256 142l32 128h90l-19 -109zM94 420l37 100h88v-24l-38 -100h-87v24zM438 730l40 40h78l-31 -124h-87v84z" />
    <glyph glyph-name="uni282B" unicode="&#x282b;" 
d="M256 142l32 128h90l-19 -109zM94 420l37 100h88v-24l-38 -100h-87v24zM438 730l40 40h78l-31 -124h-87v84zM188 730l40 40h78l-31 -124h-87v84z" />
    <glyph glyph-name="uni282C" unicode="&#x282c;" 
d="M256 142l32 128h90l-19 -109zM6 142l32 128h90l-19 -109zM438 730l40 40h78l-31 -124h-87v84z" />
    <glyph glyph-name="uni282D" unicode="&#x282d;" 
d="M256 142l32 128h90l-19 -109zM6 142l32 128h90l-19 -109zM438 730l40 40h78l-31 -124h-87v84zM188 730l40 40h78l-31 -124h-87v84z" />
    <glyph glyph-name="uni282E" unicode="&#x282e;" 
d="M256 142l32 128h90l-19 -109zM6 142l32 128h90l-19 -109zM94 420l37 100h88v-24l-38 -100h-87v24zM438 730l40 40h78l-31 -124h-87v84z" />
    <glyph glyph-name="uni282F" unicode="&#x282f;" 
d="M256 142l32 128h90l-19 -109zM6 142l32 128h90l-19 -109zM94 420l37 100h88v-24l-38 -100h-87v24zM438 730l40 40h78l-31 -124h-87v84zM188 730l40 40h78l-31 -124h-87v84z" />
    <glyph glyph-name="uni2830" unicode="&#x2830;" 
d="M256 142l32 128h90l-19 -109zM344 420l37 100h88v-24l-38 -100h-87v24z" />
    <glyph glyph-name="uni2831" unicode="&#x2831;" 
d="M256 142l32 128h90l-19 -109zM344 420l37 100h88v-24l-38 -100h-87v24zM188 730l40 40h78l-31 -124h-87v84z" />
    <glyph glyph-name="uni2832" unicode="&#x2832;" 
d="M256 142l32 128h90l-19 -109zM344 420l37 100h88v-24l-38 -100h-87v24zM94 420l37 100h88v-24l-38 -100h-87v24z" />
    <glyph glyph-name="uni2833" unicode="&#x2833;" 
d="M256 142l32 128h90l-19 -109zM344 420l37 100h88v-24l-38 -100h-87v24zM94 420l37 100h88v-24l-38 -100h-87v24zM188 730l40 40h78l-31 -124h-87v84z" />
    <glyph glyph-name="uni2834" unicode="&#x2834;" 
d="M256 142l32 128h90l-19 -109zM6 142l32 128h90l-19 -109zM344 420l37 100h88v-24l-38 -100h-87v24z" />
    <glyph glyph-name="uni2835" unicode="&#x2835;" 
d="M256 142l32 128h90l-19 -109zM6 142l32 128h90l-19 -109zM344 420l37 100h88v-24l-38 -100h-87v24zM188 730l40 40h78l-31 -124h-87v84z" />
    <glyph glyph-name="uni2836" unicode="&#x2836;" 
d="M256 142l32 128h90l-19 -109zM6 142l32 128h90l-19 -109zM344 420l37 100h88v-24l-38 -100h-87v24zM94 420l37 100h88v-24l-38 -100h-87v24z" />
    <glyph glyph-name="uni2837" unicode="&#x2837;" 
d="M256 142l32 128h90l-19 -109zM6 142l32 128h90l-19 -109zM344 420l37 100h88v-24l-38 -100h-87v24zM94 420l37 100h88v-24l-38 -100h-87v24zM188 730l40 40h78l-31 -124h-87v84z" />
    <glyph glyph-name="uni2838" unicode="&#x2838;" 
d="M256 142l32 128h90l-19 -109zM344 420l37 100h88v-24l-38 -100h-87v24zM438 730l40 40h78l-31 -124h-87v84z" />
    <glyph glyph-name="uni2839" unicode="&#x2839;" 
d="M256 142l32 128h90l-19 -109zM344 420l37 100h88v-24l-38 -100h-87v24zM438 730l40 40h78l-31 -124h-87v84zM188 730l40 40h78l-31 -124h-87v84z" />
    <glyph glyph-name="uni283A" unicode="&#x283a;" 
d="M256 142l32 128h90l-19 -109zM344 420l37 100h88v-24l-38 -100h-87v24zM94 420l37 100h88v-24l-38 -100h-87v24zM438 730l40 40h78l-31 -124h-87v84z" />
    <glyph glyph-name="uni283B" unicode="&#x283b;" 
d="M256 142l32 128h90l-19 -109zM344 420l37 100h88v-24l-38 -100h-87v24zM94 420l37 100h88v-24l-38 -100h-87v24zM438 730l40 40h78l-31 -124h-87v84zM188 730l40 40h78l-31 -124h-87v84z" />
    <glyph glyph-name="uni283C" unicode="&#x283c;" 
d="M256 142l32 128h90l-19 -109zM6 142l32 128h90l-19 -109zM344 420l37 100h88v-24l-38 -100h-87v24zM438 730l40 40h78l-31 -124h-87v84z" />
    <glyph glyph-name="uni283D" unicode="&#x283d;" 
d="M256 142l32 128h90l-19 -109zM6 142l32 128h90l-19 -109zM344 420l37 100h88v-24l-38 -100h-87v24zM438 730l40 40h78l-31 -124h-87v84zM188 730l40 40h78l-31 -124h-87v84z" />
    <glyph glyph-name="uni283E" unicode="&#x283e;" 
d="M256 142l32 128h90l-19 -109zM6 142l32 128h90l-19 -109zM344 420l37 100h88v-24l-38 -100h-87v24zM94 420l37 100h88v-24l-38 -100h-87v24zM438 730l40 40h78l-31 -124h-87v84z" />
    <glyph glyph-name="uni283F" unicode="&#x283f;" 
d="M256 142l32 128h90l-19 -109zM6 142l32 128h90l-19 -109zM344 420l37 100h88v-24l-38 -100h-87v24zM94 420l37 100h88v-24l-38 -100h-87v24zM438 730l40 40h78l-31 -124h-87v84zM188 730l40 40h78l-31 -124h-87v84z" />
    <glyph glyph-name="uni2840" unicode="&#x2840;" 
d="M-62 -20l40 40h78l-31 -124h-87v84z" />
    <glyph glyph-name="uni2841" unicode="&#x2841;" 
d="M-62 -20l40 40h78l-31 -124h-87v84zM188 730l40 40h78l-31 -124h-87v84z" />
    <glyph glyph-name="uni2842" unicode="&#x2842;" 
d="M-62 -20l40 40h78l-31 -124h-87v84zM94 420l37 100h88v-24l-38 -100h-87v24z" />
    <glyph glyph-name="uni2843" unicode="&#x2843;" 
d="M-62 -20l40 40h78l-31 -124h-87v84zM94 420l37 100h88v-24l-38 -100h-87v24zM188 730l40 40h78l-31 -124h-87v84z" />
    <glyph glyph-name="uni2844" unicode="&#x2844;" 
d="M-62 -20l40 40h78l-31 -124h-87v84zM6 142l32 128h90l-19 -109z" />
    <glyph glyph-name="uni2845" unicode="&#x2845;" 
d="M-62 -20l40 40h78l-31 -124h-87v84zM6 142l32 128h90l-19 -109zM188 730l40 40h78l-31 -124h-87v84z" />
    <glyph glyph-name="uni2846" unicode="&#x2846;" 
d="M-62 -20l40 40h78l-31 -124h-87v84zM6 142l32 128h90l-19 -109zM94 420l37 100h88v-24l-38 -100h-87v24z" />
    <glyph glyph-name="uni2847" unicode="&#x2847;" 
d="M-62 -20l40 40h78l-31 -124h-87v84zM6 142l32 128h90l-19 -109zM94 420l37 100h88v-24l-38 -100h-87v24zM188 730l40 40h78l-31 -124h-87v84z" />
    <glyph glyph-name="uni2848" unicode="&#x2848;" 
d="M-62 -20l40 40h78l-31 -124h-87v84zM438 730l40 40h78l-31 -124h-87v84z" />
    <glyph glyph-name="uni2849" unicode="&#x2849;" 
d="M-62 -20l40 40h78l-31 -124h-87v84zM438 730l40 40h78l-31 -124h-87v84zM188 730l40 40h78l-31 -124h-87v84z" />
    <glyph glyph-name="uni284A" unicode="&#x284a;" 
d="M-62 -20l40 40h78l-31 -124h-87v84zM94 420l37 100h88v-24l-38 -100h-87v24zM438 730l40 40h78l-31 -124h-87v84z" />
    <glyph glyph-name="uni284B" unicode="&#x284b;" 
d="M-62 -20l40 40h78l-31 -124h-87v84zM94 420l37 100h88v-24l-38 -100h-87v24zM438 730l40 40h78l-31 -124h-87v84zM188 730l40 40h78l-31 -124h-87v84z" />
    <glyph glyph-name="uni284C" unicode="&#x284c;" 
d="M-62 -20l40 40h78l-31 -124h-87v84zM6 142l32 128h90l-19 -109zM438 730l40 40h78l-31 -124h-87v84z" />
    <glyph glyph-name="uni284D" unicode="&#x284d;" 
d="M-62 -20l40 40h78l-31 -124h-87v84zM6 142l32 128h90l-19 -109zM438 730l40 40h78l-31 -124h-87v84zM188 730l40 40h78l-31 -124h-87v84z" />
    <glyph glyph-name="uni284E" unicode="&#x284e;" 
d="M-62 -20l40 40h78l-31 -124h-87v84zM6 142l32 128h90l-19 -109zM94 420l37 100h88v-24l-38 -100h-87v24zM438 730l40 40h78l-31 -124h-87v84z" />
    <glyph glyph-name="uni284F" unicode="&#x284f;" 
d="M-62 -20l40 40h78l-31 -124h-87v84zM6 142l32 128h90l-19 -109zM94 420l37 100h88v-24l-38 -100h-87v24zM438 730l40 40h78l-31 -124h-87v84zM188 730l40 40h78l-31 -124h-87v84z" />
    <glyph glyph-name="uni2850" unicode="&#x2850;" 
d="M-62 -20l40 40h78l-31 -124h-87v84zM344 420l37 100h88v-24l-38 -100h-87v24z" />
    <glyph glyph-name="uni2851" unicode="&#x2851;" 
d="M-62 -20l40 40h78l-31 -124h-87v84zM344 420l37 100h88v-24l-38 -100h-87v24zM188 730l40 40h78l-31 -124h-87v84z" />
    </font>
</defs>
</svg>
